<svg width="800" height="183" viewBox="0 0 800 183" fill="none" xmlns="http://www.w3.org/2000/svg">
<path fill-rule="evenodd" clip-rule="evenodd" d="M70.9837 66.5518L13.4297 82.5498L70.9837 102.387L128.538 82.5498L70.9837 66.5518ZM79.2966 83.8305C79.2966 85.5976 75.5746 87.0301 70.9833 87.0301C66.3919 87.0301 62.6699 85.5976 62.6699 83.8305C62.6699 82.0634 66.3919 80.6309 70.9833 80.6309C75.5746 80.6309 79.2966 82.0634 79.2966 83.8305Z" fill="#888B8C"/>
<path fill-rule="evenodd" clip-rule="evenodd" d="M49.7758 61.4363C54.396 68.3288 61.6268 75.7935 70.9832 83.8296C80.3395 75.7935 87.0855 68.3288 91.7052 61.4363C96.3255 54.5438 98.6353 48.1647 98.6353 42.2987C98.6353 33.4998 95.8318 26.4899 90.2235 21.2693C84.6152 16.0486 78.1212 13.4382 70.7408 13.4382C63.3601 13.4382 56.8658 16.0486 51.2578 21.2693C45.6497 26.4899 42.8457 33.4998 42.8457 42.2987C42.8457 48.1647 45.1557 54.5438 49.7758 61.4363ZM84.4132 41.5946C84.4132 49.0164 78.4007 55.033 70.9839 55.033C63.5672 55.033 57.5547 49.0164 57.5547 41.5946C57.5547 34.1728 63.5672 28.1562 70.9839 28.1562C78.4007 28.1562 84.4132 34.1728 84.4132 41.5946Z" fill="#ECB44B"/>
<path d="M200.092 70.5657V96.9189C198.784 97.7246 197.3 98.4292 195.64 99.0332C193.98 99.6373 192.244 100.141 190.433 100.543C188.673 100.997 186.862 101.324 185 101.525C183.189 101.727 181.478 101.827 179.869 101.827C175.341 101.827 171.291 101.072 167.72 99.5618C164.198 98.0516 161.205 96.0128 158.74 93.4455C156.325 90.8781 154.464 87.9082 153.156 84.5352C151.898 81.1123 151.27 77.5127 151.27 73.7371C151.27 69.76 151.949 66.06 153.307 62.6371C154.716 59.2139 156.627 56.2438 159.042 53.7268C161.507 51.2098 164.45 49.2465 167.871 47.837C171.291 46.3771 175.039 45.6472 179.114 45.6472C184.044 45.6472 188.069 46.2764 191.188 47.5349C194.306 48.7431 196.923 50.4295 199.035 52.5941L193.904 58.1064C191.691 55.9921 189.352 54.5323 186.886 53.7268C184.421 52.871 181.831 52.4431 179.114 52.4431C176.045 52.4431 173.279 53.0221 170.814 54.1799C168.348 55.2874 166.235 56.7976 164.475 58.7105C162.714 60.6234 161.356 62.8888 160.4 65.5065C159.444 68.0738 158.966 70.8172 158.966 73.7371C158.966 76.7576 159.495 79.5764 160.551 82.1944C161.607 84.7617 163.066 87.0021 164.928 88.9148C166.789 90.8275 168.978 92.3378 171.493 93.4455C174.008 94.5026 176.75 95.0312 179.718 95.0312C182.283 95.0312 184.698 94.8046 186.962 94.3516C189.276 93.848 191.238 93.1434 192.848 92.2373V77.3617H181.001V70.5657H200.092ZM216.717 85.0638C216.717 86.6245 217.044 88.0592 217.698 89.3679C218.402 90.6266 219.308 91.7087 220.415 92.6148C221.521 93.521 222.804 94.2255 224.263 94.7291C225.722 95.2328 227.231 95.4842 228.791 95.4842C230.904 95.4842 232.74 95.0062 234.299 94.0495C235.858 93.0429 237.292 91.7337 238.601 90.123L243.732 94.0495C239.959 98.9328 234.677 101.374 227.885 101.374C225.068 101.374 222.502 100.896 220.188 99.9394C217.925 98.9827 215.988 97.6741 214.378 96.0128C212.818 94.301 211.611 92.3128 210.756 90.0475C209.9 87.7316 209.473 85.2397 209.473 82.5719C209.473 79.9041 209.926 77.4372 210.831 75.1719C211.787 72.856 213.07 70.8677 214.68 69.2065C216.34 67.4947 218.302 66.1611 220.566 65.2044C222.83 64.2478 225.294 63.7697 227.961 63.7697C231.13 63.7697 233.796 64.3233 235.96 65.431C238.173 66.5387 239.984 67.9983 241.393 69.8106C242.801 71.5723 243.807 73.5861 244.411 75.8515C245.065 78.0662 245.392 80.3315 245.392 82.6474V85.0638H216.717ZM238.148 79.627C238.097 78.1168 237.846 76.7326 237.393 75.4739C236.99 74.2152 236.362 73.1331 235.507 72.2269C234.651 71.2703 233.57 70.5407 232.262 70.0371C231.004 69.4836 229.52 69.2065 227.81 69.2065C226.15 69.2065 224.615 69.5335 223.207 70.1881C221.849 70.7922 220.691 71.5979 219.736 72.6045C218.78 73.6111 218.025 74.7437 217.472 76.0025C216.969 77.2106 216.717 78.4188 216.717 79.627H238.148ZM259.025 82.5719C259.025 84.3842 259.302 86.0704 259.855 87.6311C260.408 89.1413 261.188 90.45 262.194 91.5577C263.2 92.6148 264.433 93.4704 265.891 94.125C267.35 94.7291 268.985 95.0312 270.796 95.0312C272.607 95.0312 274.243 94.7291 275.701 94.125C277.16 93.4704 278.393 92.6148 279.399 91.5577C280.405 90.45 281.185 89.1413 281.738 87.6311C282.291 86.0704 282.568 84.3842 282.568 82.5719C282.568 80.7596 282.291 79.0984 281.738 77.5882C281.185 76.0274 280.405 74.7188 279.399 73.6616C278.393 72.5539 277.16 71.6984 275.701 71.0943C274.243 70.4396 272.607 70.1126 270.796 70.1126C268.985 70.1126 267.35 70.4396 265.891 71.0943C264.433 71.6984 263.2 72.5539 262.194 73.6616C261.188 74.7188 260.408 76.0274 259.855 77.5882C259.302 79.0984 259.025 80.7596 259.025 82.5719ZM251.78 82.5719C251.78 79.954 252.258 77.5127 253.214 75.2474C254.22 72.982 255.578 70.9938 257.289 69.282C259 67.5702 261.011 66.2366 263.326 65.2799C265.64 64.2734 268.13 63.7697 270.796 63.7697C273.462 63.7697 275.952 64.2734 278.267 65.2799C280.581 66.2366 282.593 67.5702 284.304 69.282C286.014 70.9938 287.347 72.982 288.303 75.2474C289.309 77.5127 289.812 79.954 289.812 82.5719C289.812 85.1898 289.309 87.6561 288.303 89.972C287.347 92.2373 286.014 94.2255 284.304 95.9373C282.593 97.5985 280.581 98.9328 278.267 99.9394C275.952 100.896 273.462 101.374 270.796 101.374C268.13 101.374 265.64 100.896 263.326 99.9394C261.011 98.9328 259 97.5985 257.289 95.9373C255.578 94.2255 254.22 92.2373 253.214 89.972C252.258 87.6561 251.78 85.1898 251.78 82.5719ZM301.641 89.2924C302.948 91.2556 304.609 92.7153 306.621 93.672C308.683 94.5781 310.796 95.0312 312.96 95.0312C314.167 95.0312 315.399 94.8552 316.657 94.5026C317.914 94.1001 319.046 93.521 320.053 92.7659C321.109 92.0108 321.964 91.0797 322.619 89.972C323.272 88.8643 323.6 87.5806 323.6 86.1209C323.6 84.0572 322.945 82.4964 321.638 81.4392C320.329 80.3315 318.695 79.4254 316.733 78.7209C314.821 77.9658 312.708 77.2612 310.394 76.6066C308.13 75.902 306.017 74.9453 304.055 73.7371C302.143 72.529 300.534 70.9183 299.226 68.9045C297.918 66.8407 297.264 64.0718 297.264 60.5983C297.264 59.0377 297.591 57.3765 298.245 55.6146C298.949 53.8527 300.031 52.2417 301.49 50.7819C302.949 49.322 304.81 48.1139 307.074 47.1574C309.388 46.1506 312.155 45.6472 315.374 45.6472C318.292 45.6472 321.084 46.0499 323.75 46.8553C326.416 47.6608 328.756 49.2968 330.768 51.7635L324.882 57.1248C323.977 55.7152 322.694 54.5826 321.034 53.7268C319.374 52.871 317.487 52.4431 315.374 52.4431C313.362 52.4431 311.677 52.72 310.319 53.2737C309.01 53.7772 307.954 54.4568 307.149 55.3125C306.344 56.118 305.765 56.9989 305.414 57.9554C305.112 58.9119 304.961 59.7928 304.961 60.5983C304.961 62.8636 305.615 64.6004 306.923 65.8085C308.231 67.0167 309.84 67.9983 311.752 68.7534C313.714 69.5086 315.827 70.1881 318.091 70.7922C320.405 71.3963 322.517 72.2519 324.43 73.3596C326.392 74.4167 328.026 75.8764 329.334 77.7392C330.642 79.5515 331.296 82.0683 331.296 85.2903C331.296 87.8577 330.793 90.1735 329.787 92.2373C328.831 94.301 327.523 96.0378 325.863 97.4475C324.203 98.8573 322.241 99.9394 319.977 100.694C317.714 101.45 315.299 101.827 312.733 101.827C309.312 101.827 306.067 101.223 302.999 100.015C299.93 98.8067 297.49 96.9439 295.679 94.4271L301.641 89.2924ZM340.25 64.6759H347.042V69.8106H347.193C348.501 67.8979 350.287 66.4126 352.55 65.3555C354.865 64.2983 357.229 63.7697 359.644 63.7697C362.411 63.7697 364.901 64.2478 367.114 65.2044C369.378 66.1611 371.289 67.4947 372.849 69.2065C374.459 70.9183 375.692 72.9315 376.547 75.2474C377.402 77.5127 377.829 79.954 377.829 82.5719C377.829 85.2397 377.402 87.7316 376.547 90.0475C375.692 92.3128 374.459 94.301 372.849 96.0128C371.289 97.6741 369.378 98.9827 367.114 99.9394C364.901 100.896 362.411 101.374 359.644 101.374C357.078 101.374 354.663 100.846 352.399 99.7884C350.136 98.6807 348.4 97.196 347.193 95.3332H347.042V121.762H340.25V64.6759ZM358.814 70.1126C357.003 70.1126 355.367 70.4396 353.909 71.0943C352.45 71.6984 351.217 72.5539 350.211 73.6616C349.205 74.7188 348.425 76.0274 347.872 77.5882C347.319 79.0984 347.042 80.7596 347.042 82.5719C347.042 84.3842 347.319 86.0704 347.872 87.6311C348.425 89.1413 349.205 90.45 350.211 91.5577C351.217 92.6148 352.45 93.4704 353.909 94.125C355.367 94.7291 357.003 95.0312 358.814 95.0312C360.625 95.0312 362.26 94.7291 363.718 94.125C365.177 93.4704 366.41 92.6148 367.416 91.5577C368.422 90.45 369.202 89.1413 369.755 87.6311C370.308 86.0704 370.585 84.3842 370.585 82.5719C370.585 80.7596 370.308 79.0984 369.755 77.5882C369.202 76.0274 368.422 74.7188 367.416 73.6616C366.41 72.5539 365.177 71.6984 363.718 71.0943C362.26 70.4396 360.625 70.1126 358.814 70.1126ZM386.532 69.0555C388.444 67.2938 390.657 65.9845 393.173 65.1289C395.688 64.2228 398.203 63.7697 400.719 63.7697C403.334 63.7697 405.573 64.0967 407.435 64.7514C409.346 65.406 410.906 66.2865 412.113 67.3943C413.32 68.502 414.2 69.7856 414.754 71.2453C415.358 72.655 415.66 74.1397 415.66 75.7004V93.974C415.66 95.2328 415.685 96.3904 415.735 97.4475C415.785 98.5047 415.86 99.5113 415.961 100.468H409.925C409.774 98.6557 409.698 96.8434 409.698 95.0312H409.547C408.038 97.3471 406.252 98.9827 404.19 99.9394C402.127 100.896 399.738 101.374 397.021 101.374C395.361 101.374 393.776 101.148 392.267 100.694C390.758 100.241 389.425 99.5618 388.268 98.6557C387.161 97.7496 386.28 96.6419 385.627 95.3332C384.972 93.974 384.646 92.4133 384.646 90.6516C384.646 88.3357 385.148 86.398 386.155 84.8372C387.211 83.2765 388.619 82.0184 390.381 81.0617C392.192 80.0551 394.279 79.3499 396.644 78.9474C399.058 78.4943 401.624 78.2678 404.341 78.2678H409.321V76.7576C409.321 75.8515 409.144 74.9453 408.793 74.0392C408.44 73.1331 407.912 72.3274 407.208 71.6229C406.503 70.8677 405.623 70.2886 404.567 69.8861C403.511 69.433 402.253 69.2065 400.794 69.2065C399.486 69.2065 398.329 69.3326 397.323 69.5841C396.367 69.8355 395.486 70.1632 394.682 70.5657C393.877 70.9183 393.147 71.3458 392.494 71.8494C391.839 72.353 391.211 72.831 390.607 73.2841L386.532 69.0555ZM405.699 83.2515C404.089 83.2515 402.429 83.352 400.719 83.5535C399.058 83.7046 397.524 84.0316 396.116 84.5352C394.757 85.0388 393.625 85.7434 392.72 86.6495C391.864 87.5556 391.437 88.7132 391.437 90.123C391.437 92.1867 392.116 93.672 393.474 94.5781C394.883 95.4842 396.769 95.9373 399.134 95.9373C400.995 95.9373 402.58 95.6353 403.888 95.0312C405.196 94.3765 406.252 93.5459 407.057 92.5393C407.862 91.5327 408.44 90.425 408.793 89.2169C409.144 87.9581 409.321 86.725 409.321 85.5168V83.2515H405.699ZM444.678 70.5657H434.943V86.8005C434.943 87.8071 434.969 88.8143 435.019 89.8209C435.069 90.7776 435.245 91.6582 435.547 92.4638C435.899 93.2189 436.403 93.848 437.056 94.3516C437.761 94.8046 438.767 95.0312 440.075 95.0312C440.88 95.0312 441.71 94.9557 442.565 94.8046C443.42 94.6536 444.2 94.3765 444.904 93.974V100.166C444.1 100.619 443.043 100.921 441.735 101.072C440.477 101.274 439.497 101.374 438.792 101.374C436.176 101.374 434.139 101.021 432.68 100.317C431.271 99.5618 430.215 98.6051 429.51 97.4475C428.857 96.2899 428.454 95.0062 428.303 93.5965C428.203 92.1368 428.152 90.6765 428.152 89.2169V70.5657H420.304V64.6759H428.152V54.6329H434.943V64.6759H444.678V70.5657ZM453.968 64.6759H460.76V100.468H453.968V64.6759ZM452.384 51.839C452.384 50.4798 452.861 49.322 453.817 48.3655C454.823 47.3588 456.006 46.8553 457.364 46.8553C458.722 46.8553 459.879 47.3588 460.835 48.3655C461.841 49.322 462.344 50.4798 462.344 51.839C462.344 53.1982 461.841 54.3813 460.835 55.388C459.879 56.3445 458.722 56.8227 457.364 56.8227C456.006 56.8227 454.823 56.3445 453.817 55.388C452.861 54.3813 452.384 53.1982 452.384 51.839ZM471.719 69.0555C473.63 67.2938 475.844 65.9845 478.36 65.1289C480.875 64.2228 483.39 63.7697 485.905 63.7697C488.521 63.7697 490.76 64.0967 492.621 64.7514C494.533 65.406 496.093 66.2865 497.3 67.3943C498.507 68.502 499.387 69.7856 499.941 71.2453C500.545 72.655 500.847 74.1397 500.847 75.7004V93.974C500.847 95.2328 500.871 96.3904 500.922 97.4475C500.972 98.5047 501.047 99.5113 501.148 100.468H495.112C494.961 98.6557 494.885 96.8434 494.885 95.0312H494.734C493.225 97.3471 491.439 98.9827 489.377 99.9394C487.314 100.896 484.925 101.374 482.208 101.374C480.548 101.374 478.963 101.148 477.454 100.694C475.945 100.241 474.611 99.5618 473.455 98.6557C472.348 97.7496 471.467 96.6419 470.814 95.3332C470.159 93.974 469.833 92.4133 469.833 90.6516C469.833 88.3357 470.335 86.398 471.342 84.8372C472.398 83.2765 473.806 82.0184 475.568 81.0617C477.379 80.0551 479.466 79.3499 481.831 78.9474C484.245 78.4943 486.811 78.2678 489.528 78.2678H494.508V76.7576C494.508 75.8515 494.331 74.9453 493.98 74.0392C493.627 73.1331 493.099 72.3274 492.395 71.6229C491.69 70.8677 490.81 70.2886 489.754 69.8861C488.697 69.433 487.44 69.2065 485.981 69.2065C484.673 69.2065 483.516 69.3326 482.51 69.5841C481.554 69.8355 480.673 70.1632 479.869 70.5657C479.064 70.9183 478.334 71.3458 477.68 71.8494C477.026 72.353 476.398 72.831 475.794 73.2841L471.719 69.0555ZM490.886 83.2515C489.276 83.2515 487.615 83.352 485.905 83.5535C484.245 83.7046 482.711 84.0316 481.302 84.5352C479.944 85.0388 478.812 85.7434 477.907 86.6495C477.051 87.5556 476.624 88.7132 476.624 90.123C476.624 92.1867 477.303 93.672 478.661 94.5781C480.07 95.4842 481.956 95.9373 484.321 95.9373C486.182 95.9373 487.766 95.6353 489.075 95.0312C490.383 94.3765 491.439 93.5459 492.244 92.5393C493.049 91.5327 493.627 90.425 493.98 89.2169C494.331 87.9581 494.508 86.725 494.508 85.5168V83.2515H490.886ZM511.226 43.3818H518.017V100.468H511.226V43.3818ZM530.562 47.0064H537.806V69.2065H565.499V47.0064H572.744V100.468H565.499V76.0025H537.806V100.468H530.562V47.0064ZM590.266 82.5719C590.266 84.3842 590.542 86.0704 591.096 87.6311C591.649 89.1413 592.429 90.45 593.435 91.5577C594.441 92.6148 595.674 93.4704 597.133 94.125C598.592 94.7291 600.227 95.0312 602.038 95.0312C603.849 95.0312 605.483 94.7291 606.943 94.125C608.401 93.4704 609.634 92.6148 610.64 91.5577C611.646 90.45 612.426 89.1413 612.979 87.6311C613.533 86.0704 613.81 84.3842 613.81 82.5719C613.81 80.7596 613.533 79.0984 612.979 77.5882C612.426 76.0274 611.646 74.7188 610.64 73.6616C609.634 72.5539 608.401 71.6984 606.943 71.0943C605.483 70.4396 603.849 70.1126 602.038 70.1126C600.227 70.1126 598.592 70.4396 597.133 71.0943C595.674 71.6984 594.441 72.5539 593.435 73.6616C592.429 74.7188 591.649 76.0274 591.096 77.5882C590.542 79.0984 590.266 80.7596 590.266 82.5719ZM583.022 82.5719C583.022 79.954 583.5 77.5127 584.456 75.2474C585.462 72.982 586.82 70.9938 588.531 69.282C590.241 67.5702 592.253 66.2366 594.567 65.2799C596.881 64.2734 599.371 63.7697 602.038 63.7697C604.704 63.7697 607.194 64.2734 609.508 65.2799C611.822 66.2366 613.835 67.5702 615.545 69.282C617.255 70.9938 618.588 72.982 619.544 75.2474C620.55 77.5127 621.054 79.954 621.054 82.5719C621.054 85.1898 620.55 87.6561 619.544 89.972C618.588 92.2373 617.255 94.2255 615.545 95.9373C613.835 97.5985 611.822 98.9328 609.508 99.9394C607.194 100.896 604.704 101.374 602.038 101.374C599.371 101.374 596.881 100.896 594.567 99.9394C592.253 98.9328 590.241 97.5985 588.531 95.9373C586.82 94.2255 585.462 92.2373 584.456 89.972C583.5 87.6561 583.022 85.1898 583.022 82.5719ZM648.577 73.6616C647.771 72.655 646.767 71.8244 645.558 71.1698C644.401 70.4652 642.968 70.1126 641.261 70.1126C639.649 70.1126 638.239 70.4652 637.032 71.1698C635.875 71.8244 635.296 72.8061 635.296 74.1147C635.296 75.1719 635.624 76.0274 636.277 76.6821C636.982 77.3367 637.787 77.8653 638.692 78.2678C639.649 78.6703 640.653 78.9723 641.709 79.1739C642.77 79.3755 643.672 79.5515 644.426 79.7025C645.884 80.0551 647.247 80.4826 648.5 80.9862C649.811 81.4898 650.917 82.1438 651.825 82.9495C652.778 83.7551 653.507 84.7368 654.012 85.8944C654.562 87.052 654.844 88.4617 654.844 90.123C654.844 92.1368 654.415 93.8736 653.558 95.3332C652.701 96.743 651.595 97.9006 650.239 98.8067C648.877 99.7128 647.317 100.367 645.558 100.77C643.851 101.173 642.111 101.374 640.353 101.374C637.384 101.374 634.768 100.921 632.504 100.015C630.291 99.1088 628.304 97.4475 626.543 95.0312L631.674 90.8026C632.781 91.9103 634.014 92.8919 635.372 93.7475C636.73 94.6031 638.39 95.0312 640.353 95.0312C641.21 95.0312 642.06 94.9557 642.917 94.8046C643.825 94.6031 644.605 94.3266 645.258 93.974C645.961 93.5715 646.517 93.0929 646.92 92.5393C647.368 91.9352 647.598 91.2556 647.598 90.5005C647.598 89.4939 647.272 88.6633 646.613 88.0087C646.012 87.354 645.258 86.8511 644.35 86.4985C643.499 86.096 642.565 85.7939 641.561 85.5923C640.602 85.3408 639.752 85.1393 638.994 84.9882C637.535 84.6357 636.152 84.2331 634.844 83.7801C633.536 83.327 632.379 82.7229 631.372 81.9678C630.367 81.2127 629.561 80.256 628.958 79.0984C628.354 77.9408 628.052 76.5061 628.052 74.7943C628.052 72.9315 628.43 71.3208 629.184 69.9616C629.989 68.5519 631.021 67.3943 632.278 66.4881C633.586 65.582 635.045 64.9024 636.655 64.4493C638.315 63.9963 639.975 63.7697 641.638 63.7697C644.049 63.7697 646.364 64.2228 648.577 65.1289C650.789 66.0351 652.554 67.5453 653.859 69.6596L648.577 73.6616ZM682.258 70.5657H672.525V86.8005C672.525 87.8071 672.551 88.8143 672.596 89.8209C672.647 90.7776 672.826 91.6582 673.127 92.4638C673.478 93.2189 673.983 93.848 674.636 94.3516C675.339 94.8046 676.35 95.0312 677.654 95.0312C678.46 95.0312 679.291 94.9557 680.142 94.8046C680.999 94.6536 681.779 94.3765 682.482 93.974V100.166C681.677 100.619 680.621 100.921 679.317 101.072C678.057 101.274 677.079 101.374 676.369 101.374C673.753 101.374 671.72 101.021 670.262 100.317C668.848 99.5618 667.793 98.6051 667.09 97.4475C666.438 96.2899 666.035 95.0062 665.881 93.5965C665.785 92.1368 665.734 90.6765 665.734 89.2169V70.5657H657.881V64.6759H665.734V54.6329H672.525V64.6759H682.258V70.5657ZM691.55 64.6759H698.342V100.468H691.55V64.6759ZM689.964 51.839C689.964 50.4798 690.444 49.322 691.397 48.3655C692.401 47.3588 693.584 46.8553 694.946 46.8553C696.302 46.8553 697.459 47.3588 698.412 48.3655C699.422 49.322 699.921 50.4798 699.921 51.839C699.921 53.1982 699.422 54.3813 698.412 55.388C697.459 56.3445 696.302 56.8227 694.946 56.8227C693.584 56.8227 692.401 56.3445 691.397 55.388C690.444 54.3813 689.964 53.1982 689.964 51.839ZM709.149 64.6759H715.94V70.1881H716.087C716.944 68.2754 718.428 66.7396 720.545 65.582C722.655 64.3738 725.098 63.7697 727.86 63.7697C729.574 63.7697 731.205 64.0468 732.765 64.6004C734.377 65.104 735.758 65.909 736.916 67.0167C738.124 68.1244 739.077 69.5591 739.787 71.3208C740.49 73.0326 740.842 75.0714 740.842 77.4372V100.468H734.051V79.3249C734.051 77.6637 733.82 76.254 733.373 75.0963C732.919 73.8882 732.311 72.9315 731.557 72.2269C730.802 71.4718 729.926 70.9433 728.916 70.6412C727.963 70.2886 726.959 70.1126 725.897 70.1126C724.49 70.1126 723.186 70.3392 721.977 70.7922C720.768 71.2453 719.713 71.9754 718.805 72.982C717.904 73.9387 717.194 75.1719 716.695 76.6821C716.19 78.1923 715.94 79.9796 715.94 82.0433V100.468H709.149V64.6759ZM786.924 100.166C786.924 102.884 786.444 105.351 785.485 107.566C784.583 109.831 783.272 111.77 781.565 113.38C779.851 115.042 777.792 116.325 775.374 117.231C772.964 118.137 770.297 118.591 767.374 118.591C763.96 118.591 760.813 118.113 757.942 117.156C755.128 116.199 752.436 114.538 749.872 112.172L754.476 106.433C756.235 108.346 758.147 109.781 760.206 110.737C762.271 111.744 764.612 112.248 767.227 112.248C769.74 112.248 771.832 111.87 773.488 111.115C775.151 110.41 776.455 109.479 777.414 108.321C778.418 107.163 779.122 105.829 779.525 104.319C779.928 102.859 780.132 101.374 780.132 99.8639V94.5781H779.902C778.597 96.743 776.807 98.3537 774.543 99.4108C772.33 100.417 769.996 100.921 767.528 100.921C764.912 100.921 762.47 100.468 760.206 99.5618C757.993 98.6051 756.081 97.3215 754.476 95.7108C752.864 94.0495 751.605 92.1112 750.703 89.8964C749.795 87.6311 749.341 85.1898 749.341 82.5719C749.341 79.954 749.769 77.5127 750.626 75.2474C751.483 72.9315 752.685 70.9183 754.246 69.2065C755.857 67.4947 757.769 66.1611 759.982 65.2044C762.246 64.2478 764.759 63.7697 767.528 63.7697C769.945 63.7697 772.279 64.2983 774.543 65.3555C776.858 66.4126 778.674 67.8979 779.979 69.8106H780.132V64.6759H786.924V100.166ZM768.359 70.1126C766.549 70.1126 764.912 70.4396 763.454 71.0943C761.996 71.6984 760.762 72.5539 759.758 73.6616C758.748 74.7188 757.968 76.0274 757.418 77.5882C756.861 79.0984 756.586 80.7596 756.586 82.5719C756.586 86.1964 757.641 89.1164 759.758 91.3312C761.868 93.496 764.733 94.5781 768.359 94.5781C771.979 94.5781 774.85 93.496 776.96 91.3312C779.071 89.1164 780.132 86.1964 780.132 82.5719C780.132 80.7596 779.851 79.0984 779.301 77.5882C778.744 76.0274 777.964 74.7188 776.96 73.6616C775.956 72.5539 774.722 71.6984 773.264 71.0943C771.806 70.4396 770.169 70.1126 768.359 70.1126Z" fill="#FFFFFF"/>
<path d="M162.991 142.818V152.302H159.782V142.818L151.053 128.46H153.879C154.168 128.46 154.395 128.532 154.561 128.676C154.727 128.82 154.871 128.998 154.993 129.208L160.447 138.476C160.669 138.864 160.852 139.23 160.996 139.574C161.151 139.917 161.289 140.256 161.411 140.589C161.533 140.245 161.666 139.901 161.81 139.557C161.954 139.213 162.137 138.853 162.359 138.476L167.796 129.208C167.896 129.031 168.029 128.865 168.195 128.709C168.372 128.543 168.6 128.46 168.877 128.46H171.736L162.991 142.818ZM195.621 140.389C195.621 142.175 195.338 143.816 194.773 145.314C194.207 146.8 193.409 148.081 192.378 149.157C191.348 150.233 190.106 151.071 188.654 151.67C187.213 152.258 185.617 152.551 183.866 152.551C182.114 152.551 180.518 152.258 179.077 151.67C177.636 151.071 176.4 150.233 175.369 149.157C174.338 148.081 173.54 146.8 172.975 145.314C172.41 143.816 172.127 142.175 172.127 140.389C172.127 138.603 172.41 136.967 172.975 135.481C173.54 133.983 174.338 132.696 175.369 131.621C176.4 130.534 177.636 129.691 179.077 129.092C180.518 128.493 182.114 128.193 183.866 128.193C185.617 128.193 187.213 128.493 188.654 129.092C190.106 129.691 191.348 130.534 192.378 131.621C193.409 132.696 194.207 133.983 194.773 135.481C195.338 136.967 195.621 138.603 195.621 140.389ZM192.312 140.389C192.312 138.925 192.112 137.61 191.713 136.446C191.314 135.281 190.749 134.299 190.017 133.501C189.286 132.691 188.399 132.07 187.357 131.637C186.315 131.205 185.152 130.989 183.866 130.989C182.591 130.989 181.432 131.205 180.391 131.637C179.349 132.07 178.456 132.691 177.714 133.501C176.982 134.299 176.417 135.281 176.018 136.446C175.619 137.61 175.419 138.925 175.419 140.389C175.419 141.853 175.619 143.168 176.018 144.332C176.417 145.486 176.982 146.468 177.714 147.277C178.456 148.076 179.349 148.691 180.391 149.124C181.432 149.546 182.591 149.756 183.866 149.756C185.152 149.756 186.315 149.546 187.357 149.124C188.399 148.691 189.286 148.076 190.017 147.277C190.749 146.468 191.314 145.486 191.713 144.332C192.112 143.168 192.312 141.853 192.312 140.389ZM209.379 149.74C210.365 149.74 211.247 149.573 212.022 149.24C212.799 148.908 213.452 148.442 213.984 147.843C214.528 147.244 214.938 146.528 215.215 145.696C215.503 144.865 215.647 143.95 215.647 142.951V128.46H218.856V142.951C218.856 144.326 218.635 145.602 218.191 146.778C217.758 147.953 217.132 148.974 216.312 149.839C215.503 150.694 214.511 151.364 213.336 151.853C212.161 152.341 210.842 152.585 209.379 152.585C207.915 152.585 206.597 152.341 205.421 151.853C204.247 151.364 203.249 150.694 202.429 149.839C201.609 148.974 200.977 147.953 200.533 146.778C200.101 145.602 199.885 144.326 199.885 142.951V128.46H203.094V142.935C203.094 143.933 203.232 144.848 203.509 145.68C203.798 146.512 204.208 147.227 204.74 147.826C205.283 148.425 205.943 148.897 206.718 149.24C207.506 149.573 208.392 149.74 209.379 149.74ZM228.046 142.352V152.302H224.837V128.46H231.571C233.078 128.46 234.381 128.615 235.478 128.925C236.575 129.225 237.478 129.663 238.188 130.24C238.908 130.816 239.44 131.515 239.784 132.336C240.128 133.146 240.3 134.056 240.3 135.065C240.3 135.908 240.167 136.695 239.901 137.427C239.635 138.159 239.247 138.819 238.737 139.407C238.238 139.984 237.623 140.478 236.891 140.888C236.171 141.298 235.35 141.609 234.431 141.82C234.83 142.053 235.184 142.391 235.495 142.835L242.445 152.302H239.585C238.997 152.302 238.565 152.075 238.288 151.62L232.103 143.101C231.914 142.835 231.709 142.646 231.488 142.535C231.266 142.413 230.933 142.352 230.49 142.352H228.046ZM228.046 140.006H231.421C232.363 140.006 233.189 139.896 233.898 139.674C234.619 139.441 235.217 139.119 235.694 138.709C236.181 138.287 236.547 137.788 236.792 137.211C237.035 136.635 237.157 135.997 237.157 135.298C237.157 133.878 236.686 132.808 235.744 132.087C234.813 131.365 233.421 131.005 231.571 131.005H228.046V140.006ZM274.656 140.389C274.656 142.175 274.374 143.816 273.808 145.314C273.243 146.8 272.445 148.081 271.414 149.157C270.383 150.233 269.142 151.071 267.69 151.67C266.249 152.258 264.653 152.551 262.901 152.551C261.15 152.551 259.554 152.258 258.113 151.67C256.672 151.071 255.436 150.233 254.405 149.157C253.374 148.081 252.576 146.8 252.011 145.314C251.445 143.816 251.163 142.175 251.163 140.389C251.163 138.603 251.445 136.967 252.011 135.481C252.576 133.983 253.374 132.696 254.405 131.621C255.436 130.534 256.672 129.691 258.113 129.092C259.554 128.493 261.15 128.193 262.901 128.193C264.653 128.193 266.249 128.493 267.69 129.092C269.142 129.691 270.383 130.534 271.414 131.621C272.445 132.696 273.243 133.983 273.808 135.481C274.374 136.967 274.656 138.603 274.656 140.389ZM271.348 140.389C271.348 138.925 271.148 137.61 270.749 136.446C270.35 135.281 269.785 134.299 269.053 133.501C268.321 132.691 267.435 132.07 266.393 131.637C265.351 131.205 264.187 130.989 262.901 130.989C261.627 130.989 260.469 131.205 259.426 131.637C258.384 132.07 257.492 132.691 256.749 133.501C256.018 134.299 255.452 135.281 255.053 136.446C254.654 137.61 254.455 138.925 254.455 140.389C254.455 141.853 254.654 143.168 255.053 144.332C255.452 145.486 256.018 146.468 256.749 147.277C257.492 148.076 258.384 148.691 259.426 149.124C260.469 149.546 261.627 149.756 262.901 149.756C264.187 149.756 265.351 149.546 266.393 149.124C267.435 148.691 268.321 148.076 269.053 147.277C269.785 146.468 270.35 145.486 270.749 144.332C271.148 143.168 271.348 141.853 271.348 140.389ZM280.816 128.46C281.104 128.46 281.315 128.499 281.448 128.576C281.592 128.643 281.753 128.787 281.93 129.009L295.731 146.978C295.697 146.689 295.675 146.412 295.664 146.146C295.653 145.869 295.647 145.602 295.647 145.347V128.46H298.474V152.302H296.845C296.589 152.302 296.373 152.258 296.196 152.169C296.03 152.08 295.864 151.93 295.697 151.719L281.914 133.767C281.936 134.044 281.952 134.316 281.964 134.582C281.975 134.849 281.98 135.092 281.98 135.314V152.302H279.154V128.46H280.816ZM307.61 149.59H317.918V152.302H304.384V128.46H307.61V149.59ZM325.386 152.302H322.16V128.46H325.386V152.302ZM333.517 128.46C333.805 128.46 334.016 128.499 334.149 128.576C334.293 128.643 334.454 128.787 334.631 129.009L348.431 146.978C348.398 146.689 348.376 146.412 348.365 146.146C348.353 145.869 348.348 145.602 348.348 145.347V128.46H351.175V152.302H349.545C349.29 152.302 349.074 152.258 348.897 152.169C348.731 152.08 348.564 151.93 348.398 151.719L334.615 133.767C334.636 134.044 334.653 134.316 334.665 134.582C334.675 134.849 334.681 135.092 334.681 135.314V152.302H331.855V128.46H333.517ZM371.766 128.46V131.088H360.327V139.008H369.588V141.537H360.327V149.673H371.766V152.302H357.085V128.46H371.766ZM393.654 149.956C394.296 149.956 394.884 149.928 395.416 149.873C395.959 149.806 396.469 149.712 396.946 149.59C397.422 149.468 397.871 149.324 398.292 149.157C398.713 148.98 399.135 148.78 399.556 148.558V143.301H395.865C395.654 143.301 395.482 143.24 395.349 143.118C395.227 142.995 395.167 142.846 395.167 142.668V140.838H402.482V149.989C401.884 150.422 401.257 150.799 400.604 151.12C399.96 151.442 399.268 151.714 398.525 151.936C397.794 152.146 397.006 152.302 396.164 152.402C395.321 152.512 394.407 152.568 393.421 152.568C391.692 152.568 390.106 152.274 388.666 151.686C387.224 151.087 385.983 150.255 384.941 149.19C383.899 148.115 383.084 146.828 382.497 145.33C381.92 143.833 381.632 142.186 381.632 140.389C381.632 138.57 381.915 136.912 382.48 135.414C383.057 133.917 383.871 132.636 384.925 131.571C385.989 130.495 387.269 129.663 388.765 129.075C390.273 128.487 391.958 128.193 393.82 128.193C394.762 128.193 395.637 128.266 396.447 128.41C397.256 128.543 398.004 128.742 398.691 129.009C399.39 129.264 400.032 129.58 400.62 129.957C401.207 130.323 401.756 130.739 402.266 131.205L401.352 132.669C401.163 132.968 400.919 133.118 400.62 133.118C400.442 133.118 400.249 133.057 400.038 132.935C399.761 132.78 399.451 132.592 399.107 132.369C398.763 132.147 398.342 131.937 397.843 131.737C397.356 131.527 396.774 131.349 396.098 131.205C395.433 131.061 394.64 130.989 393.72 130.989C392.378 130.989 391.165 131.211 390.079 131.654C388.992 132.087 388.067 132.713 387.302 133.534C386.537 134.344 385.95 135.331 385.54 136.496C385.129 137.649 384.925 138.947 384.925 140.389C384.925 141.897 385.135 143.245 385.556 144.432C385.989 145.608 386.592 146.606 387.369 147.427C388.144 148.248 389.065 148.874 390.129 149.307C391.193 149.74 392.368 149.956 393.654 149.956ZM422.227 128.46V131.088H410.787V139.008H420.048V141.537H410.787V149.673H422.227V152.302H407.545V128.46H422.227ZM449.093 140.389C449.093 142.175 448.811 143.816 448.245 145.314C447.68 146.8 446.882 148.081 445.851 149.157C444.82 150.233 443.579 151.071 442.127 151.67C440.686 152.258 439.09 152.551 437.338 152.551C435.587 152.551 433.991 152.258 432.55 151.67C431.109 151.071 429.873 150.233 428.842 149.157C427.811 148.081 427.013 146.8 426.448 145.314C425.882 143.816 425.6 142.175 425.6 140.389C425.6 138.603 425.882 136.967 426.448 135.481C427.013 133.983 427.811 132.696 428.842 131.621C429.873 130.534 431.109 129.691 432.55 129.092C433.991 128.493 435.587 128.193 437.338 128.193C439.09 128.193 440.686 128.493 442.127 129.092C443.579 129.691 444.82 130.534 445.851 131.621C446.882 132.696 447.68 133.983 448.245 135.481C448.811 136.967 449.093 138.603 449.093 140.389ZM445.785 140.389C445.785 138.925 445.585 137.61 445.186 136.446C444.787 135.281 444.222 134.299 443.49 133.501C442.759 132.691 441.872 132.07 440.83 131.637C439.788 131.205 438.624 130.989 437.338 130.989C436.064 130.989 434.905 131.205 433.863 131.637C432.822 132.07 431.929 132.691 431.186 133.501C430.455 134.299 429.89 135.281 429.49 136.446C429.091 137.61 428.892 138.925 428.892 140.389C428.892 141.853 429.091 143.168 429.49 144.332C429.89 145.486 430.455 146.468 431.186 147.277C431.929 148.076 432.822 148.691 433.863 149.124C434.905 149.546 436.064 149.756 437.338 149.756C438.624 149.756 439.788 149.546 440.83 149.124C441.872 148.691 442.759 148.076 443.49 147.277C444.222 146.468 444.787 145.486 445.186 144.332C445.585 143.168 445.785 141.853 445.785 140.389ZM465.794 132.186C465.694 132.353 465.59 132.48 465.478 132.569C465.368 132.647 465.224 132.686 465.046 132.686C464.858 132.686 464.636 132.592 464.381 132.403C464.137 132.214 463.821 132.009 463.433 131.787C463.057 131.554 462.597 131.344 462.053 131.155C461.521 130.966 460.873 130.872 460.108 130.872C459.388 130.872 458.75 130.972 458.196 131.172C457.642 131.36 457.176 131.621 456.799 131.954C456.433 132.286 456.156 132.68 455.968 133.135C455.78 133.578 455.685 134.061 455.685 134.582C455.685 135.248 455.846 135.803 456.167 136.246C456.5 136.679 456.932 137.051 457.464 137.361C458.008 137.671 458.617 137.943 459.293 138.176C459.981 138.398 460.679 138.631 461.388 138.875C462.109 139.119 462.807 139.396 463.483 139.707C464.171 140.006 464.78 140.389 465.312 140.855C465.856 141.321 466.288 141.892 466.609 142.569C466.941 143.245 467.108 144.077 467.108 145.064C467.108 146.107 466.931 147.088 466.576 148.009C466.221 148.918 465.7 149.712 465.013 150.388C464.337 151.065 463.5 151.597 462.502 151.986C461.516 152.374 460.391 152.568 459.127 152.568C457.586 152.568 456.179 152.291 454.904 151.736C453.64 151.17 452.559 150.411 451.662 149.457L452.593 147.926C452.682 147.804 452.787 147.704 452.909 147.626C453.042 147.538 453.186 147.493 453.341 147.493C453.574 147.493 453.84 147.621 454.139 147.876C454.438 148.12 454.81 148.392 455.253 148.691C455.708 148.991 456.25 149.268 456.882 149.523C457.526 149.767 458.307 149.889 459.227 149.889C459.992 149.889 460.673 149.784 461.272 149.573C461.87 149.363 462.375 149.068 462.785 148.691C463.206 148.303 463.528 147.843 463.749 147.31C463.971 146.778 464.082 146.185 464.082 145.53C464.082 144.809 463.915 144.221 463.583 143.766C463.262 143.301 462.835 142.912 462.303 142.602C461.771 142.291 461.161 142.03 460.474 141.82C459.798 141.598 459.099 141.376 458.379 141.154C457.67 140.921 456.971 140.655 456.284 140.356C455.608 140.056 455.004 139.668 454.471 139.191C453.939 138.714 453.507 138.12 453.175 137.411C452.854 136.69 452.692 135.803 452.692 134.749C452.692 133.906 452.854 133.091 453.175 132.303C453.507 131.515 453.984 130.816 454.604 130.207C455.225 129.597 455.99 129.108 456.899 128.742C457.819 128.376 458.872 128.193 460.058 128.193C461.388 128.193 462.602 128.404 463.699 128.826C464.797 129.247 465.756 129.857 466.576 130.656L465.794 132.186ZM474.862 143.384V152.302H471.653V128.46H478.686C480.193 128.46 481.501 128.637 482.61 128.992C483.729 129.336 484.655 129.83 485.386 130.473C486.118 131.116 486.661 131.893 487.016 132.802C487.381 133.711 487.564 134.726 487.564 135.847C487.564 136.956 487.37 137.971 486.982 138.892C486.594 139.812 486.023 140.605 485.27 141.271C484.527 141.936 483.601 142.458 482.493 142.835C481.384 143.201 480.116 143.384 478.686 143.384H474.862ZM474.862 140.822H478.686C479.605 140.822 480.415 140.699 481.113 140.456C481.822 140.212 482.415 139.873 482.892 139.441C483.369 138.997 483.729 138.47 483.973 137.86C484.217 137.25 484.339 136.579 484.339 135.847C484.339 134.327 483.867 133.141 482.926 132.286C481.994 131.432 480.581 131.005 478.686 131.005H474.862V140.822ZM509.042 152.302H506.548C506.259 152.302 506.026 152.229 505.849 152.085C505.672 151.941 505.539 151.758 505.45 151.536L503.222 145.78H492.531L490.303 151.536C490.226 151.736 490.093 151.913 489.904 152.069C489.716 152.224 489.483 152.302 489.206 152.302H486.712L496.239 128.46H499.514L509.042 152.302ZM493.429 143.45H502.324L498.583 133.75C498.34 133.151 498.101 132.403 497.868 131.504C497.746 131.959 497.625 132.38 497.503 132.769C497.392 133.146 497.281 133.478 497.17 133.767L493.429 143.45ZM526.156 128.46V131.172H518.458V152.302H515.232V131.172H507.501V128.46H526.156ZM533.463 152.302H530.237V128.46H533.463V152.302ZM559.534 152.302H557.04C556.752 152.302 556.519 152.229 556.342 152.085C556.165 151.941 556.032 151.758 555.943 151.536L553.715 145.78H543.024L540.796 151.536C540.719 151.736 540.586 151.913 540.397 152.069C540.208 152.224 539.976 152.302 539.699 152.302H537.205L546.732 128.46H550.007L559.534 152.302ZM543.922 143.45H552.817L549.076 133.75C548.832 133.151 548.594 132.403 548.361 131.504C548.239 131.959 548.118 132.38 547.995 132.769C547.885 133.146 547.773 133.478 547.663 133.767L543.922 143.45ZM565.855 149.59H576.164V152.302H562.629V128.46H565.855V149.59ZM583.672 128.46H586.349C586.637 128.46 586.876 128.532 587.064 128.676C587.252 128.82 587.38 129.003 587.446 129.225L592.368 145.796C592.456 146.096 592.534 146.418 592.6 146.761C592.678 147.105 592.75 147.466 592.816 147.843C592.894 147.466 592.972 147.105 593.049 146.761C593.127 146.406 593.216 146.085 593.315 145.796L598.918 129.225C598.985 129.036 599.113 128.865 599.301 128.709C599.5 128.543 599.739 128.46 600.016 128.46H600.947C601.235 128.46 601.468 128.532 601.645 128.676C601.834 128.82 601.967 129.003 602.044 129.225L607.614 145.796C607.814 146.373 607.992 147.033 608.146 147.776C608.213 147.41 608.274 147.061 608.329 146.728C608.385 146.395 608.457 146.085 608.545 145.796L613.483 129.225C613.539 129.025 613.661 128.848 613.849 128.692C614.049 128.537 614.287 128.46 614.564 128.46H617.075L609.643 152.302H606.75L600.714 134.116C600.593 133.773 600.481 133.374 600.382 132.919C600.327 133.141 600.271 133.357 600.215 133.567C600.171 133.767 600.121 133.95 600.066 134.116L593.997 152.302H591.104L583.672 128.46ZM642.431 140.389C642.431 142.175 642.149 143.816 641.58 145.314C641.017 146.8 640.218 148.081 639.186 149.157C638.156 150.233 636.914 151.071 635.462 151.67C634.021 152.258 632.425 152.551 630.674 152.551C628.922 152.551 627.326 152.258 625.885 151.67C624.444 151.071 623.208 150.233 622.177 149.157C621.146 148.081 620.348 146.8 619.783 145.314C619.218 143.816 618.935 142.175 618.935 140.389C618.935 138.603 619.218 136.967 619.783 135.481C620.348 133.983 621.146 132.696 622.177 131.621C623.208 130.534 624.444 129.691 625.885 129.092C627.326 128.493 628.922 128.193 630.674 128.193C632.425 128.193 634.021 128.493 635.462 129.092C636.914 129.691 638.156 130.534 639.186 131.621C640.218 132.696 641.017 133.983 641.58 135.481C642.149 136.967 642.431 138.603 642.431 140.389ZM639.12 140.389C639.12 138.925 638.92 137.61 638.521 136.446C638.122 135.281 637.557 134.299 636.825 133.501C636.094 132.691 635.207 132.07 634.165 131.637C633.123 131.205 631.96 130.989 630.674 130.989C629.399 130.989 628.24 131.205 627.199 131.637C626.157 132.07 625.264 132.691 624.522 133.501C623.79 134.299 623.225 135.281 622.826 136.446C622.427 137.61 622.227 138.925 622.227 140.389C622.227 141.853 622.427 143.168 622.826 144.332C623.225 145.486 623.79 146.468 624.522 147.277C625.264 148.076 626.157 148.691 627.199 149.124C628.24 149.546 629.399 149.756 630.674 149.756C631.96 149.756 633.123 149.546 634.165 149.124C635.207 148.691 636.094 148.076 636.825 147.277C637.557 146.468 638.122 145.486 638.521 144.332C638.92 143.168 639.12 141.853 639.12 140.389ZM650.469 142.352V152.302H647.259V128.46H653.992C655.502 128.46 656.8 128.615 657.9 128.925C659 129.225 659.901 129.663 660.611 130.24C661.327 130.816 661.865 131.515 662.204 132.336C662.549 133.146 662.721 134.056 662.721 135.065C662.721 135.908 662.587 136.695 662.325 137.427C662.056 138.159 661.666 138.819 661.161 139.407C660.662 139.984 660.042 140.478 659.313 140.888C658.59 141.298 657.772 141.609 656.851 141.82C657.254 142.053 657.606 142.391 657.919 142.835L664.864 152.302H662.005C661.417 152.302 660.989 152.075 660.707 151.62L654.523 143.101C654.338 142.835 654.133 142.646 653.909 142.535C653.686 142.413 653.353 142.352 652.912 142.352H650.469ZM650.469 140.006H653.845C654.785 140.006 655.61 139.896 656.32 139.674C657.043 139.441 657.638 139.119 658.117 138.709C658.603 138.287 658.968 137.788 659.211 137.211C659.454 136.635 659.582 135.997 659.582 135.298C659.582 133.878 659.108 132.808 658.168 132.087C657.235 131.365 655.841 131.005 653.992 131.005H650.469V140.006ZM671.962 138.908H673.177C673.599 138.908 673.932 138.858 674.175 138.758C674.431 138.648 674.667 138.465 674.891 138.209L682.821 129.225C683.064 128.948 683.3 128.753 683.518 128.643C683.754 128.52 684.048 128.46 684.4 128.46H687.144L678.063 138.725C677.833 138.981 677.609 139.197 677.398 139.374C677.2 139.551 676.982 139.696 676.752 139.807C677.065 139.906 677.334 140.056 677.564 140.256C677.801 140.456 678.044 140.705 678.299 141.005L687.777 152.302H684.982C684.771 152.302 684.592 152.285 684.451 152.252C684.304 152.219 684.176 152.174 684.068 152.119C683.965 152.063 683.876 151.991 683.786 151.902C683.697 151.814 683.607 151.719 683.518 151.62L675.287 142.153C675.166 142.02 675.051 141.909 674.942 141.82C674.84 141.72 674.718 141.637 674.571 141.57C674.443 141.504 674.283 141.46 674.092 141.437C673.913 141.404 673.695 141.387 673.427 141.387H671.962V152.302H668.752V128.46H671.962V138.908ZM703.355 132.186C703.259 132.353 703.15 132.48 703.041 132.569C702.933 132.647 702.785 132.686 702.606 132.686C702.421 132.686 702.197 132.592 701.941 132.403C701.698 132.214 701.385 132.009 700.995 131.787C700.618 131.554 700.157 131.344 699.614 131.155C699.083 130.966 698.437 130.872 697.67 130.872C696.947 130.872 696.314 130.972 695.757 131.172C695.201 131.36 694.741 131.621 694.363 131.954C693.993 132.286 693.718 132.68 693.532 133.135C693.34 133.578 693.244 134.061 693.244 134.582C693.244 135.248 693.411 135.803 693.73 136.246C694.063 136.679 694.491 137.051 695.028 137.361C695.572 137.671 696.18 137.943 696.857 138.176C697.542 138.398 698.239 138.631 698.949 138.875C699.671 139.119 700.368 139.396 701.046 139.707C701.73 140.006 702.344 140.389 702.875 140.855C703.419 141.321 703.847 141.892 704.173 142.569C704.506 143.245 704.672 144.077 704.672 145.064C704.672 146.107 704.493 147.088 704.135 148.009C703.783 148.918 703.265 149.712 702.574 150.388C701.897 151.065 701.059 151.597 700.061 151.986C699.076 152.374 697.951 152.568 696.691 152.568C695.15 152.568 693.743 152.291 692.464 151.736C691.204 151.17 690.124 150.411 689.222 149.457L690.156 147.926C690.245 147.804 690.347 147.704 690.469 147.626C690.603 147.538 690.75 147.493 690.904 147.493C691.134 147.493 691.403 147.621 691.703 147.876C691.997 148.12 692.375 148.392 692.816 148.691C693.27 148.991 693.813 149.268 694.446 149.523C695.086 149.767 695.866 149.889 696.787 149.889C697.554 149.889 698.232 149.784 698.833 149.573C699.435 149.363 699.94 149.068 700.349 148.691C700.771 148.303 701.091 147.843 701.308 147.31C701.532 146.778 701.641 146.185 701.641 145.53C701.641 144.809 701.475 144.221 701.142 143.766C700.822 143.301 700.394 142.912 699.863 142.602C699.332 142.291 698.725 142.03 698.034 141.82C697.363 141.598 696.659 141.376 695.943 141.154C695.233 140.921 694.536 140.655 693.845 140.356C693.168 140.056 692.566 139.668 692.036 139.191C691.499 138.714 691.07 138.12 690.738 137.411C690.418 136.69 690.251 135.803 690.251 134.749C690.251 133.906 690.418 133.091 690.738 132.303C691.07 131.515 691.543 130.816 692.164 130.207C692.79 129.597 693.551 129.108 694.459 128.742C695.38 128.376 696.435 128.193 697.618 128.193C698.949 128.193 700.164 128.404 701.263 128.826C702.357 129.247 703.316 129.857 704.135 130.656L703.355 132.186ZM712.423 143.384V152.302H709.212V128.46H716.247C717.756 128.46 719.06 128.637 720.173 128.992C721.292 129.336 722.22 129.83 722.949 130.473C723.678 131.116 724.221 131.893 724.579 132.802C724.944 133.711 725.129 134.726 725.129 135.847C725.129 136.956 724.931 137.971 724.547 138.892C724.157 139.812 723.588 140.605 722.833 141.271C722.092 141.936 721.164 142.458 720.058 142.835C718.945 143.201 717.679 143.384 716.247 143.384H712.423ZM712.423 140.822H716.247C717.168 140.822 717.98 140.699 718.677 140.456C719.387 140.212 719.975 139.873 720.455 139.441C720.928 138.997 721.292 138.47 721.535 137.86C721.778 137.25 721.9 136.579 721.9 135.847C721.9 134.327 721.427 133.141 720.487 132.286C719.559 131.432 718.146 131.005 716.247 131.005H712.423V140.822ZM746.603 152.302H744.109C743.821 152.302 743.591 152.229 743.412 152.085C743.233 151.941 743.099 151.758 743.009 151.536L740.784 145.78H730.092L727.866 151.536C727.789 151.736 727.655 151.913 727.463 152.069C727.278 152.224 727.048 152.302 726.766 152.302H724.272L733.801 128.46H737.075L746.603 152.302ZM730.993 143.45H739.889L736.148 133.75C735.905 133.151 735.662 132.403 735.431 131.504C735.31 131.959 735.188 132.38 735.067 132.769C734.952 133.146 734.843 133.478 734.734 133.767L730.993 143.45ZM765.775 147.377C765.954 147.377 766.114 147.449 766.261 147.593L767.521 148.974C766.549 150.106 765.359 150.987 763.965 151.62C762.578 152.252 760.909 152.568 758.945 152.568C757.225 152.568 755.671 152.274 754.271 151.686C752.877 151.087 751.681 150.255 750.696 149.19C749.711 148.115 748.944 146.828 748.4 145.33C747.857 143.833 747.588 142.186 747.588 140.389C747.588 138.592 747.876 136.945 748.451 135.448C749.04 133.95 749.858 132.663 750.913 131.588C751.969 130.512 753.222 129.68 754.686 129.092C756.164 128.493 757.788 128.193 759.559 128.193C761.311 128.193 762.821 128.465 764.08 129.009C765.353 129.552 766.485 130.29 767.476 131.221L766.427 132.702C766.351 132.813 766.261 132.908 766.159 132.985C766.063 133.052 765.916 133.085 765.73 133.085C765.583 133.085 765.43 133.035 765.264 132.935C765.104 132.824 764.918 132.691 764.694 132.536C764.477 132.38 764.215 132.214 763.914 132.037C763.614 131.859 763.262 131.693 762.853 131.538C762.443 131.382 761.964 131.255 761.42 131.155C760.877 131.044 760.25 130.989 759.54 130.989C758.267 130.989 757.097 131.211 756.036 131.654C754.981 132.087 754.072 132.708 753.305 133.518C752.544 134.327 751.943 135.314 751.515 136.479C751.092 137.644 750.881 138.947 750.881 140.389C750.881 141.876 751.092 143.201 751.515 144.365C751.943 145.53 752.525 146.518 753.26 147.327C754.002 148.126 754.878 148.735 755.882 149.157C756.893 149.579 757.98 149.789 759.144 149.789C759.853 149.789 760.493 149.75 761.056 149.673C761.618 149.584 762.143 149.451 762.616 149.274C763.108 149.096 763.556 148.874 763.965 148.608C764.387 148.331 764.809 148.003 765.232 147.626C765.417 147.46 765.602 147.377 765.775 147.377ZM786.527 128.46V131.088H775.086V139.008H784.346V141.537H775.086V149.673H786.527V152.302H771.844V128.46H786.527Z" fill="#FFFFFF"/>
<path fill-rule="evenodd" clip-rule="evenodd" d="M128.538 131.185L70.9837 150.382L13.4297 131.185V150.513L70.9837 169.58L128.538 150.513V131.185ZM93.3652 155.181C94.6013 155.181 95.6034 154.178 95.6034 152.941C95.6034 151.704 94.6013 150.701 93.3652 150.701C92.129 150.701 91.127 151.704 91.127 152.941C91.127 154.178 92.129 155.181 93.3652 155.181ZM89.2088 154.861C89.2088 156.098 88.2068 157.101 86.9706 157.101C85.7345 157.101 84.7324 156.098 84.7324 154.861C84.7324 153.624 85.7345 152.621 86.9706 152.621C88.2068 152.621 89.2088 153.624 89.2088 154.861ZM79.9355 159.661C81.1716 159.661 82.1737 158.658 82.1737 157.421C82.1737 156.184 81.1716 155.182 79.9355 155.182C78.6993 155.182 77.6973 156.184 77.6973 157.421C77.6973 158.658 78.6993 159.661 79.9355 159.661ZM108.593 144.174C107.033 144.689 106.185 146.371 106.7 147.932C107.215 149.492 108.897 150.34 110.458 149.825L121.382 146.221C122.943 145.706 123.791 144.023 123.276 142.463C122.761 140.902 121.078 140.055 119.518 140.57L108.593 144.174Z" fill="#ECB44B"/>
<path fill-rule="evenodd" clip-rule="evenodd" d="M128.538 108.787L70.9837 127.985L13.4297 108.787V128.115L70.9837 147.182L128.538 128.115V108.787ZM93.3652 132.784C94.6013 132.784 95.6034 131.781 95.6034 130.544C95.6034 129.307 94.6013 128.305 93.3652 128.305C92.129 128.305 91.127 129.307 91.127 130.544C91.127 131.781 92.129 132.784 93.3652 132.784ZM89.2088 132.463C89.2088 133.7 88.2068 134.703 86.9706 134.703C85.7345 134.703 84.7324 133.7 84.7324 132.463C84.7324 131.226 85.7345 130.224 86.9706 130.224C88.2068 130.224 89.2088 131.226 89.2088 132.463ZM79.9355 137.264C81.1716 137.264 82.1737 136.261 82.1737 135.024C82.1737 133.787 81.1716 132.784 79.9355 132.784C78.6993 132.784 77.6973 133.787 77.6973 135.024C77.6973 136.261 78.6993 137.264 79.9355 137.264ZM108.826 121.537C107.265 122.051 106.417 123.734 106.932 125.294C107.447 126.855 109.13 127.703 110.69 127.188L121.615 123.583C123.175 123.068 124.023 121.386 123.508 119.825C122.993 118.265 121.311 117.417 119.75 117.932L108.826 121.537Z" fill="#57A0C7"/>
<path fill-rule="evenodd" clip-rule="evenodd" d="M128.538 86.3899L70.9837 105.588L13.4297 86.3899V105.718L70.9837 124.785L128.538 105.718V86.3899ZM93.3652 110.386C94.6013 110.386 95.6034 109.384 95.6034 108.147C95.6034 106.91 94.6013 105.907 93.3652 105.907C92.129 105.907 91.127 106.91 91.127 108.147C91.127 109.384 92.129 110.386 93.3652 110.386ZM89.2088 110.067C89.2088 111.304 88.2068 112.307 86.9706 112.307C85.7345 112.307 84.7324 111.304 84.7324 110.067C84.7324 108.83 85.7345 107.827 86.9706 107.827C88.2068 107.827 89.2088 108.83 89.2088 110.067ZM79.9355 114.866C81.1716 114.866 82.1737 113.863 82.1737 112.626C82.1737 111.389 81.1716 110.387 79.9355 110.387C78.6993 110.387 77.6973 111.389 77.6973 112.626C77.6973 113.863 78.6993 114.866 79.9355 114.866ZM108.826 99.5365C107.265 100.051 106.417 101.734 106.932 103.294C107.447 104.855 109.13 105.703 110.69 105.188L121.615 101.583C123.175 101.068 124.023 99.386 123.508 97.8255C122.993 96.265 121.311 95.4173 119.75 95.9321L108.826 99.5365Z" fill="#888B8C"/>
</svg>
