<svg width="16" height="16" viewBox="0 0 16 16" fill="none"
     xmlns="http://www.w3.org/2000/svg">
    <path d="M16 8C16 8.13543 15.9462 8.26531 15.8504 8.36108C15.7547 8.45684 15.6248 8.51064 15.4894 8.51064H8.51064V15.4894C8.51064 15.6248 8.45684 15.7547 8.36108 15.8504C8.26531 15.9462 8.13543 16 8 16C7.86457 16 7.73469 15.9462 7.63892 15.8504C7.54316 15.7547 7.48936 15.6248 7.48936 15.4894V8.51064H0.510638C0.375209 8.51064 0.245326 8.45684 0.149562 8.36108C0.0537992 8.26531 0 8.13543 0 8C0 7.86457 0.0537992 7.73469 0.149562 7.63892C0.245326 7.54316 0.375209 7.48936 0.510638 7.48936H7.48936V0.510638C7.48936 0.375209 7.54316 0.245326 7.63892 0.149562C7.73469 0.0537992 7.86457 0 8 0C8.13543 0 8.26531 0.0537992 8.36108 0.149562C8.45684 0.245326 8.51064 0.375209 8.51064 0.510638V7.48936H15.4894C15.6248 7.48936 15.7547 7.54316 15.8504 7.63892C15.9462 7.73469 16 7.86457 16 8Z"
          fill="currentColor"/>
</svg>
