<svg width="16" height="12" viewBox="0 0 16 12" fill="none"
     xmlns="http://www.w3.org/2000/svg">
    <path d="M15.8507 5.67322L9.72283 0.124109C9.62602 0.042426 9.49799 -0.00204194 9.3657 7.13907e-05C9.2334 0.00218568 9.10718 0.0507162 9.01362 0.135441C8.92006 0.220165 8.86646 0.334468 8.86413 0.454267C8.8618 0.574068 8.9109 0.690011 9.0011 0.777672L14.2566 5.53758L0.510653 5.53757C0.37522 5.53757 0.245333 5.58629 0.149567 5.67301C0.0538012 5.75974 5.35258e-07 5.87736 5.24537e-07 6C5.13815e-07 6.12264 0.0538012 6.24026 0.149567 6.32698C0.245333 6.41371 0.37522 6.46243 0.510653 6.46243L14.2566 6.46243L9.0011 11.2223C8.9109 11.31 8.8618 11.4259 8.86413 11.5457C8.86646 11.6655 8.92006 11.7798 9.01362 11.8646C9.10718 11.9493 9.2334 11.9978 9.36569 11.9999C9.49799 12.002 9.62602 11.9576 9.72283 11.8759L15.8507 6.32678C15.9463 6.24008 16 6.12254 16 6C16 5.87746 15.9463 5.75992 15.8507 5.67322Z"
          fill="currentColor"/>
</svg>
