<svg width="16" height="18" viewBox="0 0 16 18" fill="none"
     xmlns="http://www.w3.org/2000/svg">
    <path d="M14.8085 1.41176H12.5957V0.529412C12.5957 0.389003 12.5419 0.254345 12.4462 0.155061C12.3504 0.0557771 12.2205 0 12.0851 0C11.9497 0 11.8198 0.0557771 11.724 0.155061C11.6283 0.254345 11.5745 0.389003 11.5745 0.529412V1.41176H4.42553V0.529412C4.42553 0.389003 4.37173 0.254345 4.27597 0.155061C4.18021 0.0557771 4.05032 0 3.91489 0C3.77946 0 3.64958 0.0557771 3.55382 0.155061C3.45805 0.254345 3.40426 0.389003 3.40426 0.529412V1.41176H1.19149C0.875487 1.41176 0.572427 1.54191 0.348979 1.77357C0.125532 2.00524 0 2.31944 0 2.64706V16.7647C0 17.0923 0.125532 17.4065 0.348979 17.6382C0.572427 17.8699 0.875487 18 1.19149 18H14.8085C15.1245 18 15.4276 17.8699 15.651 17.6382C15.8745 17.4065 16 17.0923 16 16.7647V2.64706C16 2.31944 15.8745 2.00524 15.651 1.77357C15.4276 1.54191 15.1245 1.41176 14.8085 1.41176ZM1.19149 2.47059H3.40426V3.35294C3.40426 3.49335 3.45805 3.62801 3.55382 3.72729C3.64958 3.82658 3.77946 3.88235 3.91489 3.88235C4.05032 3.88235 4.18021 3.82658 4.27597 3.72729C4.37173 3.62801 4.42553 3.49335 4.42553 3.35294V2.47059H11.5745V3.35294C11.5745 3.49335 11.6283 3.62801 11.724 3.72729C11.8198 3.82658 11.9497 3.88235 12.0851 3.88235C12.2205 3.88235 12.3504 3.82658 12.4462 3.72729C12.5419 3.62801 12.5957 3.49335 12.5957 3.35294V2.47059H14.8085C14.8537 2.47059 14.8969 2.48918 14.9289 2.52228C14.9608 2.55537 14.9787 2.60026 14.9787 2.64706V5.64706H1.02128V2.64706C1.02128 2.60026 1.03921 2.55537 1.07113 2.52228C1.10305 2.48918 1.14635 2.47059 1.19149 2.47059ZM14.8085 16.9412H1.19149C1.14635 16.9412 1.10305 16.9226 1.07113 16.8895C1.03921 16.8564 1.02128 16.8115 1.02128 16.7647V6.70588H14.9787V16.7647C14.9787 16.8115 14.9608 16.8564 14.9289 16.8895C14.8969 16.9226 14.8537 16.9412 14.8085 16.9412Z"
          fill="currentColor"/>
</svg>
