<svg width="16" height="15" viewBox="0 0 16 15" fill="none"
     xmlns="http://www.w3.org/2000/svg">
    <path d="M14.902 0H1.09805C0.806836 0 0.527546 0.117686 0.321624 0.327168C0.115702 0.53665 1.59925e-05 0.820769 1.59925e-05 1.11702V13.883C-0.00111854 14.0959 0.0581332 14.3047 0.170671 14.4843C0.283209 14.6639 0.44426 14.8066 0.634525 14.8955C0.779782 14.964 0.937931 14.9997 1.09805 15C1.35673 15.0001 1.60699 14.9065 1.80394 14.7359L1.81099 14.7295L4.33178 12.4819C4.36 12.4589 4.39519 12.4465 4.43138 12.4468H14.902C15.1932 12.4468 15.4725 12.3291 15.6784 12.1196C15.8843 11.9102 16 11.626 16 11.3298V1.11702C16 0.820769 15.8843 0.53665 15.6784 0.327168C15.4725 0.117686 15.1932 0 14.902 0ZM15.0588 11.3298C15.0588 11.3721 15.0423 11.4127 15.0129 11.4426C14.9835 11.4725 14.9436 11.4894 14.902 11.4894H4.43138C4.17306 11.4897 3.92312 11.5826 3.7255 11.7519L3.71844 11.7582L1.19609 14.0058C1.17313 14.0246 1.14547 14.0363 1.11625 14.0398C1.08704 14.0433 1.05746 14.0383 1.03088 14.0255C1.0043 14.0127 0.981793 13.9925 0.965935 13.9673C0.950077 13.9421 0.941503 13.9129 0.941192 13.883V1.11702C0.941192 1.0747 0.957718 1.03411 0.987135 1.00418C1.01655 0.974259 1.05645 0.957447 1.09805 0.957447H14.902C14.9436 0.957447 14.9835 0.974259 15.0129 1.00418C15.0423 1.03411 15.0588 1.0747 15.0588 1.11702V11.3298Z"
          fill="currentColor"/>
</svg>
