<svg width="11" height="11" viewBox="0 0 11 11" fill="none"
     xmlns="http://www.w3.org/2000/svg">
    <rect x="0.25" y="0.25" width="10.5" height="10.5" stroke="black"
          stroke-opacity="0.4" stroke-width="0.5"/>
    <rect width="11" height="11" fill="#1CABE2"/>
    <path d="M8.37391 3.72838C8.37391 3.63535 8.33699 3.54612 8.27124 3.48029C8.20542 3.41455 8.11619 3.37762 8.02316 3.37762C7.93013 3.37762 7.8409 3.41455 7.77507 3.48029L4.74656 6.50822L3.59039 5.35263C3.52384 5.29062 3.43582 5.25686 3.34487 5.25847C3.25392 5.26007 3.16715 5.29692 3.10282 5.36124C3.0385 5.42556 3.00166 5.51234 3.00005 5.60328C2.99845 5.69423 3.03221 5.78226 3.09422 5.84881L4.49848 7.25306C4.5643 7.3188 4.65353 7.35573 4.74656 7.35573C4.83959 7.35573 4.92882 7.3188 4.99465 7.25306L8.27124 3.97646C8.33699 3.91064 8.37391 3.82141 8.37391 3.72838Z"
          fill="white"/>
</svg>
