<svg width="16" height="16" viewBox="0 0 16 16" fill="none"
     xmlns="http://www.w3.org/2000/svg">
    <path d="M15.8041 14.9344C15.8646 14.9907 15.9131 15.0587 15.9467 15.1342C15.9804 15.2096 15.9984 15.2911 15.9999 15.3738C16.0014 15.4564 15.9862 15.5385 15.9552 15.6151C15.9243 15.6917 15.8782 15.7613 15.8198 15.8198C15.7613 15.8782 15.6917 15.9243 15.6151 15.9552C15.5385 15.9862 15.4564 16.0014 15.3738 15.9999C15.2911 15.9984 15.2096 15.9804 15.1342 15.9467C15.0587 15.9131 14.9907 15.8646 14.9344 15.8041L7.98465 8.85542L1.03491 15.8041C0.91825 15.9128 0.763955 15.972 0.604529 15.9692C0.445102 15.9664 0.292991 15.9018 0.180242 15.7891C0.0674928 15.6763 0.00290877 15.5242 9.58748e-05 15.3648C-0.00271702 15.2053 0.0564608 15.0511 0.165162 14.9344L7.11388 7.98465L0.165162 1.03491C0.0564608 0.91825 -0.00271702 0.763955 9.58748e-05 0.604529C0.00290877 0.445102 0.0674928 0.292991 0.180242 0.180242C0.292991 0.0674928 0.445102 0.00290877 0.604529 9.58748e-05C0.763955 -0.00271702 0.91825 0.0564608 1.03491 0.165162L7.98465 7.11388L14.9344 0.165162C15.0511 0.0564608 15.2053 -0.00271702 15.3648 9.58748e-05C15.5242 0.00290877 15.6763 0.0674928 15.7891 0.180242C15.9018 0.292991 15.9664 0.445102 15.9692 0.604529C15.972 0.763955 15.9128 0.91825 15.8041 1.03491L8.85542 7.98465L15.8041 14.9344Z"
          fill="currentColor"/>
</svg>
