<svg width="10" height="11" viewBox="0 0 10 11" fill="none"
     xmlns="http://www.w3.org/2000/svg">
    <path d="M6.79133 6.19265C7.113 5.95587 7.34937 5.62821 7.46722 5.25571C7.58507 4.88321 7.57847 4.4846 7.44837 4.11588C7.31826 3.74717 7.07118 3.42689 6.74184 3.20005C6.4125 2.97321 6.01747 2.85122 5.61225 2.85122C5.20702 2.85122 4.81199 2.97321 4.48265 3.20005C4.15332 3.42689 3.90623 3.74717 3.77612 4.11588C3.64602 4.4846 3.63942 4.88321 3.75727 5.25571C3.87512 5.62821 4.11149 5.95587 4.43316 6.19265C3.8296 6.40922 3.30371 6.78821 2.91837 7.28431C2.86965 7.34672 2.84874 7.42516 2.86022 7.50238C2.8717 7.5796 2.91464 7.64928 2.97959 7.69608C3.04454 7.74288 3.12618 7.76298 3.20656 7.75195C3.28693 7.74091 3.35945 7.69966 3.40816 7.63726C3.66479 7.3085 3.99757 7.04167 4.38013 6.85789C4.76269 6.67411 5.18453 6.57843 5.61225 6.57843C6.03996 6.57843 6.4618 6.67411 6.84436 6.85789C7.22693 7.04167 7.5597 7.3085 7.81633 7.63726C7.86504 7.69966 7.93756 7.74091 8.01793 7.75195C8.09831 7.76298 8.17995 7.74288 8.2449 7.69608C8.30985 7.64928 8.35279 7.5796 8.36427 7.50238C8.37575 7.42516 8.35484 7.34672 8.30612 7.28431C7.92078 6.78821 7.39489 6.40922 6.79133 6.19265ZM4.28571 4.71569C4.28571 4.46361 4.36351 4.2172 4.50927 4.00761C4.65504 3.79801 4.86221 3.63466 5.1046 3.53819C5.347 3.44173 5.61372 3.41649 5.87104 3.46567C6.12836 3.51484 6.36473 3.63623 6.55024 3.81447C6.73576 3.99272 6.8621 4.21981 6.91329 4.46704C6.96447 4.71427 6.9382 4.97053 6.8378 5.20342C6.7374 5.43631 6.56737 5.63536 6.34923 5.7754C6.13108 5.91545 5.87461 5.9902 5.61225 5.9902C5.26043 5.9902 4.92302 5.85592 4.67425 5.6169C4.42547 5.37788 4.28571 5.05371 4.28571 4.71569ZM9.28571 0.5H1.93878C1.74934 0.5 1.56765 0.572304 1.4337 0.701005C1.29974 0.829707 1.22449 1.00426 1.22449 1.18627V2.46078H0.306122C0.224934 2.46078 0.14707 2.49177 0.0896612 2.54693C0.0322521 2.60209 0 2.6769 0 2.7549C0 2.83291 0.0322521 2.90772 0.0896612 2.96287C0.14707 3.01803 0.224934 3.04902 0.306122 3.04902H1.22449V5.20588H0.306122C0.224934 5.20588 0.14707 5.23687 0.0896612 5.29203C0.0322521 5.34719 0 5.422 0 5.5C0 5.578 0.0322521 5.65282 0.0896612 5.70797C0.14707 5.76313 0.224934 5.79412 0.306122 5.79412H1.22449V7.95098H0.306122C0.224934 7.95098 0.14707 7.98197 0.0896612 8.03713C0.0322521 8.09228 0 8.16709 0 8.2451C0 8.3231 0.0322521 8.39791 0.0896612 8.45307C0.14707 8.50823 0.224934 8.53922 0.306122 8.53922H1.22449V9.81373C1.22449 9.99574 1.29974 10.1703 1.4337 10.299C1.56765 10.4277 1.74934 10.5 1.93878 10.5H9.28571C9.47515 10.5 9.65684 10.4277 9.79079 10.299C9.92475 10.1703 10 9.99574 10 9.81373V1.18627C10 1.00426 9.92475 0.829707 9.79079 0.701005C9.65684 0.572304 9.47515 0.5 9.28571 0.5ZM9.38776 9.81373C9.38776 9.83973 9.377 9.86466 9.35787 9.88305C9.33873 9.90144 9.31278 9.91177 9.28571 9.91177H1.93878C1.91171 9.91177 1.88576 9.90144 1.86662 9.88305C1.84749 9.86466 1.83673 9.83973 1.83673 9.81373V1.18627C1.83673 1.16027 1.84749 1.13534 1.86662 1.11695C1.88576 1.09856 1.91171 1.08824 1.93878 1.08824H9.28571C9.31278 1.08824 9.33873 1.09856 9.35787 1.11695C9.377 1.13534 9.38776 1.16027 9.38776 1.18627V9.81373Z"
          fill="currentColor"/>
</svg>