<svg width="10" height="11" viewBox="0 0 10 11" fill="none"
     xmlns="http://www.w3.org/2000/svg">
    <path
            d="M6.8 4.73077C6.8 4.95898 6.72962 5.18206 6.59776 5.37181C6.46591 5.56156 6.27849 5.70945 6.05922 5.79678C5.83995 5.88412 5.59867 5.90697 5.36589 5.86244C5.13311 5.81792 4.91929 5.70803 4.75147 5.54666C4.58365 5.38529 4.46936 5.1797 4.42306 4.95587C4.37676 4.73205 4.40052 4.50005 4.49134 4.28921C4.58217 4.07837 4.73598 3.89817 4.93332 3.77138C5.13065 3.6446 5.36266 3.57692 5.6 3.57692C5.91826 3.57692 6.22348 3.69849 6.44853 3.91488C6.67357 4.13126 6.8 4.42475 6.8 4.73077ZM10 1.26923V9.73077C10 9.93478 9.91571 10.1304 9.76569 10.2747C9.61566 10.419 9.41217 10.5 9.2 10.5H2C1.78783 10.5 1.58434 10.419 1.43431 10.2747C1.28429 10.1304 1.2 9.93478 1.2 9.73077V8.57692H0.4C0.293913 8.57692 0.192172 8.5364 0.117157 8.46427C0.0421427 8.39214 0 8.29431 0 8.19231C0 8.0903 0.0421427 7.99247 0.117157 7.92034C0.192172 7.84821 0.293913 7.80769 0.4 7.80769H1.2V5.88462H0.4C0.293913 5.88462 0.192172 5.84409 0.117157 5.77196C0.0421427 5.69984 0 5.60201 0 5.5C0 5.39799 0.0421427 5.30017 0.117157 5.22804C0.192172 5.15591 0.293913 5.11538 0.4 5.11538H1.2V3.19231H0.4C0.293913 3.19231 0.192172 3.15179 0.117157 3.07966C0.0421427 3.00753 0 2.9097 0 2.80769C0 2.70569 0.0421427 2.60786 0.117157 2.53573C0.192172 2.4636 0.293913 2.42308 0.4 2.42308H1.2V1.26923C1.2 1.06522 1.28429 0.869561 1.43431 0.725302C1.58434 0.581044 1.78783 0.5 2 0.5H9.2C9.41217 0.5 9.61566 0.581044 9.76569 0.725302C9.91571 0.869561 10 1.06522 10 1.26923ZM8.32 7.19231C7.96581 6.7357 7.49349 6.37619 6.95 6.14952C7.24784 5.88805 7.45652 5.5461 7.54863 5.16856C7.64075 4.79101 7.61201 4.39551 7.46617 4.03395C7.32034 3.6724 7.06423 3.36168 6.73146 3.14258C6.39869 2.92349 6.00481 2.80624 5.6015 2.80624C5.19819 2.80624 4.80431 2.92349 4.47154 3.14258C4.13877 3.36168 3.88266 3.6724 3.73683 4.03395C3.59099 4.39551 3.56225 4.79101 3.65437 5.16856C3.74648 5.5461 3.95516 5.88805 4.253 6.14952C3.70842 6.37576 3.23502 6.73531 2.88 7.19231C2.84848 7.23271 2.82555 7.27869 2.81251 7.32762C2.79948 7.37655 2.79659 7.42747 2.80402 7.47747C2.81145 7.52747 2.82905 7.57557 2.85581 7.61904C2.88257 7.6625 2.91798 7.70046 2.96 7.73077C3.00202 7.76107 3.04984 7.78312 3.10073 7.79566C3.15161 7.80819 3.20457 7.81097 3.25657 7.80383C3.30857 7.79668 3.3586 7.77976 3.4038 7.75403C3.449 7.72829 3.48848 7.69425 3.52 7.65385C3.76218 7.34336 4.07622 7.09135 4.43724 6.91778C4.79827 6.74421 5.19636 6.65385 5.6 6.65385C6.00364 6.65385 6.40173 6.74421 6.76276 6.91778C7.12378 7.09135 7.43782 7.34336 7.68 7.65385C7.74365 7.73545 7.83841 7.7894 7.94343 7.80383C8.04845 7.81825 8.15513 7.79197 8.24 7.73077C8.32487 7.66957 8.38098 7.57845 8.39598 7.47747C8.41098 7.37649 8.38365 7.27391 8.32 7.19231Z"
            fill="currentColor"/>
</svg>