<svg width="16" height="16" viewBox="0 0 16 16" fill="none"
     xmlns="http://www.w3.org/2000/svg">
    <path d="M12.766 2.7234H0.510638C0.375209 2.7234 0.245326 2.7772 0.149562 2.87297C0.0537992 2.96873 0 3.09861 0 3.23404V15.4894C0 15.6248 0.0537992 15.7547 0.149562 15.8504C0.245326 15.9462 0.375209 16 0.510638 16H12.766C12.9014 16 13.0313 15.9462 13.127 15.8504C13.2228 15.7547 13.2766 15.6248 13.2766 15.4894V3.23404C13.2766 3.09861 13.2228 2.96873 13.127 2.87297C13.0313 2.7772 12.9014 2.7234 12.766 2.7234ZM12.2553 14.9787H1.02128V3.74468H12.2553V14.9787ZM16 0.510638V12.766C16 12.9014 15.9462 13.0313 15.8504 13.127C15.7547 13.2228 15.6248 13.2766 15.4894 13.2766C15.3539 13.2766 15.224 13.2228 15.1283 13.127C15.0325 13.0313 14.9787 12.9014 14.9787 12.766V1.02128H3.23404C3.09861 1.02128 2.96873 0.967477 2.87297 0.871714C2.7772 0.775951 2.7234 0.646068 2.7234 0.510638C2.7234 0.375209 2.7772 0.245326 2.87297 0.149562C2.96873 0.0537992 3.09861 0 3.23404 0H15.4894C15.6248 0 15.7547 0.0537992 15.8504 0.149562C15.9462 0.245326 16 0.375209 16 0.510638Z"
          fill="currentColor"/>
</svg>
