<svg width="10" height="9" viewBox="0 0 10 9" fill="none"
     xmlns="http://www.w3.org/2000/svg">
    <path
            d="M6.2963 3V2.25H5.92593C5.72947 2.25 5.54106 2.32902 5.40214 2.46967C5.26323 2.61032 5.18518 2.80109 5.18518 3V6C5.18518 6.19891 5.26323 6.38968 5.40214 6.53033C5.54106 6.67098 5.72947 6.75 5.92593 6.75H6.2963V6C6.2963 5.80109 6.37434 5.61032 6.51325 5.46967C6.65217 5.32902 6.84058 5.25 7.03704 5.25H9.25926C9.45572 5.25 9.64413 5.32902 9.78304 5.46967C9.92196 5.61032 10 5.80109 10 6V8.25C10 8.44891 9.92196 8.63968 9.78304 8.78033C9.64413 8.92098 9.45572 9 9.25926 9H7.03704C6.84058 9 6.65217 8.92098 6.51325 8.78033C6.37434 8.63968 6.2963 8.44891 6.2963 8.25V7.5H5.92593C5.53301 7.5 5.15619 7.34196 4.87836 7.06066C4.60053 6.77936 4.44444 6.39782 4.44444 6V4.875H2.96296V5.25C2.96296 5.44891 2.88492 5.63968 2.746 5.78033C2.60709 5.92098 2.41868 6 2.22222 6H0.740741C0.544284 6 0.355874 5.92098 0.216958 5.78033C0.0780421 5.63968 0 5.44891 0 5.25V3.75C0 3.55109 0.0780421 3.36032 0.216958 3.21967C0.355874 3.07902 0.544284 3 0.740741 3H2.22222C2.41868 3 2.60709 3.07902 2.746 3.21967C2.88492 3.36032 2.96296 3.55109 2.96296 3.75V4.125H4.44444V3C4.44444 2.60218 4.60053 2.22064 4.87836 1.93934C5.15619 1.65804 5.53301 1.5 5.92593 1.5H6.2963V0.75C6.2963 0.551088 6.37434 0.360322 6.51325 0.21967C6.65217 0.0790176 6.84058 0 7.03704 0H9.25926C9.45572 0 9.64413 0.0790176 9.78304 0.21967C9.92196 0.360322 10 0.551088 10 0.75V3C10 3.19891 9.92196 3.38968 9.78304 3.53033C9.64413 3.67098 9.45572 3.75 9.25926 3.75H7.03704C6.84058 3.75 6.65217 3.67098 6.51325 3.53033C6.37434 3.38968 6.2963 3.19891 6.2963 3Z"
            fill="currentColor"/>
</svg>