<svg width="15" height="17" viewBox="0 0 15 17" fill="none"
     xmlns="http://www.w3.org/2000/svg">
    <path d="M7.27398 0.927669C5.58513 0.927669 4.04899 1.15911 2.91904 1.53612C2.28944 1.7464 1.77402 2.00962 1.41106 2.32298C1.04811 2.63633 0.834553 3.00811 0.834534 3.41406V3.52486C0.834716 7.00204 0.844158 10.4794 0.844158 13.9587V14.2103C0.844158 14.6629 1.23384 15.0343 1.67233 15.3239C2.11081 15.6135 2.6147 15.8255 2.9174 15.9268H2.91934C4.0493 16.3039 5.58542 16.5333 7.27427 16.5333C7.63351 16.5333 7.98092 16.518 8.32404 16.4978C8.02173 16.2108 7.76466 15.8796 7.5616 15.5156C7.46438 15.5156 7.37276 15.5252 7.27427 15.5252C5.68546 15.5252 4.25443 15.3112 3.23671 14.9711C2.82004 14.8323 2.48006 14.6798 2.2414 14.526C2.00493 14.3737 1.87957 14.2215 1.85267 14.1036V11.9345C2.15914 12.1204 2.49919 12.2977 2.91934 12.4378C4.00157 12.799 5.4611 13.0185 7.06582 13.037C7.1055 12.6937 7.18815 12.3567 7.31183 12.034C7.29895 12.034 7.2871 12.034 7.27421 12.034C5.68541 12.034 4.25438 11.82 3.23665 11.48C2.81998 11.3412 2.48 11.1887 2.24134 11.035C2.00487 10.8827 1.87951 10.7303 1.85261 10.6124V8.44529C2.15908 8.63124 2.49913 8.80848 2.91928 8.94857C4.04923 9.32558 5.58536 9.55515 7.27421 9.55515C8.96307 9.55515 10.5011 9.32558 11.631 8.94857C12.0569 8.80617 12.4017 8.62796 12.7108 8.43777V9.68285C13.0729 9.82882 13.4125 10.0255 13.7193 10.2669V3.35044C13.7193 3.29756 13.7077 3.24505 13.6911 3.19457C13.553 2.47777 12.7746 1.9161 11.631 1.53448C10.5011 1.15747 8.96307 0.926025 7.27421 0.926025L7.27398 0.927669ZM7.27398 1.938C8.86274 1.938 10.2937 2.15118 11.3115 2.49011C11.7597 2.63953 12.1195 2.80399 12.3594 2.96899C12.5994 3.13388 12.7069 3.29195 12.7069 3.41406C12.7069 3.53598 12.5996 3.69413 12.3594 3.85913C12.1193 4.02412 11.7591 4.18858 11.3115 4.338C10.2937 4.67684 8.86273 4.89012 7.27398 4.89012C5.68517 4.89012 4.25414 4.67809 3.23642 4.338C2.74775 4.17484 2.38859 4.0052 2.16036 3.84223C1.93213 3.67925 1.84624 3.53482 1.84862 3.4103C1.85054 3.28569 1.94497 3.13596 2.17538 2.97462C2.4058 2.81328 2.76109 2.64895 3.23642 2.49011C4.2543 2.15118 5.68523 1.938 7.27398 1.938ZM12.7106 4.7812V6.9596H12.7068V7.0704C12.7068 7.19232 12.5995 7.35048 12.3593 7.51547C12.1192 7.68047 11.7591 7.84493 11.3115 7.99435C10.2936 8.33328 8.86267 8.54646 7.27392 8.54646C5.68511 8.54646 4.25403 8.33443 3.2363 7.99435C2.81962 7.8555 2.4797 7.70292 2.24105 7.54927C2.00458 7.39688 1.87922 7.24472 1.85232 7.12674V4.79059C2.15877 4.97654 2.49883 5.1519 2.91893 5.29199C4.04889 5.6691 5.58507 5.90045 7.27392 5.90045C8.96277 5.90045 10.5008 5.6691 11.6307 5.29199C12.0569 5.1496 12.4014 4.97148 12.7106 4.7812Z"
          fill="currentColor"/>
    <path d="M10.7868 14.7342L9.82676 13.7129H12.5086C12.5611 13.7129 12.6095 13.6917 12.6457 13.6523C12.6821 13.6129 12.7023 13.561 12.7023 13.5065C12.7023 13.4517 12.6822 13.3993 12.6457 13.361C12.6094 13.3225 12.5611 13.3004 12.5086 13.3004H9.82676L10.7868 12.2791C10.8191 12.2406 10.8393 12.1878 10.8393 12.1347C10.8355 12.0809 10.8152 12.0301 10.7829 11.9927C10.7465 11.9552 10.6982 11.9341 10.6498 11.9321C10.5973 11.9321 10.5489 11.9514 10.5126 11.9869L9.22582 13.3601C9.18948 13.3995 9.16925 13.4514 9.16925 13.5056C9.16925 13.5604 9.18938 13.6129 9.22582 13.6513L10.5126 15.0243C10.549 15.0608 10.5973 15.081 10.6498 15.0791C10.6982 15.0791 10.7465 15.056 10.7829 15.0185C10.8151 14.981 10.8354 14.9301 10.8393 14.8766C10.8393 14.8228 10.8192 14.772 10.7868 14.7323V14.7342Z"
          fill="currentColor"/>
    <path d="M10.6505 11.7783C10.5604 11.7783 10.4698 11.8139 10.4045 11.8779H10.4026L9.11242 13.2524C9.04973 13.3207 9.01477 13.4098 9.01477 13.5023C9.01477 13.5946 9.04901 13.6851 9.1143 13.7538L10.4026 15.1266H10.4045C10.468 15.1901 10.5587 15.2282 10.6524 15.2261C10.7485 15.2253 10.8316 15.1819 10.8928 15.1191H10.8966H10.9005C10.9072 15.1095 10.9053 15.099 10.9117 15.0913L10.9417 15.0163C10.9603 14.974 10.9889 14.9355 10.9924 14.8886V14.8789V14.8693C10.9924 14.8155 10.9622 14.7731 10.9417 14.7266C10.9275 14.6949 10.9276 14.6555 10.906 14.6289L10.6337 14.3417L10.183 13.861H12.5762C12.6701 13.861 12.7621 13.8196 12.826 13.7501C12.8887 13.6818 12.9236 13.5928 12.9236 13.5004C12.9236 13.4081 12.8895 13.3174 12.8241 13.2487C12.7613 13.1823 12.6719 13.1417 12.5762 13.1417H10.183L10.9023 12.3754H10.9042C10.9608 12.3081 10.9925 12.2254 10.9925 12.1333V12.1237V12.114C10.9867 12.0285 10.9551 11.9484 10.8985 11.8829H10.8966H10.8928C10.8291 11.8175 10.7452 11.7796 10.6561 11.776H10.6523L10.6505 11.7783ZM10.6466 12.0882C10.6524 12.0891 10.6605 12.0882 10.6674 12.0978C10.6741 12.1074 10.6816 12.1229 10.6843 12.1411C10.6823 12.1546 10.6765 12.1719 10.6692 12.1806L9.47117 13.4538H12.5761C12.5857 13.4538 12.5906 13.4537 12.6005 13.4672C12.6082 13.4768 12.6155 13.4893 12.6155 13.5066C12.6155 13.523 12.6088 13.5374 12.5986 13.548C12.5899 13.5576 12.5873 13.5596 12.5761 13.5596H9.47117L10.6674 14.8308C10.677 14.8433 10.6831 14.8568 10.6843 14.8703C10.6814 14.8885 10.6742 14.9039 10.6674 14.9136C10.6597 14.9232 10.6505 14.9251 10.6505 14.9251H10.6466H10.6447C10.636 14.9255 10.6309 14.9251 10.624 14.9154H10.6221L9.3376 13.5445C9.32991 13.5349 9.32258 13.5224 9.32258 13.5051C9.32258 13.4888 9.32934 13.4744 9.33954 13.4638H9.3376L10.6202 12.0967C10.626 12.087 10.6351 12.087 10.6465 12.087L10.6466 12.0882Z"
          fill="currentColor"/>
    <path d="M11.1631 10.0863C9.27923 10.0863 7.7453 11.6221 7.7453 13.506C7.7453 15.3899 9.27923 16.9258 11.1631 16.9258C13.0471 16.9258 14.5829 15.3899 14.5829 13.506C14.5829 11.6221 13.0471 10.0863 11.1631 10.0863ZM11.1631 10.875C12.621 10.875 13.796 12.0482 13.796 13.506C13.796 14.9638 12.621 16.137 11.1631 16.137C9.70533 16.137 8.53216 14.9638 8.53216 13.506C8.53216 12.0482 9.70533 10.875 11.1631 10.875Z"
          fill="currentColor"/>
</svg>
