<svg width="14" height="17" viewBox="0 0 14 17" fill="none"
     xmlns="http://www.w3.org/2000/svg">
    <path d="M7.35107 0.927734C5.61954 0.927734 4.04461 1.16501 2.88611 1.55151C2.2406 1.76711 1.71215 2.03698 1.34003 2.35828C0.967907 2.67958 0.748921 3.06085 0.748901 3.47705V3.59045C0.749091 7.15555 0.758911 10.7208 0.758911 14.288V14.546C0.758911 15.01 1.15847 15.3907 1.60803 15.6877C2.05759 15.9846 2.57417 16.202 2.88452 16.3058H2.88654C4.04505 16.6924 5.61997 16.9277 7.3515 16.9277C9.08302 16.9277 10.6599 16.6924 11.8184 16.3058C12.1228 16.2041 12.6427 15.9815 13.0969 15.6819C13.3239 15.5322 13.5338 15.3638 13.6918 15.1757C13.8498 14.9876 13.9595 14.775 13.9595 14.546V3.41345C13.9595 3.35945 13.9475 3.30524 13.9305 3.25354C13.7889 2.51864 12.9909 1.94281 11.8184 1.55151C10.6599 1.16501 9.08259 0.927734 7.35107 0.927734ZM7.47235 1.63635C8.48204 1.63635 9.18824 1.70032 9.9234 1.81152C9.8763 1.80152 9.82959 1.79948 9.78284 1.79248C9.60419 1.76748 9.40902 1.72244 9.22833 1.70544C8.71644 1.65744 8.17237 1.63855 7.47235 1.63855C6.89508 1.63785 6.34974 1.65749 5.83582 1.69849C5.32189 1.73949 4.84064 1.79975 4.39178 1.88135C3.94292 1.96335 3.52616 2.06532 3.1441 2.18762C2.76203 2.30972 2.41406 2.45239 2.10052 2.61499C1.8968 2.72059 1.73943 2.82154 1.62689 2.92114C1.73943 2.82114 1.8968 2.71874 2.10052 2.61304C3.35469 1.96254 5.16326 1.63335 7.47235 1.63635ZM10.0081 1.82495C10.2664 1.86595 10.5085 1.88804 10.7994 1.94824C11.9433 2.18424 12.9496 2.60048 13.3179 2.97058C13.2651 2.91758 13.1988 2.86469 13.1215 2.81079C12.9668 2.70279 12.7657 2.59416 12.5304 2.48926C12.0598 2.27956 11.4523 2.08467 10.7994 1.95007C10.5226 1.89307 10.2932 1.87204 10.0466 1.83264C10.0344 1.83264 10.0203 1.82275 10.0081 1.82275V1.82495ZM13.4835 3.35181C13.4835 3.37281 13.4774 3.40879 13.468 3.43079C13.465 3.41879 13.463 3.40375 13.458 3.39075C13.4578 3.39015 13.4582 3.39075 13.458 3.39075C13.463 3.38075 13.4801 3.36376 13.483 3.35376L13.4835 3.35181ZM1.42474 3.36182C1.42574 3.37182 1.43074 3.37378 1.43274 3.37878C1.4326 3.37878 1.4329 3.37928 1.43274 3.37878C1.43074 3.38878 1.42674 3.39183 1.42474 3.39783C1.42274 3.38483 1.4255 3.37274 1.42474 3.35974V3.36182ZM12.9251 4.87903V7.11255H12.9211V7.22607C12.9211 7.35107 12.8111 7.51317 12.5649 7.68237C12.3186 7.85157 11.9494 8.02014 11.4905 8.17334C10.4469 8.52084 8.97984 8.7395 7.35095 8.7395C5.722 8.7395 4.25481 8.52204 3.21136 8.17334C2.78416 8.03104 2.4356 7.87454 2.19092 7.71704C1.94847 7.56074 1.81994 7.40481 1.79236 7.28381V4.88855C2.10655 5.07925 2.45528 5.25911 2.88599 5.40271C4.0445 5.78941 5.61942 6.02661 7.35095 6.02661C9.08247 6.02661 10.6593 5.78941 11.8178 5.40271C12.2547 5.25671 12.6081 5.07413 12.9251 4.87903ZM12.9251 8.62964V10.6879H12.9211V10.8016C12.9211 10.9266 12.8111 11.0887 12.5649 11.2578C12.3186 11.4271 11.9494 11.5956 11.4905 11.7488C10.4469 12.0962 8.97984 12.3168 7.35095 12.3168C5.722 12.3168 4.25481 12.0974 3.21136 11.7488C2.78417 11.6065 2.4356 11.4501 2.19092 11.2925C1.94847 11.1363 1.81994 10.9802 1.79236 10.8593V8.63733C2.10657 8.82803 2.45523 9.00984 2.88599 9.15344C4.04449 9.53994 5.61942 9.77515 7.35095 9.77515C9.08247 9.77515 10.6593 9.53994 11.8178 9.15344C12.2544 9.00744 12.6082 8.82464 12.9251 8.62964ZM12.9211 12.2051V14.1267C12.9211 14.2565 12.9281 14.3473 12.9151 14.4193C12.9024 14.4913 12.8751 14.5521 12.7899 14.6447C12.5845 14.8671 12.1244 15.1148 11.4903 15.3262C10.4467 15.6737 8.97961 15.8942 7.35071 15.8942C5.72176 15.8942 4.25456 15.6749 3.21112 15.3262C2.78393 15.1838 2.43535 15.0275 2.19067 14.8699C1.94822 14.7137 1.81969 14.5575 1.79211 14.4366V12.2128C2.10632 12.4035 2.45498 12.5852 2.88574 12.7288C4.04425 13.1154 5.61918 13.3507 7.35071 13.3507C9.08223 13.3507 10.6591 13.1154 11.8176 12.7288C12.2542 12.5829 12.6049 12.3998 12.9211 12.2051Z"
          fill="currentColor"/>
</svg>
