<svg width="14" height="17" viewBox="0 0 14 17" fill="none"
     xmlns="http://www.w3.org/2000/svg">
    <path d="M6.72034 0.927734C4.98882 0.927734 3.41387 1.16501 2.25537 1.55151C1.60985 1.76711 1.08142 2.03698 0.70929 2.35828C0.33717 2.67958 0.118174 3.06085 0.118164 3.47705V3.59045C0.118354 7.15555 0.128174 10.7208 0.128174 14.288V14.546C0.128174 15.01 0.527674 15.3907 0.977234 15.6877C1.42679 15.9846 1.94343 16.202 2.25378 16.3058H2.2558C3.41431 16.6924 4.98923 16.9277 6.72076 16.9277C8.45228 16.9277 10.0292 16.6924 11.1877 16.3058C11.492 16.2041 12.012 15.9815 12.4661 15.6819C12.6932 15.5322 12.9031 15.3638 13.0611 15.1757C13.2191 14.9876 13.3287 14.775 13.3287 14.546V3.41345C13.3287 3.35945 13.3168 3.30524 13.2998 3.25354C13.1582 2.51864 12.3601 1.94281 11.1876 1.55151C10.0291 1.16501 8.45186 0.927734 6.72034 0.927734ZM6.72034 1.96362C8.34925 1.96362 9.81632 2.18204 10.8599 2.52954C11.3194 2.68274 11.6882 2.85153 11.9343 3.02063C12.1803 3.18973 12.2905 3.35185 12.2905 3.47705C12.2905 3.60205 12.1805 3.76415 11.9343 3.93335C11.688 4.10255 11.3188 4.27099 10.8599 4.42419C9.81631 4.77159 8.34924 4.99036 6.72034 4.99036C5.09139 4.99036 3.62419 4.77289 2.58075 4.42419C2.07974 4.25689 1.71148 4.08302 1.47748 3.91602C1.24348 3.74892 1.15545 3.60084 1.1579 3.47314C1.1599 3.34544 1.2567 3.19177 1.49292 3.02637C1.72916 2.86087 2.09341 2.69244 2.58075 2.52954C3.62435 2.18204 5.09145 1.96362 6.72034 1.96362ZM12.2943 4.87854V7.11206H12.2903V7.22571C12.2903 7.35071 12.1804 7.51281 11.9341 7.68201C11.6879 7.85121 11.3186 8.01965 10.8597 8.17285C9.81613 8.52035 8.34905 8.73914 6.72015 8.73914C5.0912 8.73914 3.62402 8.52155 2.58057 8.17285C2.15336 8.03055 1.8048 7.87417 1.56012 7.71667C1.31767 7.56037 1.18914 7.40445 1.16156 7.28345V4.88818C1.47576 5.07888 1.82447 5.25874 2.25519 5.40234C3.4137 5.78904 4.98863 6.02625 6.72015 6.02625C8.45168 6.02625 10.0286 5.78904 11.1871 5.40234C11.624 5.25634 11.9773 5.07364 12.2943 4.87854ZM12.2943 8.62915V10.6875H12.2903V10.8011C12.2903 10.9261 12.1804 11.0883 11.9341 11.2574C11.6879 11.4266 11.3186 11.5952 10.8597 11.7484C9.81613 12.0958 8.34905 12.3164 6.72015 12.3164C5.0912 12.3164 3.62402 12.097 2.58057 11.7484C2.15337 11.6061 1.8048 11.4497 1.56012 11.2921C1.31767 11.1359 1.18914 10.9798 1.16156 10.8589V8.63684C1.47577 8.82754 1.82442 9.00935 2.25519 9.15295C3.41369 9.53945 4.98863 9.77478 6.72015 9.77478C8.45168 9.77478 10.0286 9.53945 11.1871 9.15295C11.6237 9.00695 11.9774 8.82415 12.2943 8.62915ZM12.2903 12.2047V14.1263C12.2903 14.2561 12.2973 14.3469 12.2843 14.4189C12.2716 14.4909 12.2443 14.5516 12.1592 14.6442C11.9538 14.8666 11.4936 15.1144 10.8596 15.3258C9.81596 15.6733 8.34887 15.8938 6.71997 15.8938C5.09101 15.8938 3.62382 15.6745 2.58038 15.3258C2.15319 15.1834 1.80463 15.0271 1.55994 14.8695C1.31749 14.7133 1.18897 14.5572 1.16138 14.4363V12.2124C1.4756 12.4031 1.82423 12.5848 2.255 12.7284C3.41351 13.115 4.98844 13.3503 6.71997 13.3503C8.45149 13.3503 10.0283 13.115 11.1868 12.7284C11.6234 12.5825 11.9741 12.3994 12.2903 12.2047Z"
          fill="currentColor"/>
</svg>
