<svg width="9" height="11" viewBox="0 0 9 11" fill="none"
     xmlns="http://www.w3.org/2000/svg">
    <path d="M8.25 3.83333H3V2.72222C3 2.32931 3.15804 1.95249 3.43934 1.67466C3.72064 1.39682 4.10218 1.24074 4.5 1.24074C5.22047 1.24074 5.86875 1.75 6.0075 2.42546C6.0281 2.52091 6.08601 2.60447 6.16864 2.65798C6.25128 2.71149 6.35195 2.73063 6.4488 2.71123C6.54564 2.69183 6.63081 2.63547 6.68581 2.55439C6.7408 2.47331 6.76118 2.37407 6.7425 2.27824C6.53062 1.24769 5.5875 0.5 4.5 0.5C3.90345 0.500613 3.33152 0.734936 2.9097 1.15155C2.48787 1.56817 2.25062 2.13304 2.25 2.72222V3.83333H0.75C0.551088 3.83333 0.360322 3.91138 0.21967 4.05029C0.0790176 4.18921 0 4.37762 0 4.57407V9.75926C0 9.95572 0.0790176 10.1441 0.21967 10.283C0.360322 10.422 0.551088 10.5 0.75 10.5H8.25C8.44891 10.5 8.63968 10.422 8.78033 10.283C8.92098 10.1441 9 9.95572 9 9.75926V4.57407C9 4.37762 8.92098 4.18921 8.78033 4.05029C8.63968 3.91138 8.44891 3.83333 8.25 3.83333ZM4.5 7.72222C4.38875 7.72222 4.27999 7.68964 4.18749 7.62859C4.09499 7.56755 4.02289 7.48078 3.98032 7.37927C3.93774 7.27775 3.9266 7.16605 3.94831 7.05828C3.97001 6.95052 4.02359 6.85153 4.10225 6.77383C4.18092 6.69613 4.28115 6.64322 4.39026 6.62179C4.49938 6.60035 4.61248 6.61135 4.71526 6.6534C4.81804 6.69545 4.90589 6.76666 4.9677 6.85802C5.02951 6.94938 5.0625 7.05679 5.0625 7.16667C5.0625 7.31401 5.00324 7.45532 4.89775 7.5595C4.79226 7.66369 4.64918 7.72222 4.5 7.72222Z"
          fill="currentColor"/>
</svg>