<svg width="9" height="11" viewBox="0 0 9 11" fill="none"
     xmlns="http://www.w3.org/2000/svg">
    <path
            d="M4.5 0.5C1.97672 0.5 0 1.68269 0 3.19231V7.80769C0 9.31731 1.97672 10.5 4.5 10.5C7.02328 10.5 9 9.31731 9 7.80769V3.19231C9 1.68269 7.02328 0.5 4.5 0.5ZM8.25 5.5C8.25 5.9625 7.88062 6.43413 7.23703 6.79423C6.51234 7.19952 5.54016 7.42308 4.5 7.42308C3.45984 7.42308 2.48766 7.19952 1.76297 6.79423C1.11937 6.43413 0.75 5.9625 0.75 5.5V4.7C1.54969 5.42115 2.91703 5.88462 4.5 5.88462C6.08297 5.88462 7.45031 5.41923 8.25 4.7V5.5ZM7.23703 9.10192C6.51234 9.50721 5.54016 9.73077 4.5 9.73077C3.45984 9.73077 2.48766 9.50721 1.76297 9.10192C1.11937 8.74183 0.75 8.27019 0.75 7.80769V7.00769C1.54969 7.72885 2.91703 8.19231 4.5 8.19231C6.08297 8.19231 7.45031 7.72692 8.25 7.00769V7.80769C8.25 8.27019 7.88062 8.74183 7.23703 9.10192Z"
            fill="currentColor"/>
</svg>