<svg width="9" height="11" viewBox="0 0 9 11" fill="none"
     xmlns="http://www.w3.org/2000/svg">
    <path opacity="0.5"
          d="M4.40625 0.71875C1.93547 0.71875 0 1.83062 0 3.25V7.75C0 9.16938 1.93547 10.2812 4.40625 10.2812C6.87703 10.2812 8.8125 9.16938 8.8125 7.75V3.25C8.8125 1.83062 6.87703 0.71875 4.40625 0.71875ZM4.40625 1.28125C6.48984 1.28125 8.25 2.18266 8.25 3.25C8.25 4.31734 6.48984 5.21875 4.40625 5.21875C2.32266 5.21875 0.5625 4.31734 0.5625 3.25C0.5625 2.18266 2.32266 1.28125 4.40625 1.28125ZM8.25 7.75C8.25 8.81734 6.48984 9.71875 4.40625 9.71875C2.32266 9.71875 0.5625 8.81734 0.5625 7.75V6.75578C1.3125 7.52312 2.73609 8.03125 4.40625 8.03125C6.07641 8.03125 7.5 7.52312 8.25 6.75578V7.75ZM8.25 5.5C8.25 6.56734 6.48984 7.46875 4.40625 7.46875C2.32266 7.46875 0.5625 6.56734 0.5625 5.5V4.50578C1.3125 5.27313 2.73609 5.78125 4.40625 5.78125C6.07641 5.78125 7.5 5.27313 8.25 4.50578V5.5Z"
          fill="currentColor"/>
</svg>