<svg width="10" height="9" viewBox="0 0 10 9" fill="none"
     xmlns="http://www.w3.org/2000/svg">
    <path opacity="0.5"
          d="M7.07547 3.6383H9.33962C9.51477 3.6383 9.68274 3.56769 9.80658 3.442C9.93042 3.31631 10 3.14584 10 2.96809V0.670213C10 0.492461 9.93042 0.32199 9.80658 0.196301C9.68274 0.0706115 9.51477 0 9.33962 0H7.07547C6.90033 0 6.73236 0.0706115 6.60851 0.196301C6.48467 0.32199 6.41509 0.492461 6.41509 0.670213V1.53191H5.9434C5.56809 1.53191 5.20816 1.68323 4.94277 1.95256C4.67739 2.22189 4.5283 2.58719 4.5283 2.96809V4.21277H2.83019V3.73404C2.83019 3.55629 2.76061 3.38582 2.63677 3.26013C2.51292 3.13444 2.34495 3.06383 2.16981 3.06383H0.660377C0.485234 3.06383 0.317265 3.13444 0.19342 3.26013C0.0695753 3.38582 0 3.55629 0 3.73404V5.26596C0 5.44371 0.0695753 5.61418 0.19342 5.73987C0.317265 5.86556 0.485234 5.93617 0.660377 5.93617H2.16981C2.34495 5.93617 2.51292 5.86556 2.63677 5.73987C2.76061 5.61418 2.83019 5.44371 2.83019 5.26596V4.78723H4.5283V6.03192C4.5283 6.41281 4.67739 6.77811 4.94277 7.04744C5.20816 7.31678 5.56809 7.46809 5.9434 7.46809H6.41509V8.32979C6.41509 8.50754 6.48467 8.67801 6.60851 8.8037C6.73236 8.92939 6.90033 9 7.07547 9H9.33962C9.51477 9 9.68274 8.92939 9.80658 8.8037C9.93042 8.67801 10 8.50754 10 8.32979V6.03192C10 5.85416 9.93042 5.68369 9.80658 5.558C9.68274 5.43231 9.51477 5.3617 9.33962 5.3617H7.07547C6.90033 5.3617 6.73236 5.43231 6.60851 5.558C6.48467 5.68369 6.41509 5.85416 6.41509 6.03192V6.89362H5.9434C5.71821 6.89362 5.50225 6.80283 5.34302 6.64123C5.18379 6.47963 5.09434 6.26045 5.09434 6.03192V2.96809C5.09434 2.73955 5.18379 2.52037 5.34302 2.35877C5.50225 2.19717 5.71821 2.10638 5.9434 2.10638H6.41509V2.96809C6.41509 3.14584 6.48467 3.31631 6.60851 3.442C6.73236 3.56769 6.90033 3.6383 7.07547 3.6383ZM2.26415 5.26596C2.26415 5.29135 2.25421 5.3157 2.23652 5.33366C2.21883 5.35161 2.19483 5.3617 2.16981 5.3617H0.660377C0.635357 5.3617 0.611361 5.35161 0.593669 5.33366C0.575977 5.3157 0.566038 5.29135 0.566038 5.26596V3.73404C0.566038 3.70865 0.575977 3.6843 0.593669 3.66634C0.611361 3.64839 0.635357 3.6383 0.660377 3.6383H2.16981C2.19483 3.6383 2.21883 3.64839 2.23652 3.66634C2.25421 3.6843 2.26415 3.70865 2.26415 3.73404V5.26596ZM6.98113 6.03192C6.98113 6.00652 6.99107 5.98217 7.00876 5.96421C7.02646 5.94626 7.05045 5.93617 7.07547 5.93617H9.33962C9.36464 5.93617 9.38864 5.94626 9.40633 5.96421C9.42402 5.98217 9.43396 6.00652 9.43396 6.03192V8.32979C9.43396 8.35518 9.42402 8.37953 9.40633 8.39749C9.38864 8.41545 9.36464 8.42553 9.33962 8.42553H7.07547C7.05045 8.42553 7.02646 8.41545 7.00876 8.39749C6.99107 8.37953 6.98113 8.35518 6.98113 8.32979V6.03192ZM6.98113 0.670213C6.98113 0.64482 6.99107 0.620467 7.00876 0.602511C7.02646 0.584555 7.05045 0.574468 7.07547 0.574468H9.33962C9.36464 0.574468 9.38864 0.584555 9.40633 0.602511C9.42402 0.620467 9.43396 0.64482 9.43396 0.670213V2.96809C9.43396 2.99348 9.42402 3.01783 9.40633 3.03579C9.38864 3.05374 9.36464 3.06383 9.33962 3.06383H7.07547C7.05045 3.06383 7.02646 3.05374 7.00876 3.03579C6.99107 3.01783 6.98113 2.99348 6.98113 2.96809V0.670213Z"
          fill="currentColor"/>
</svg>