<svg width="15" height="17" viewBox="0 0 15 17" fill="none"
     xmlns="http://www.w3.org/2000/svg">
    <path d="M7.273 0.92572C5.58415 0.92572 4.04802 1.15717 2.91807 1.53417C2.28846 1.74445 1.77304 2.00767 1.41008 2.32103C1.04714 2.63438 0.833586 3.00628 0.833557 3.41223V3.52291C0.83374 7.00009 0.843182 10.4775 0.843182 13.9568V14.2085C0.843182 14.6611 1.23287 15.0325 1.67135 15.3221C2.10984 15.6117 2.61372 15.8236 2.91642 15.9248H2.91836C4.04832 16.3019 5.58444 16.5314 7.2733 16.5314C7.63253 16.5314 7.97994 16.516 8.32306 16.4958C8.02075 16.2088 7.76369 15.8777 7.56062 15.5137C7.4634 15.5137 7.37178 15.5233 7.2733 15.5233C5.68449 15.5233 4.25345 15.3094 3.23573 14.9693C2.81906 14.8304 2.47908 14.678 2.24043 14.5242C2.00395 14.3719 1.8786 14.2196 1.85169 14.1017V11.9327C2.15816 12.1186 2.49821 12.2959 2.91836 12.4359C4.00059 12.7972 5.46012 13.0166 7.06485 13.035C7.10452 12.6917 7.18717 12.3549 7.31086 12.0322H7.27324C5.68443 12.0322 4.25341 11.8182 3.23567 11.4782C2.81901 11.3394 2.47902 11.1869 2.24037 11.0331C2.00389 10.8808 1.87854 10.7285 1.85163 10.6106V8.44345C2.1581 8.62941 2.49815 8.80665 2.9183 8.94674C4.04825 9.32375 5.58439 9.55332 7.27324 9.55332C8.96209 9.55332 10.5001 9.32375 11.6301 8.94674C12.0559 8.80434 12.4007 8.62613 12.7099 8.43594V9.68102C13.072 9.82699 13.4115 10.0236 13.7183 10.2651V3.34861C13.7183 3.29573 13.7067 3.24322 13.6901 3.19274C13.552 2.47594 12.7736 1.91427 11.6301 1.53265C10.5001 1.15564 8.96209 0.924194 7.27324 0.924194L7.273 0.92572ZM12.7096 4.78113V6.95953H12.7058V7.07033C12.7058 7.19225 12.5985 7.35041 12.3583 7.5154C12.1182 7.6804 11.7581 7.84486 11.3105 7.99428C10.2926 8.33321 8.86169 8.54639 7.27294 8.54639C5.68414 8.54639 4.25305 8.33436 3.23532 7.99428C2.81864 7.85543 2.47873 7.70285 2.24007 7.5492C2.0036 7.39681 1.87824 7.24465 1.85134 7.12667V4.79051C2.15779 4.97647 2.49785 5.15183 2.91795 5.29192C4.04791 5.66903 5.58409 5.90038 7.27294 5.90038C8.9618 5.90038 10.4998 5.66903 11.6298 5.29192C12.0559 5.14953 12.4004 4.97141 12.7096 4.78113Z"
          fill="currentColor"/>
    <path d="M10.7858 14.7342L9.82579 13.7129H12.5076C12.5601 13.7129 12.6085 13.6917 12.6447 13.6523C12.6811 13.6129 12.7013 13.561 12.7013 13.5065C12.7013 13.4517 12.6812 13.3993 12.6447 13.361C12.6084 13.3225 12.5601 13.3004 12.5076 13.3004H9.82579L10.7858 12.2791C10.8181 12.2406 10.8383 12.1878 10.8383 12.1347C10.8345 12.0809 10.8142 12.0301 10.7819 11.9927C10.7455 11.9552 10.6972 11.9341 10.6488 11.9321C10.5963 11.9321 10.5479 11.9514 10.5116 11.9869L9.22485 13.3601C9.1885 13.3995 9.16827 13.4514 9.16827 13.5056C9.16827 13.5604 9.18841 13.6129 9.22485 13.6513L10.5116 15.0243C10.548 15.0608 10.5963 15.081 10.6488 15.0791C10.6973 15.0791 10.7455 15.056 10.7819 15.0185C10.8141 14.981 10.8344 14.9301 10.8383 14.8766C10.8383 14.8228 10.8182 14.772 10.7858 14.7323V14.7342Z"
          fill="currentColor"/>
    <path d="M10.6495 11.7783C10.5594 11.7783 10.4689 11.8139 10.4035 11.8779H10.4016L9.11145 13.2524C9.04876 13.3207 9.01379 13.4098 9.01379 13.5023C9.01379 13.5946 9.04803 13.6851 9.11332 13.7538L10.4016 15.1266H10.4035C10.467 15.1901 10.5577 15.2282 10.6514 15.2261C10.7476 15.2253 10.8306 15.1819 10.8918 15.1191H10.8956H10.8995C10.9062 15.1095 10.9043 15.099 10.9107 15.0913L10.9407 15.0163C10.9593 14.974 10.9879 14.9355 10.9914 14.8886V14.8789V14.8693C10.9914 14.8155 10.9612 14.7731 10.9407 14.7266C10.9265 14.6949 10.9266 14.6555 10.9051 14.6289L10.6328 14.3417L10.182 13.861H12.5752C12.6691 13.861 12.7611 13.8196 12.825 13.7501C12.8877 13.6818 12.9227 13.5928 12.9227 13.5004C12.9227 13.4081 12.8885 13.3174 12.8231 13.2487C12.7603 13.1823 12.671 13.1417 12.5752 13.1417H10.182L10.9013 12.3754H10.9032C10.9599 12.3081 10.9915 12.2254 10.9915 12.1333V12.1237V12.114C10.9857 12.0285 10.9541 11.9484 10.8975 11.8829H10.8956H10.8918C10.8281 11.8175 10.7442 11.7796 10.6552 11.776H10.6513L10.6495 11.7783ZM10.6457 12.0882C10.6514 12.0891 10.6596 12.0882 10.6664 12.0978C10.6731 12.1074 10.6806 12.1229 10.6833 12.1411C10.6814 12.1546 10.6756 12.1719 10.6683 12.1806L9.47019 13.4538H12.5751C12.5847 13.4538 12.5896 13.4537 12.5995 13.4672C12.6072 13.4768 12.6145 13.4893 12.6145 13.5066C12.6145 13.523 12.6078 13.5374 12.5976 13.548C12.5889 13.5576 12.5863 13.5596 12.5751 13.5596H9.47019L10.6664 14.8308C10.6761 14.8433 10.6821 14.8568 10.6833 14.8703C10.6805 14.8885 10.6733 14.9039 10.6664 14.9136C10.6587 14.9232 10.6495 14.9251 10.6495 14.9251H10.6457H10.6437C10.6351 14.9255 10.6299 14.9251 10.6231 14.9154H10.6211L9.33662 13.5445C9.32893 13.5349 9.3216 13.5224 9.3216 13.5051C9.3216 13.4888 9.32837 13.4744 9.33856 13.4638H9.33662L10.6193 12.0967C10.625 12.087 10.6341 12.087 10.6455 12.087L10.6457 12.0882Z"
          fill="currentColor"/>
    <path d="M11.1622 10.0863C9.27832 10.0863 7.74438 11.6221 7.74438 13.506C7.74438 15.3899 9.27832 16.9258 11.1622 16.9258C13.0461 16.9258 14.582 15.3899 14.582 13.506C14.582 11.6221 13.0461 10.0863 11.1622 10.0863ZM11.1622 10.875C12.62 10.875 13.7951 12.0482 13.7951 13.506C13.7951 14.9638 12.62 16.137 11.1622 16.137C9.70442 16.137 8.53124 14.9638 8.53124 13.506C8.53124 12.0482 9.70442 10.875 11.1622 10.875Z"
          fill="currentColor"/>
</svg>
