<svg width="9" height="10" viewBox="0 0 9 10" fill="none"
     xmlns="http://www.w3.org/2000/svg">
    <path
            d="M8.32979 3.39623H2.87234V2.16981C2.87234 1.74446 3.04383 1.33654 3.34907 1.03577C3.65432 0.735006 4.06832 0.566038 4.5 0.566038C5.28032 0.566038 5.98404 1.11745 6.1334 1.84858C6.14955 1.92113 6.19399 1.9845 6.25714 2.02505C6.32028 2.0656 6.39707 2.08007 6.47094 2.06534C6.54482 2.05061 6.60985 2.00786 6.65203 1.94631C6.6942 1.88476 6.71013 1.80934 6.69638 1.73632C6.4891 0.730189 5.56564 0 4.5 0C3.91619 0.000748849 3.35651 0.229594 2.9437 0.63635C2.53089 1.04311 2.29863 1.59457 2.29787 2.16981V3.39623H0.670213C0.492461 3.39623 0.32199 3.4658 0.196301 3.58965C0.0706115 3.71349 0 3.88146 0 4.0566V9.33962C0 9.51477 0.0706115 9.68274 0.196301 9.80658C0.32199 9.93042 0.492461 10 0.670213 10H8.32979C8.50754 10 8.67801 9.93042 8.8037 9.80658C8.92939 9.68274 9 9.51477 9 9.33962V4.0566C9 3.88146 8.92939 3.71349 8.8037 3.58965C8.67801 3.4658 8.50754 3.39623 8.32979 3.39623ZM8.42553 9.33962C8.42553 9.36464 8.41545 9.38864 8.39749 9.40633C8.37953 9.42402 8.35518 9.43396 8.32979 9.43396H0.670213C0.64482 9.43396 0.620467 9.42402 0.602511 9.40633C0.584555 9.38864 0.574468 9.36464 0.574468 9.33962V4.0566C0.574468 4.03158 0.584555 4.00759 0.602511 3.9899C0.620467 3.9722 0.64482 3.96226 0.670213 3.96226H8.32979C8.35518 3.96226 8.37953 3.9722 8.39749 3.9899C8.41545 4.00759 8.42553 4.03158 8.42553 4.0566V9.33962ZM4.97872 6.69811C4.97872 6.79141 4.95065 6.8826 4.89804 6.96018C4.84544 7.03775 4.77067 7.0982 4.6832 7.13391C4.59572 7.16961 4.49947 7.17895 4.40661 7.16075C4.31374 7.14255 4.22844 7.09762 4.16149 7.03165C4.09454 6.96569 4.04895 6.88164 4.03048 6.79014C4.012 6.69864 4.02148 6.60379 4.05772 6.5176C4.09395 6.43141 4.15531 6.35774 4.23404 6.30591C4.31276 6.25408 4.40532 6.22642 4.5 6.22642C4.62697 6.22642 4.74873 6.27611 4.83851 6.36457C4.92829 6.45303 4.97872 6.57301 4.97872 6.69811Z"
            fill="currentColor"/>
</svg>