<svg width="15" height="15" viewBox="0 0 15 15" fill="none" xmlns="http://www.w3.org/2000/svg">
<path d="M15 9.41489V13.883C15 14.1792 14.8823 14.4633 14.6728 14.6728C14.4633 14.8823 14.1792 15 13.883 15H1.11702C0.820769 15 0.53665 14.8823 0.327168 14.6728C0.117686 14.4633 0 14.1792 0 13.883V9.41489C0 9.28793 0.0504367 9.16616 0.140215 9.07638C0.229993 8.98661 0.351758 8.93617 0.478723 8.93617C0.605689 8.93617 0.727454 8.98661 0.817232 9.07638C0.90701 9.16616 0.957447 9.28793 0.957447 9.41489V13.883C0.957447 13.9253 0.974259 13.9659 1.00418 13.9958C1.03411 14.0257 1.0747 14.0426 1.11702 14.0426H13.883C13.9253 14.0426 13.9659 14.0257 13.9958 13.9958C14.0257 13.9659 14.0426 13.9253 14.0426 13.883V9.41489C14.0426 9.28793 14.093 9.16616 14.1828 9.07638C14.2725 8.98661 14.3943 8.93617 14.5213 8.93617C14.6482 8.93617 14.77 8.98661 14.8598 9.07638C14.9496 9.16616 15 9.28793 15 9.41489ZM7.1617 9.75319C7.25146 9.84284 7.37314 9.8932 7.5 9.8932C7.62686 9.8932 7.74854 9.84284 7.8383 9.75319L11.0298 6.5617C11.1143 6.47095 11.1604 6.35092 11.1582 6.2269C11.156 6.10288 11.1058 5.98455 11.0181 5.89684C10.9303 5.80913 10.812 5.75888 10.688 5.7567C10.564 5.75451 10.4439 5.80054 10.3532 5.88511L7.97872 8.25878V0.478723C7.97872 0.351758 7.92829 0.229993 7.83851 0.140215C7.74873 0.0504367 7.62697 0 7.5 0C7.37303 0 7.25127 0.0504367 7.16149 0.140215C7.07171 0.229993 7.02128 0.351758 7.02128 0.478723V8.25878L4.64681 5.88511C4.55606 5.80054 4.43603 5.75451 4.31201 5.7567C4.18798 5.75888 4.06965 5.80913 3.98194 5.89684C3.89423 5.98455 3.84399 6.10288 3.8418 6.2269C3.83961 6.35092 3.88565 6.47095 3.97021 6.5617L7.1617 9.75319Z" fill="currentColor"/>
</svg>
