<svg width="16" height="16" viewBox="0 0 16 16" fill="none"
     xmlns="http://www.w3.org/2000/svg">
    <path d="M15.6652 3.98272L12.0171 0.334757C11.911 0.228627 11.785 0.144439 11.6463 0.087001C11.5076 0.029563 11.359 0 11.2089 0C11.0588 0 10.9102 0.029563 10.7715 0.087001C10.6329 0.144439 10.5069 0.228627 10.4008 0.334757L0.334694 10.4011C0.228356 10.5071 0.144037 10.6331 0.0865948 10.7717C0.0291529 10.9104 -0.000276629 11.0591 1.95952e-06 11.2092V14.8572C1.95952e-06 15.1603 0.120409 15.451 0.334735 15.6653C0.549061 15.8796 0.83975 16 1.14285 16H4.791C4.94112 16.0003 5.08982 15.9709 5.22852 15.9134C5.36722 15.856 5.49319 15.7717 5.59916 15.6653L15.6652 5.59895C15.7714 5.49283 15.8556 5.36685 15.913 5.22819C15.9704 5.08953 16 4.94092 16 4.79083C16 4.64075 15.9704 4.49214 15.913 4.35348C15.8556 4.21482 15.7714 4.08884 15.6652 3.98272ZM4.9061 14.9723C4.87562 15.003 4.83423 15.0203 4.791 15.0205H1.14285C1.09955 15.0205 1.05803 15.0033 1.02741 14.9726C0.996789 14.942 0.979589 14.9005 0.979589 14.8572V11.2092C0.979771 11.166 0.997092 11.1246 1.02775 11.0942L8.32649 3.79497L12.2048 7.67394L4.9061 14.9723ZM14.9722 4.90674L12.8979 6.98091L9.01955 3.10277L11.0938 1.02778C11.109 1.0126 11.127 1.00056 11.1468 0.992343C11.1666 0.984128 11.1879 0.979899 11.2093 0.979899C11.2308 0.979899 11.252 0.984128 11.2719 0.992343C11.2917 1.00056 11.3097 1.0126 11.3248 1.02778L14.9722 4.67574C14.9873 4.6909 14.9994 4.70891 15.0076 4.72872C15.0158 4.74854 15.0201 4.76979 15.0201 4.79124C15.0201 4.8127 15.0158 4.83394 15.0076 4.85376C14.9994 4.87358 14.9873 4.89158 14.9722 4.90674Z"
          fill="currentColor"/>
</svg>
