<svg width="16" height="12" viewBox="0 0 16 12" fill="none"
     xmlns="http://www.w3.org/2000/svg">
    <path d="M15.5294 0H0.470588C0.34578 0 0.226084 0.0486262 0.137832 0.135181C0.0495796 0.221737 0 0.339131 0 0.461538V10.9231C0 11.2087 0.115686 11.4826 0.321608 11.6846C0.527531 11.8865 0.806821 12 1.09804 12H14.902C15.1932 12 15.4725 11.8865 15.6784 11.6846C15.8843 11.4826 16 11.2087 16 10.9231V0.461538C16 0.339131 15.9504 0.221737 15.8622 0.135181C15.7739 0.0486262 15.6542 0 15.5294 0ZM14.32 0.923077L8 6.60462L1.68 0.923077H14.32ZM14.902 11.0769H1.09804C1.05644 11.0769 1.01654 11.0607 0.98712 11.0319C0.957703 11.003 0.941177 10.9639 0.941177 10.9231V1.51077L7.68628 7.57077C7.77303 7.64861 7.88634 7.69178 8.00392 7.69178C8.1215 7.69178 8.23482 7.64861 8.32157 7.57077L15.0588 1.51077V10.9231C15.0588 10.9639 15.0423 11.003 15.0129 11.0319C14.9835 11.0607 14.9436 11.0769 14.902 11.0769Z"
          fill="currentColor"/>
</svg>
