<svg width="34" height="17" viewBox="0 0 34 17" fill="none" xmlns="http://www.w3.org/2000/svg">
<path d="M29.0634 8.87591L23.7509 14.1884C23.7016 14.2378 23.643 14.2769 23.5785 14.3036C23.514 14.3303 23.4449 14.3441 23.3751 14.3441C23.3052 14.3441 23.2361 14.3303 23.1716 14.3036C23.1071 14.2769 23.0486 14.2378 22.9992 14.1884C22.9498 14.1391 22.9107 14.0805 22.884 14.016C22.8573 13.9515 22.8435 13.8824 22.8435 13.8126C22.8435 13.7427 22.8573 13.6736 22.884 13.6091C22.9107 13.5446 22.9498 13.4861 22.9992 13.4367L27.9365 8.50005L22.9992 3.56341C22.8995 3.46373 22.8435 3.32853 22.8435 3.18755C22.8435 3.04658 22.8995 2.91138 22.9992 2.81169C23.0989 2.71201 23.2341 2.65601 23.3751 2.65601C23.516 2.65601 23.6512 2.71201 23.7509 2.81169L29.0634 8.12419C29.1128 8.17353 29.152 8.23212 29.1787 8.29661C29.2055 8.36111 29.2192 8.43024 29.2192 8.50005C29.2192 8.56987 29.2055 8.639 29.1787 8.70349C29.152 8.76798 29.1128 8.82657 29.0634 8.87591Z" fill="currentColor"/>
<path d="M11.0009 13.4367C11.0503 13.4861 11.0894 13.5446 11.1161 13.6091C11.1428 13.6736 11.1566 13.7427 11.1566 13.8126C11.1566 13.8824 11.1428 13.9515 11.1161 14.016C11.0894 14.0805 11.0503 14.1391 11.0009 14.1884C10.9516 14.2378 10.893 14.2769 10.8285 14.3036C10.764 14.3303 10.6949 14.3441 10.6251 14.3441C10.5552 14.3441 10.4861 14.3303 10.4216 14.3036C10.3571 14.2769 10.2986 14.2378 10.2492 14.1884L4.93669 8.87591C4.8873 8.82657 4.84811 8.76798 4.82138 8.70349C4.79464 8.639 4.78088 8.56987 4.78088 8.50005C4.78088 8.43024 4.79464 8.36111 4.82138 8.29661C4.84811 8.23212 4.8873 8.17353 4.93669 8.12419L10.2492 2.81169C10.3489 2.71201 10.4841 2.65601 10.6251 2.65601C10.766 2.65601 10.9012 2.71201 11.0009 2.81169C11.1006 2.91138 11.1566 3.04658 11.1566 3.18755C11.1566 3.32853 11.1006 3.46373 11.0009 3.56341L6.06361 8.50005L11.0009 13.4367Z" fill="currentColor"/>
</svg>
