<svg width="16" height="17" viewBox="0 0 16 17" fill="none" xmlns="http://www.w3.org/2000/svg">
<path d="M16 0.593023V5.33721C16 5.49449 15.9412 5.64533 15.8365 5.75654C15.7319 5.86775 15.5899 5.93023 15.4419 5.93023C15.2938 5.93023 15.1519 5.86775 15.0472 5.75654C14.9425 5.64533 14.8837 5.49449 14.8837 5.33721V2.02419L9.88279 7.33767C9.77699 7.44243 9.63704 7.49945 9.49245 7.49674C9.34785 7.49403 9.20989 7.4318 9.10763 7.32314C9.00537 7.21449 8.94679 7.06791 8.94424 6.91427C8.94169 6.76064 8.99536 6.61195 9.09395 6.49954L14.0949 1.18605H10.9767C10.8287 1.18605 10.6868 1.12357 10.5821 1.01235C10.4774 0.901141 10.4186 0.750303 10.4186 0.593023C10.4186 0.435744 10.4774 0.284906 10.5821 0.173692C10.6868 0.062479 10.8287 0 10.9767 0H15.4419C15.5899 0 15.7319 0.062479 15.8365 0.173692C15.9412 0.284906 16 0.435744 16 0.593023ZM6.11721 9.66232L1.11628 14.9758V11.6628C1.11628 11.5055 1.05748 11.3547 0.952804 11.2435C0.848132 11.1322 0.706167 11.0698 0.55814 11.0698C0.410112 11.0698 0.268147 11.1322 0.163475 11.2435C0.0588037 11.3547 0 11.5055 0 11.6628V16.407C0 16.5643 0.0588037 16.7151 0.163475 16.8263C0.268147 16.9375 0.410112 17 0.55814 17H5.02326C5.17128 17 5.31325 16.9375 5.41792 16.8263C5.52259 16.7151 5.5814 16.5643 5.5814 16.407C5.5814 16.2497 5.52259 16.0989 5.41792 15.9876C5.31325 15.8764 5.17128 15.814 5.02326 15.814H1.90512L6.90605 10.5005C7.00464 10.388 7.05831 10.2394 7.05576 10.0857C7.05321 9.93209 6.99463 9.78551 6.89237 9.67686C6.79011 9.56821 6.65215 9.50597 6.50755 9.50326C6.36296 9.50055 6.22301 9.55757 6.11721 9.66232Z" fill="currentColor"/>
</svg>
