<svg width="16" height="16" viewBox="0 0 16 16" fill="none"
     xmlns="http://www.w3.org/2000/svg">
    <path d="M8 0C6.41775 0 4.87103 0.469192 3.55544 1.34824C2.23985 2.22729 1.21447 3.47672 0.608967 4.93853C0.00346614 6.40034 -0.15496 8.00887 0.153721 9.56072C0.462403 11.1126 1.22433 12.538 2.34315 13.6569C3.46197 14.7757 4.88743 15.5376 6.43928 15.8463C7.99113 16.155 9.59966 15.9965 11.0615 15.391C12.5233 14.7855 13.7727 13.7602 14.6518 12.4446C15.5308 11.129 16 9.58225 16 8C15.9975 5.87903 15.1539 3.84565 13.6541 2.3459C12.1544 0.846145 10.121 0.00249086 8 0ZM8 15.0588C6.6039 15.0588 5.23915 14.6448 4.07833 13.8692C2.91751 13.0936 2.01277 11.9911 1.4785 10.7013C0.944235 9.41146 0.804447 7.99217 1.07681 6.62289C1.34918 5.25361 2.02147 3.99585 3.00866 3.00866C3.99585 2.02146 5.25362 1.34918 6.62289 1.07681C7.99217 0.804443 9.41146 0.944232 10.7013 1.4785C11.9911 2.01276 13.0936 2.91751 13.8692 4.07833C14.6448 5.23914 15.0588 6.6039 15.0588 8C15.0567 9.87148 14.3124 11.6657 12.989 12.989C11.6657 14.3124 9.87148 15.0567 8 15.0588ZM11.5545 3.81412L6.5349 6.32392C6.44355 6.3695 6.3695 6.44355 6.32392 6.5349L3.81412 11.5545C3.7783 11.6263 3.76141 11.706 3.76505 11.7861C3.7687 11.8662 3.79277 11.9441 3.83496 12.0123C3.87716 12.0805 3.93609 12.1368 4.00615 12.1758C4.07622 12.2148 4.15509 12.2353 4.2353 12.2353C4.30823 12.2352 4.38015 12.2183 4.44549 12.1859L9.4651 9.67608C9.55645 9.6305 9.6305 9.55645 9.67608 9.4651L12.1859 4.44549C12.2301 4.35715 12.2453 4.25714 12.2295 4.15964C12.2137 4.06215 12.1676 3.9721 12.0977 3.90226C12.0279 3.83241 11.9379 3.78632 11.8404 3.7705C11.7429 3.75468 11.6429 3.76994 11.5545 3.81412ZM8.90431 8.90431L5.28785 10.7122L7.09177 7.09568L10.7082 5.29176L8.90431 8.90431Z"
          fill="currentColor"/>
</svg>
