<svg width="28" height="28" viewBox="0 0 28 28" fill="none" xmlns="http://www.w3.org/2000/svg">
<rect x="0.5" y="0.5" width="27" height="27" stroke="currentColor"/>
<mask id="path-2-inside-1_217_578" fill="white">
<path d="M20.9765 19.2H20.2706V8.4C20.2706 8.29391 20.226 8.19217 20.1465 8.11716C20.0671 8.04214 19.9594 8 19.8471 8H15.8941C15.7818 8 15.6741 8.04214 15.5946 8.11716C15.5152 8.19217 15.4706 8.29391 15.4706 8.4V11.2H11.9412C11.8288 11.2 11.7211 11.2421 11.6417 11.3172C11.5623 11.3922 11.5176 11.4939 11.5176 11.6V14.4H8.55294C8.44061 14.4 8.33289 14.4421 8.25346 14.5172C8.17403 14.5922 8.12941 14.6939 8.12941 14.8V19.2H7.42353C7.3112 19.2 7.20348 19.2421 7.12405 19.3172C7.04462 19.3922 7 19.4939 7 19.6C7 19.7061 7.04462 19.8078 7.12405 19.8828C7.20348 19.9579 7.3112 20 7.42353 20H20.9765C21.0888 20 21.1965 19.9579 21.276 19.8828C21.3554 19.8078 21.4 19.7061 21.4 19.6C21.4 19.4939 21.3554 19.3922 21.276 19.3172C21.1965 19.2421 21.0888 19.2 20.9765 19.2ZM16.3176 8.8H19.4235V19.2H16.3176V8.8ZM12.3647 12H15.4706V19.2H12.3647V12ZM8.97647 15.2H11.5176V19.2H8.97647V15.2Z"/>
</mask>
<path d="M20.9765 19.2H20.2706V8.4C20.2706 8.29391 20.226 8.19217 20.1465 8.11716C20.0671 8.04214 19.9594 8 19.8471 8H15.8941C15.7818 8 15.6741 8.04214 15.5946 8.11716C15.5152 8.19217 15.4706 8.29391 15.4706 8.4V11.2H11.9412C11.8288 11.2 11.7211 11.2421 11.6417 11.3172C11.5623 11.3922 11.5176 11.4939 11.5176 11.6V14.4H8.55294C8.44061 14.4 8.33289 14.4421 8.25346 14.5172C8.17403 14.5922 8.12941 14.6939 8.12941 14.8V19.2H7.42353C7.3112 19.2 7.20348 19.2421 7.12405 19.3172C7.04462 19.3922 7 19.4939 7 19.6C7 19.7061 7.04462 19.8078 7.12405 19.8828C7.20348 19.9579 7.3112 20 7.42353 20H20.9765C21.0888 20 21.1965 19.9579 21.276 19.8828C21.3554 19.8078 21.4 19.7061 21.4 19.6C21.4 19.4939 21.3554 19.3922 21.276 19.3172C21.1965 19.2421 21.0888 19.2 20.9765 19.2ZM16.3176 8.8H19.4235V19.2H16.3176V8.8ZM12.3647 12H15.4706V19.2H12.3647V12ZM8.97647 15.2H11.5176V19.2H8.97647V15.2Z" fill="currentColor"/>
<path d="M20.2706 19.2H19.2706V20.2H20.2706V19.2ZM19.8471 8V7V8ZM15.8941 8V7V8ZM15.4706 11.2V12.2H16.4706V11.2H15.4706ZM11.5176 14.4V15.4H12.5176V14.4H11.5176ZM8.12941 14.8H7.12941H8.12941ZM8.12941 19.2V20.2H9.12941V19.2H8.12941ZM16.3176 8.8V7.8H15.3176V8.8H16.3176ZM19.4235 8.8H20.4235V7.8H19.4235V8.8ZM19.4235 19.2V20.2H20.4235V19.2H19.4235ZM16.3176 19.2H15.3176V20.2H16.3176V19.2ZM12.3647 12V11H11.3647V12H12.3647ZM15.4706 12H16.4706V11H15.4706V12ZM15.4706 19.2V20.2H16.4706V19.2H15.4706ZM12.3647 19.2H11.3647V20.2H12.3647V19.2ZM8.97647 15.2V14.2H7.97647V15.2H8.97647ZM11.5176 15.2H12.5176V14.2H11.5176V15.2ZM11.5176 19.2V20.2H12.5176V19.2H11.5176ZM8.97647 19.2H7.97647V20.2H8.97647V19.2ZM20.9765 18.2H20.2706V20.2H20.9765V18.2ZM21.2706 19.2V8.4H19.2706V19.2H21.2706ZM21.2706 8.4C21.2706 8.00966 21.1059 7.64771 20.8332 7.39014L19.4599 8.84417C19.3461 8.73664 19.2706 8.57817 19.2706 8.4H21.2706ZM20.8332 7.39014C20.5624 7.13441 20.2067 7 19.8471 7V9C19.712 9 19.5718 8.94987 19.4599 8.84417L20.8332 7.39014ZM19.8471 7H15.8941V9H19.8471V7ZM15.8941 7C15.5344 7 15.1788 7.13441 14.908 7.39014L16.2813 8.84417C16.1693 8.94987 16.0291 9 15.8941 9V7ZM14.908 7.39014C14.6353 7.64771 14.4706 8.00966 14.4706 8.4H16.4706C16.4706 8.57817 16.3951 8.73664 16.2813 8.84417L14.908 7.39014ZM14.4706 8.4V11.2H16.4706V8.4H14.4706ZM15.4706 10.2H11.9412V12.2H15.4706V10.2ZM11.9412 10.2C11.5815 10.2 11.2258 10.3344 10.9551 10.5901L12.3283 12.0442C12.2164 12.1499 12.0762 12.2 11.9412 12.2V10.2ZM10.9551 10.5901C10.6824 10.8477 10.5176 11.2097 10.5176 11.6H12.5176C12.5176 11.7782 12.4422 11.9366 12.3283 12.0442L10.9551 10.5901ZM10.5176 11.6V14.4H12.5176V11.6H10.5176ZM11.5176 13.4H8.55294V15.4H11.5176V13.4ZM8.55294 13.4C8.19326 13.4 7.83761 13.5344 7.56684 13.7901L8.94008 15.2442C8.82816 15.3499 8.68797 15.4 8.55294 15.4V13.4ZM7.56684 13.7901C7.29412 14.0477 7.12941 14.4097 7.12941 14.8H9.12941C9.12941 14.9782 9.05394 15.1366 8.94008 15.2442L7.56684 13.7901ZM7.12941 14.8V19.2H9.12941V14.8H7.12941ZM8.12941 18.2H7.42353V20.2H8.12941V18.2ZM7.42353 18.2C7.06385 18.2 6.7082 18.3344 6.43743 18.5901L7.81067 20.0442C7.69875 20.1499 7.55856 20.2 7.42353 20.2V18.2ZM6.43743 18.5901C6.16471 18.8477 6 19.2097 6 19.6H8C8 19.7782 7.92453 19.9366 7.81067 20.0442L6.43743 18.5901ZM6 19.6C6 19.9903 6.16471 20.3523 6.43743 20.6099L7.81067 19.1558C7.92453 19.2634 8 19.4218 8 19.6H6ZM6.43743 20.6099C6.7082 20.8656 7.06385 21 7.42353 21V19C7.55856 19 7.69875 19.0501 7.81067 19.1558L6.43743 20.6099ZM7.42353 21H20.9765V19H7.42353V21ZM20.9765 21C21.3362 21 21.6918 20.8656 21.9626 20.6099L20.5893 19.1558C20.7012 19.0501 20.8414 19 20.9765 19V21ZM21.9626 20.6099C22.2353 20.3523 22.4 19.9903 22.4 19.6H20.4C20.4 19.4218 20.4755 19.2634 20.5893 19.1558L21.9626 20.6099ZM22.4 19.6C22.4 19.2097 22.2353 18.8477 21.9626 18.5901L20.5893 20.0442C20.4755 19.9366 20.4 19.7782 20.4 19.6H22.4ZM21.9626 18.5901C21.6918 18.3344 21.3362 18.2 20.9765 18.2V20.2C20.8414 20.2 20.7012 20.1499 20.5893 20.0442L21.9626 18.5901ZM16.3176 9.8H19.4235V7.8H16.3176V9.8ZM18.4235 8.8V19.2H20.4235V8.8H18.4235ZM19.4235 18.2H16.3176V20.2H19.4235V18.2ZM17.3176 19.2V8.8H15.3176V19.2H17.3176ZM12.3647 13H15.4706V11H12.3647V13ZM14.4706 12V19.2H16.4706V12H14.4706ZM15.4706 18.2H12.3647V20.2H15.4706V18.2ZM13.3647 19.2V12H11.3647V19.2H13.3647ZM8.97647 16.2H11.5176V14.2H8.97647V16.2ZM10.5176 15.2V19.2H12.5176V15.2H10.5176ZM11.5176 18.2H8.97647V20.2H11.5176V18.2ZM9.97647 19.2V15.2H7.97647V19.2H9.97647Z" fill="currentColor" mask="url(#path-2-inside-1_217_578)"/>
</svg>
