<svg width="28" height="28" viewBox="0 0 28 28" fill="none"
     xmlns="http://www.w3.org/2000/svg">
    <rect x="0.5" y="0.5" width="27" height="27" stroke="currentColor"/>
    <mask id="path-2-inside-1_217_578" fill="white">
        <path d="M20.9765 19.2H20.2706V8.4C20.2706 8.29391 20.226 8.19217 20.1465 8.11716C20.0671 8.04214 19.9594 8 19.8471 8H15.8941C15.7818 8 15.6741 8.04214 15.5946 8.11716C15.5152 8.19217 15.4706 8.29391 15.4706 8.4V11.2H11.9412C11.8288 11.2 11.7211 11.2421 11.6417 11.3172C11.5623 11.3922 11.5176 11.4939 11.5176 11.6V14.4H8.55294C8.44061 14.4 8.33289 14.4421 8.25346 14.5172C8.17403 14.5922 8.12941 14.6939 8.12941 14.8V19.2H7.42353C7.3112 19.2 7.20348 19.2421 7.12405 19.3172C7.04462 19.3922 7 19.4939 7 19.6C7 19.7061 7.04462 19.8078 7.12405 19.8828C7.20348 19.9579 7.3112 20 7.42353 20H20.9765C21.0888 20 21.1965 19.9579 21.276 19.8828C21.3554 19.8078 21.4 19.7061 21.4 19.6C21.4 19.4939 21.3554 19.3922 21.276 19.3172C21.1965 19.2421 21.0888 19.2 20.9765 19.2ZM16.3176 8.8H19.4235V19.2H16.3176V8.8ZM12.3647 12H15.4706V19.2H12.3647V12ZM8.97647 15.2H11.5176V19.2H8.97647V15.2Z"/>
    </mask>
    <path d="M20.9765 19.2H20.2706V8.4C20.2706 8.29391 20.226 8.19217 20.1465 8.11716C20.0671 8.04214 19.9594 8 19.8471 8H15.8941C15.7818 8 15.6741 8.04214 15.5946 8.11716C15.5152 8.19217 15.4706 8.29391 15.4706 8.4V11.2H11.9412C11.8288 11.2 11.7211 11.2421 11.6417 11.3172C11.5623 11.3922 11.5176 11.4939 11.5176 11.6V14.4H8.55294C8.44061 14.4 8.33289 14.4421 8.25346 14.5172C8.17403 14.5922 8.12941 14.6939 8.12941 14.8V19.2H7.42353C7.3112 19.2 7.20348 19.2421 7.12405 19.3172C7.04462 19.3922 7 19.4939 7 19.6C7 19.7061 7.04462 19.8078 7.12405 19.8828C7.20348 19.9579 7.3112 20 7.42353 20H20.9765C21.0888 20 21.1965 19.9579 21.276 19.8828C21.3554 19.8078 21.4 19.7061 21.4 19.6C21.4 19.4939 21.3554 19.3922 21.276 19.3172C21.1965 19.2421 21.0888 19.2 20.9765 19.2ZM16.3176 8.8H19.4235V19.2H16.3176V8.8ZM12.3647 12H15.4706V19.2H12.3647V12ZM8.97647 15.2H11.5176V19.2H8.97647V15.2Z"
          fill="currentColor"/>
</svg>
