<?xml version="1.0" encoding="UTF-8" standalone="no"?>
<svg
        version="1.1"
        fill="none"
        viewBox="0 0 28 28"
        height="28"
        width="28"
        xmlns="http://www.w3.org/2000/svg">
    <rect
            fill="currentColor"
            style="fill-opacity:0"
            width="3.5"
            height="4.78125"
            x="8.453125"
            y="14.78125"/>
    <rect
            fill="currentColor"
            style="fill-opacity:0"
            width="3.71875"
            height="7.96875"
            x="12.078125"
            y="11.53125"/>
    <rect
            fill="currentColor"
            style="fill-opacity:0"
            width="3.96875"
            height="11.15625"
            x="15.875"
            y="8.40625"/>
    <rect
            stroke="currentColor"
            height="27"
            width="27"
            y="0.5"
            x="0.5"/>
    <path
            fill="currentColor"
            d="M 20.976,19.2 H 20.271 V 8.4 C 20.271,8.294 20.226,8.192 20.147,8.117 20.067,8.042 19.959,8 19.847,8 h -3.953 c -0.112,0 -0.22,0.042 -0.299,0.117 -0.08,0.075 -0.124,0.177 -0.124,0.283 v 2.8 h -3.53 c -0.112,0 -0.22,0.042 -0.299,0.117 -0.08,0.075 -0.124,0.177 -0.124,0.283 v 2.8 H 8.553 c -0.112,0 -0.22,0.042 -0.3,0.117 -0.079,0.075 -0.124,0.177 -0.124,0.283 v 4.4 H 7.424 c -0.113,0 -0.221,0.042 -0.3,0.117 C 7.045,19.392 7,19.494 7,19.6 7,19.706 7.045,19.808 7.124,19.883 7.203,19.958 7.311,20 7.424,20 h 13.552 c 0.113,0 0.221,-0.042 0.3,-0.117 C 21.355,19.808 21.4,19.706 21.4,19.6 21.4,19.494 21.355,19.392 21.276,19.317 21.197,19.242 21.089,19.2 20.976,19.2 Z M 16.318,8.8 h 3.106 V 19.2 H 16.318 Z M 12.365,12 h 3.106 v 7.2 h -3.106 z m -3.389,3.2 h 2.542 v 4 H 8.976 Z"/>

</svg>
