<svg width="16" height="16" viewBox="0 0 16 16" fill="none"
     xmlns="http://www.w3.org/2000/svg">
    <path d="M7.4287 9.67037V9.62043C7.43425 9.09058 7.48973 8.66891 7.59515 8.35543C7.70057 8.04196 7.85037 7.78813 8.04456 7.59394C8.23875 7.39975 8.47177 7.22082 8.74364 7.05714C8.90731 6.95727 9.05434 6.83937 9.18472 6.70344C9.31511 6.56474 9.41775 6.40522 9.49265 6.22491C9.57033 6.04459 9.60916 5.84485 9.60916 5.62569C9.60916 5.35383 9.54536 5.11803 9.41775 4.91829C9.29014 4.71856 9.11953 4.56459 8.90592 4.4564C8.69232 4.34821 8.45513 4.29412 8.19436 4.29412C7.96688 4.29412 7.74773 4.34128 7.53689 4.4356C7.32606 4.52992 7.1499 4.67833 7.00842 4.88084C6.86694 5.08335 6.78511 5.34828 6.76291 5.67563H5.71429C5.73649 5.20403 5.85855 4.80039 6.08048 4.46472C6.30518 4.12906 6.60063 3.87245 6.96681 3.6949C7.33577 3.51736 7.74495 3.42859 8.19436 3.42859C8.68261 3.42859 9.10705 3.52568 9.46768 3.71987C9.83109 3.91406 10.1113 4.18038 10.3082 4.51882C10.508 4.85726 10.6078 5.24287 10.6078 5.67563C10.6078 5.98078 10.5607 6.25681 10.4664 6.50371C10.3748 6.7506 10.2417 6.97115 10.0669 7.16533C9.8949 7.35952 9.68684 7.53152 9.44272 7.68132C9.19859 7.8339 9.00302 7.9948 8.85599 8.16402C8.70896 8.33047 8.60216 8.52882 8.53558 8.75907C8.469 8.98932 8.43294 9.27644 8.42739 9.62043V9.67037H7.4287ZM7.96133 12.1338C7.75605 12.1338 7.57989 12.0603 7.43286 11.9132C7.28584 11.7662 7.21232 11.5901 7.21232 11.3848C7.21232 11.1795 7.28584 11.0033 7.43286 10.8563C7.57989 10.7093 7.75605 10.6358 7.96133 10.6358C8.16662 10.6358 8.34278 10.7093 8.48981 10.8563C8.63683 11.0033 8.71035 11.1795 8.71035 11.3848C8.71035 11.5207 8.67567 11.6455 8.60632 11.7593C8.53974 11.873 8.44958 11.9646 8.33584 12.0339C8.22488 12.1005 8.10004 12.1338 7.96133 12.1338Z"
          fill="currentColor"/>
    <circle cx="8" cy="8" r="7.5" stroke="currentColor"/>
</svg>
