<svg width="14" height="14" viewBox="0 0 14 14" fill="none" xmlns="http://www.w3.org/2000/svg">
<path d="M0.5 13.5V6L7 0.5L13.5 6V13.5H9V9H5V13.5H0.5Z" fill="currentColor" fill-opacity="0.2"/>
<path d="M13.6627 5.65999L7.70522 0.267133L7.69852 0.261418C7.5071 0.0932683 7.25696 0 6.9974 0C6.73784 0 6.4877 0.0932683 6.29628 0.261418L6.28958 0.267133L0.332138 5.65999C0.226766 5.7541 0.142855 5.86811 0.0856931 5.99486C0.0285314 6.1216 -0.000642106 6.25833 1.0719e-05 6.39642V13C1.0719e-05 13.2652 0.109851 13.5196 0.305367 13.7071C0.500884 13.8946 0.766061 14 1.04256 14H4.61703C4.89353 14 5.15871 13.8946 5.35422 13.7071C5.54974 13.5196 5.65958 13.2652 5.65958 13V9.57143C5.65958 9.53354 5.67527 9.4972 5.7032 9.47041C5.73113 9.44362 5.76902 9.42857 5.80852 9.42857H8.19149C8.23099 9.42857 8.26888 9.44362 8.29681 9.47041C8.32474 9.4972 8.34043 9.53354 8.34043 9.57143V13C8.34043 13.2652 8.45027 13.5196 8.64579 13.7071C8.8413 13.8946 9.10648 14 9.38298 14H12.9574C13.2339 14 13.4991 13.8946 13.6946 13.7071C13.8902 13.5196 14 13.2652 14 13V6.39642C14 6.25796 13.97 6.12101 13.9119 5.99424C13.8539 5.86747 13.769 5.75365 13.6627 5.65999ZM13.1064 13C13.1064 13.0379 13.0907 13.0742 13.0628 13.101C13.0348 13.1278 12.9969 13.1429 12.9574 13.1429H9.38298C9.34348 13.1429 9.3056 13.1278 9.27767 13.101C9.24974 13.0742 9.23405 13.0379 9.23405 13V9.57143C9.23405 9.30621 9.12421 9.05186 8.92869 8.86432C8.73317 8.67678 8.468 8.57142 8.19149 8.57142H5.80852C5.53202 8.57142 5.26684 8.67678 5.07132 8.86432C4.8758 9.05186 4.76596 9.30621 4.76596 9.57143V13C4.76596 13.0379 4.75027 13.0742 4.72234 13.101C4.69441 13.1278 4.65653 13.1429 4.61703 13.1429H1.04256C1.00306 13.1429 0.96518 13.1278 0.937249 13.101C0.909318 13.0742 0.893627 13.0379 0.893627 13V6.39642C0.893582 6.37654 0.897864 6.35687 0.906199 6.33867C0.914534 6.32046 0.926738 6.30413 0.942031 6.29071L0.948734 6.28499L6.90171 0.893562C6.92884 0.870853 6.96363 0.858341 6.99963 0.858341C7.03564 0.858341 7.07043 0.870853 7.09756 0.893562L13.0513 6.28571L13.0572 6.29142C13.0727 6.30478 13.085 6.32108 13.0935 6.33929C13.1019 6.3575 13.1063 6.3772 13.1064 6.39714V13Z" fill="currentColor"/>
</svg>
