<svg width="16" height="16" viewBox="0 0 16 16" fill="none"
     xmlns="http://www.w3.org/2000/svg">
    <path d="M9.09804 11.7647C9.09804 11.8895 9.04846 12.0092 8.96021 12.0975C8.87196 12.1857 8.75226 12.2353 8.62745 12.2353C8.33623 12.2353 8.05694 12.1196 7.85102 11.9137C7.6451 11.7078 7.52941 11.4285 7.52941 11.1373V8C7.52941 7.9584 7.51289 7.9185 7.48347 7.88908C7.45405 7.85966 7.41415 7.84314 7.37255 7.84314C7.24774 7.84314 7.12805 7.79356 7.03979 7.7053C6.95154 7.61705 6.90196 7.49735 6.90196 7.37255C6.90196 7.24774 6.95154 7.12804 7.03979 7.03979C7.12805 6.95154 7.24774 6.90196 7.37255 6.90196C7.66377 6.90196 7.94306 7.01764 8.14898 7.22357C8.3549 7.42949 8.47059 7.70878 8.47059 8V11.1373C8.47059 11.1789 8.48712 11.2188 8.51653 11.2482C8.54595 11.2776 8.58585 11.2941 8.62745 11.2941C8.75226 11.2941 8.87196 11.3437 8.96021 11.4319C9.04846 11.5202 9.09804 11.6399 9.09804 11.7647ZM7.68628 5.33333C7.8414 5.33333 7.99304 5.28733 8.12202 5.20115C8.251 5.11497 8.35153 4.99248 8.41089 4.84916C8.47025 4.70585 8.48578 4.54815 8.45552 4.39601C8.42526 4.24386 8.35056 4.10411 8.24087 3.99443C8.13118 3.88474 7.99143 3.81004 7.83929 3.77978C7.68715 3.74951 7.52945 3.76504 7.38613 3.82441C7.24282 3.88377 7.12032 3.9843 7.03414 4.11328C6.94796 4.24226 6.90196 4.3939 6.90196 4.54902C6.90196 4.75703 6.9846 4.95652 7.13168 5.10361C7.27877 5.2507 7.47826 5.33333 7.68628 5.33333ZM16 8C16 9.58225 15.5308 11.129 14.6518 12.4446C13.7727 13.7602 12.5233 14.7855 11.0615 15.391C9.59966 15.9965 7.99113 16.155 6.43928 15.8463C4.88743 15.5376 3.46197 14.7757 2.34315 13.6569C1.22433 12.538 0.462403 11.1126 0.153721 9.56072C-0.15496 8.00887 0.00346614 6.40034 0.608967 4.93853C1.21447 3.47672 2.23985 2.22729 3.55544 1.34824C4.87103 0.469192 6.41775 0 8 0C10.121 0.00249086 12.1544 0.846145 13.6541 2.3459C15.1539 3.84565 15.9975 5.87903 16 8ZM15.0588 8C15.0588 6.6039 14.6448 5.23914 13.8692 4.07833C13.0936 2.91751 11.9911 2.01276 10.7013 1.4785C9.41146 0.944232 7.99217 0.804443 6.62289 1.07681C5.25362 1.34918 3.99585 2.02146 3.00866 3.00866C2.02147 3.99585 1.34918 5.25361 1.07681 6.62289C0.804447 7.99217 0.944235 9.41146 1.4785 10.7013C2.01277 11.9911 2.91751 13.0936 4.07833 13.8692C5.23915 14.6448 6.6039 15.0588 8 15.0588C9.87148 15.0567 11.6657 14.3124 12.989 12.989C14.3124 11.6657 15.0567 9.87148 15.0588 8Z"
          fill="currentColor"/>
</svg>
