<svg width="16" height="16" viewBox="0 0 16 16" fill="none" xmlns="http://www.w3.org/2000/svg">
<circle cx="8" cy="8" r="8" fill="#1CABE2" fill-opacity="0.2"/>
<path d="M8.96022 12.0974C9.04848 12.0092 9.09806 11.8895 9.09806 11.7646C9.09806 11.6398 9.04848 11.5201 8.96022 11.4319C8.87197 11.3436 8.75228 11.2941 8.62747 11.2941C8.58586 11.2941 8.54597 11.2775 8.51655 11.2481C8.48713 11.2187 8.4706 11.1788 8.4706 11.1372V7.99994C8.4706 7.70872 8.35492 7.42943 8.149 7.22351C7.94307 7.01759 7.66378 6.9019 7.37257 6.9019C7.24776 6.9019 7.12806 6.95148 7.03981 7.03974C6.95156 7.12799 6.90198 7.24768 6.90198 7.37249C6.90198 7.4973 6.95156 7.617 7.03981 7.70525C7.12806 7.7935 7.24776 7.84308 7.37257 7.84308C7.41417 7.84308 7.45407 7.85961 7.48348 7.88902C7.5129 7.91844 7.52943 7.95834 7.52943 7.99994V11.1372C7.52943 11.4284 7.64511 11.7077 7.85104 11.9136C8.05696 12.1195 8.33625 12.2352 8.62747 12.2352C8.75228 12.2352 8.87197 12.1857 8.96022 12.0974Z" fill="#1CABE2"/>
<path d="M8.12203 5.2011C7.99305 5.28728 7.84141 5.33328 7.68629 5.33328C7.47828 5.33328 7.27878 5.25064 7.1317 5.10356C6.98461 4.95647 6.90198 4.75698 6.90198 4.54896C6.90198 4.39384 6.94798 4.2422 7.03416 4.11322C7.12034 3.98424 7.24283 3.88371 7.38615 3.82435C7.52946 3.76499 7.68716 3.74946 7.8393 3.77972C7.99144 3.80998 8.1312 3.88468 8.24089 3.99437C8.35057 4.10406 8.42527 4.24381 8.45553 4.39595C8.4858 4.54809 8.47027 4.70579 8.4109 4.84911C8.35154 4.99242 8.25101 5.11491 8.12203 5.2011Z" fill="#1CABE2"/>
</svg>
