<svg width="28" height="28" viewBox="0 0 28 28" fill="none" xmlns="http://www.w3.org/2000/svg">
<path d="M19.9706 8H7.02941C6.75639 8 6.49456 8.11148 6.30151 8.30992C6.10846 8.50836 6 8.7775 6 9.05814V19.9419C6 20.2225 6.10846 20.4916 6.30151 20.6901C6.49456 20.8885 6.75639 21 7.02941 21H19.9706C20.2436 21 20.5054 20.8885 20.6985 20.6901C20.8915 20.4916 21 20.2225 21 19.9419V9.05814C21 8.7775 20.8915 8.50836 20.6985 8.30992C20.5054 8.11148 20.2436 8 19.9706 8ZM6.88235 19.9419V16.1628H8.20588C8.32289 16.1628 8.4351 16.115 8.51784 16.03C8.60058 15.9449 8.64706 15.8296 8.64706 15.7093C8.64706 15.589 8.60058 15.4737 8.51784 15.3886C8.4351 15.3036 8.32289 15.2558 8.20588 15.2558H6.88235V13.7442H8.20588C8.32289 13.7442 8.4351 13.6964 8.51784 13.6114C8.60058 13.5263 8.64706 13.411 8.64706 13.2907C8.64706 13.1704 8.60058 13.0551 8.51784 12.97C8.4351 12.885 8.32289 12.8372 8.20588 12.8372H6.88235V11.3256H8.20588C8.32289 11.3256 8.4351 11.2778 8.51784 11.1928C8.60058 11.1077 8.64706 10.9924 8.64706 10.8721C8.64706 10.7518 8.60058 10.6365 8.51784 10.5514C8.4351 10.4664 8.32289 10.4186 8.20588 10.4186H6.88235V9.05814C6.88235 9.01805 6.89785 8.9796 6.92543 8.95125C6.953 8.9229 6.99041 8.90698 7.02941 8.90698H10.1176V20.093H7.02941C6.99041 20.093 6.953 20.0771 6.92543 20.0487C6.89785 20.0204 6.88235 19.982 6.88235 19.9419ZM20.1176 19.9419C20.1176 19.982 20.1022 20.0204 20.0746 20.0487C20.047 20.0771 20.0096 20.093 19.9706 20.093H11V8.90698H19.9706C20.0096 8.90698 20.047 8.9229 20.0746 8.95125C20.1022 8.9796 20.1176 9.01805 20.1176 9.05814V19.9419Z" fill="currentColor"/>
<rect opacity="0.5" x="0.5" y="0.5" width="27" height="27" stroke="currentColor"/>
</svg>
