<?xml version="1.0" encoding="UTF-8" standalone="no"?>
<svg
        version="1.1"
        fill="none"
        viewBox="0 0 28 28"
        height="28"
        width="28"
        xmlns="http://www.w3.org/2000/svg">
    <path
            fill="currentColor"
            stroke-width="0.125"
            d="M 6.882,16.1 H 6.82 v 0.063 3.779 c 0,0.056 0.022,0.11 0.061,0.15 0.039,0.041 0.092,0.064 0.148,0.064 h 3.089 0.062 V 20.093 8.907 8.844 H 10.118 7.029 C 6.973,8.844 6.92,8.867 6.881,8.908 6.842,8.948 6.82,9.002 6.82,9.058 v 1.361 0.062 h 0.062 1.324 c 0.1,0 0.196,0.041 0.267,0.114 0.071,0.073 0.112,0.173 0.112,0.277 0,0.104 -0.041,0.204 -0.112,0.277 -0.071,0.073 -0.167,0.114 -0.267,0.114 H 6.882 6.82 v 0.063 1.511 0.063 h 0.062 1.324 c 0.1,0 0.196,0.04 0.267,0.114 0.071,0.073 0.112,0.172 0.112,0.277 0,0.104 -0.041,0.204 -0.112,0.277 -0.071,0.073 -0.167,0.114 -0.267,0.114 H 6.882 6.82 v 0.062 1.512 0.062 h 0.062 1.324 c 0.1,0 0.196,0.041 0.267,0.114 0.071,0.073 0.112,0.173 0.112,0.277 0,0.105 -0.041,0.204 -0.112,0.277 C 8.402,16.06 8.306,16.1 8.206,16.1 Z m 4.056,3.993 v 0.063 H 11 19.971 c 0.056,0 0.109,-0.023 0.148,-0.064 l -0.044,-0.043 0.044,0.043 c 0.039,-0.04 0.061,-0.094 0.061,-0.15 V 9.058 c 0,-0.056 -0.022,-0.11 -0.061,-0.15 C 20.08,8.867 20.027,8.844 19.971,8.844 H 11 10.938 V 8.907 Z M 7.029,8.062 h 12.942 c 0.255,0 0.501,0.105 0.683,0.292 0.181,0.186 0.284,0.44 0.284,0.704 v 10.884 c 0,0.264 -0.103,0.518 -0.284,0.704 -0.182,0.187 -0.428,0.292 -0.683,0.292 H 7.029 C 6.774,20.938 6.528,20.833 6.346,20.646 6.165,20.46 6.062,20.206 6.062,19.942 V 9.058 C 6.062,8.794 6.165,8.54 6.346,8.354 6.528,8.167 6.774,8.062 7.029,8.062 Z"/>
    <rect
            stroke="currentColor"
            height="27"
            width="27"
            y="0.5"
            x="0.5"/>
    <rect
            fill="currentColor"
            style="fill-opacity:0.2"
            width="9.9878836"
            height="11.799845"
            x="10.504913"
            y="8.4483032"/>
</svg>
