<svg width="12" height="11" viewBox="0 0 12 11" fill="none"
     xmlns="http://www.w3.org/2000/svg">
    <path
            d="M11.8641 1.41822C11.8218 1.38836 11.7725 1.36763 11.7201 1.35758C11.6676 1.34753 11.6132 1.34844 11.5612 1.36023L7.92353 2.18266L4.27647 0.533558C4.20106 0.499542 4.11467 0.49105 4.03294 0.50962L0.268235 1.36077C0.191814 1.37785 0.123903 1.41755 0.0753 1.47356C0.0266969 1.52956 0.000192105 1.59865 5.79011e-10 1.66984V9.33016C-3.07295e-06 9.37869 0.0122301 9.42658 0.0357694 9.47019C0.0593087 9.5138 0.0935341 9.55198 0.135843 9.58183C0.178152 9.61168 0.227431 9.63242 0.279932 9.64246C0.332434 9.65249 0.386775 9.65157 0.438823 9.63977L4.07647 8.81734L7.72353 10.4664C7.79894 10.5005 7.88533 10.5089 7.96706 10.4904L11.7318 9.63923C11.8082 9.62215 11.8761 9.58245 11.9247 9.52644C11.9733 9.47044 11.9998 9.40135 12 9.33016V1.66984C12 1.62132 11.9877 1.57343 11.9642 1.52983C11.9407 1.48623 11.9064 1.44806 11.8641 1.41822ZM0.705882 1.9204L3.76471 1.22884V8.23005L0.705882 8.92161V1.9204ZM11.2941 9.0812L8.23529 9.77276V2.76995L11.2941 2.07839V9.0812Z"
            fill="currentColor"/>
</svg>