<svg width="12" height="10" viewBox="0 0 12 10" fill="none"
     xmlns="http://www.w3.org/2000/svg">
    <path d="M11.8641 0.918219C11.8218 0.888365 11.7725 0.867626 11.7201 0.857578C11.6676 0.847531 11.6132 0.848439 11.5612 0.860235L7.92353 1.68266L4.27647 0.0335585C4.20106 -0.000458249 4.11467 -0.00894959 4.03294 0.00961994L0.268235 0.860767C0.191814 0.877853 0.123903 0.917553 0.0753 0.973556C0.0266969 1.02956 0.000192105 1.09865 5.79011e-10 1.16984V8.83016C-3.07295e-06 8.87869 0.0122301 8.92658 0.0357694 8.97019C0.0593087 9.0138 0.0935341 9.05198 0.135843 9.08183C0.178152 9.11168 0.227431 9.13242 0.279932 9.14246C0.332434 9.15249 0.386775 9.15158 0.438823 9.13977L4.07647 8.31735L7.72353 9.96644C7.79894 10.0005 7.88533 10.009 7.96706 9.99038L11.7318 9.13923C11.8082 9.12215 11.8761 9.08245 11.9247 9.02644C11.9733 8.97044 11.9998 8.90135 12 8.83016V1.16984C12 1.12132 11.9877 1.07343 11.9642 1.02983C11.9407 0.986233 11.9064 0.948061 11.8641 0.918219ZM4.47059 0.835232L7.52941 2.21835V9.16477L4.47059 7.78165V0.835232ZM0.705882 1.4204L3.76471 0.728839V7.73005L0.705882 8.42161V1.4204ZM11.2941 8.5812L8.23529 9.27276V2.26995L11.2941 1.57839V8.5812Z"
          fill="currentColor"/>
</svg>