<svg width="15" height="15" viewBox="0 0 15 15" fill="none" xmlns="http://www.w3.org/2000/svg">
<path d="M14.7204 3.87208L11.1283 0.279612C11.0396 0.190965 10.9344 0.120645 10.8186 0.0726692C10.7028 0.0246931 10.5787 0 10.4533 0C10.328 0 10.2039 0.0246931 10.0881 0.0726692C9.97226 0.120645 9.86704 0.190965 9.77841 0.279612L0.279586 9.77793C0.190947 9.86657 0.120634 9.9718 0.0726624 10.0876C0.0246908 10.2034 0 10.3276 0 10.4529C0 10.5783 0.0246908 10.7024 0.0726624 10.8182C0.120634 10.9341 0.190947 11.0393 0.279586 11.1279L3.87173 14.7204C3.96036 14.809 4.06558 14.8794 4.18138 14.9273C4.29719 14.9753 4.42131 15 4.54666 15C4.67201 15 4.79613 14.9753 4.91193 14.9273C5.02774 14.8794 5.13296 14.809 5.22159 14.7204L14.7204 5.22207C14.8091 5.13343 14.8794 5.0282 14.9273 4.91238C14.9753 4.79656 15 4.67243 15 4.54707C15 4.42171 14.9753 4.29758 14.9273 4.18176C14.8794 4.06595 14.8091 3.96072 14.7204 3.87208ZM14.1416 4.64321L4.64347 14.1415C4.6308 14.1542 4.61577 14.1643 4.59921 14.1711C4.58266 14.178 4.56492 14.1815 4.547 14.1815C4.52908 14.1815 4.51134 14.178 4.49479 14.1711C4.47823 14.1643 4.46319 14.1542 4.45053 14.1415L0.858392 10.5497C0.845715 10.5371 0.835657 10.522 0.828796 10.5055C0.821934 10.4889 0.818402 10.4712 0.818402 10.4533C0.818402 10.4353 0.821934 10.4176 0.828796 10.401C0.835657 10.3845 0.845715 10.3695 0.858392 10.3568L3.1368 8.07818L5.02934 9.97089C5.06679 10.0111 5.11195 10.0433 5.16212 10.0657C5.2123 10.088 5.26646 10.1001 5.32139 10.101C5.37631 10.102 5.43087 10.0919 5.4818 10.0713C5.53273 10.0507 5.579 10.0201 5.61785 9.98127C5.65669 9.94242 5.68731 9.89615 5.70788 9.84521C5.72846 9.79427 5.73856 9.73971 5.73759 9.68479C5.73662 9.62986 5.7246 9.57569 5.70224 9.52551C5.67988 9.47532 5.64765 9.43016 5.60746 9.39271L3.71492 7.5L5.3184 5.89638L7.21094 7.78909C7.28848 7.86135 7.39104 7.90069 7.49701 7.89882C7.60298 7.89695 7.70409 7.85402 7.77904 7.77906C7.85398 7.70411 7.89691 7.60299 7.89878 7.49701C7.90065 7.39103 7.86132 7.28846 7.78906 7.21091L5.89652 5.3182L7.5 3.71526L9.39254 5.60729C9.47008 5.67955 9.57264 5.71889 9.67861 5.71702C9.78458 5.71515 9.88569 5.67222 9.96064 5.59727C10.0356 5.52231 10.0785 5.4212 10.0804 5.31521C10.0823 5.20923 10.0429 5.10666 9.97066 5.02911L8.0788 3.1364L10.3565 0.85847C10.3692 0.845792 10.3842 0.835734 10.4008 0.828871C10.4173 0.822009 10.4351 0.818477 10.453 0.818477C10.4709 0.818477 10.4887 0.822009 10.5052 0.828871C10.5218 0.835734 10.5368 0.845792 10.5495 0.85847L14.1416 4.45026C14.1543 4.46292 14.1643 4.47796 14.1712 4.49451C14.1781 4.51107 14.1816 4.52881 14.1816 4.54673C14.1816 4.56465 14.1781 4.5824 14.1712 4.59895C14.1643 4.6155 14.1543 4.63054 14.1416 4.64321Z" fill="currentColor"/>
<path d="M10.5 0.5L0.5 10.5L4.5 14.5L14.5 4.5L10.5 0.5Z" fill="currentColor" fill-opacity="0.2"/>
</svg>
