<svg width="12" height="11" viewBox="0 0 12 11" fill="none"
     xmlns="http://www.w3.org/2000/svg">
    <path
            d="M11.1765 2.36047H6.14647L4.50529 0.738373C4.42893 0.662638 4.33816 0.602585 4.23822 0.561674C4.13827 0.520763 4.03112 0.499803 3.92294 0.500001H0.823529C0.605116 0.500001 0.395648 0.585757 0.241206 0.738403C0.0867645 0.891049 0 1.09808 0 1.31395V9.72209C0.000155799 9.92836 0.0831279 10.1261 0.230696 10.272C0.378265 10.4178 0.578366 10.4998 0.787059 10.5H11.2288C11.4333 10.4998 11.6294 10.4195 11.774 10.2766C11.9185 10.1337 11.9998 9.93989 12 9.73779V3.17442C12 2.95855 11.9132 2.75151 11.7588 2.59887C11.6044 2.44622 11.3949 2.36047 11.1765 2.36047ZM0.823529 1.19768H3.92294C3.95409 1.19781 3.98392 1.21014 4.00588 1.23198L5.14765 2.36047H0.705882V1.31395C0.705882 1.28312 0.718277 1.25354 0.74034 1.23173C0.762403 1.20993 0.792327 1.19768 0.823529 1.19768Z"
            fill="currentColor"/>
</svg>