<svg width="16" height="17" viewBox="0 0 16 17" fill="none"
     xmlns="http://www.w3.org/2000/svg">
    <path d="M0.187991 7.75C0.287991 7.83 0.41399 7.85997 0.53699 7.83997C0.66099 7.81997 0.771988 7.76003 0.846988 7.66003C1.24199 7.13003 1.75301 6.70003 2.34101 6.41003C2.92901 6.12003 3.57799 5.95996 4.23499 5.95996C4.89299 5.95996 5.54101 6.12003 6.13001 6.41003C6.71801 6.70003 7.22903 7.13003 7.62403 7.66003C7.69903 7.76003 7.81002 7.81997 7.93402 7.83997C8.05702 7.85997 8.18302 7.82 8.28302 7.75C8.31802 7.72 8.34998 7.69003 8.37598 7.66003C8.76998 7.13003 9.282 6.70003 9.87 6.41003C10.458 6.12003 11.107 5.95996 11.764 5.95996C12.422 5.95996 13.07 6.12003 13.658 6.41003C14.247 6.70003 14.758 7.13003 15.153 7.66003C15.228 7.76003 15.339 7.81997 15.463 7.83997C15.587 7.85997 15.712 7.83 15.812 7.75C15.912 7.68 15.978 7.55994 15.995 7.43994C16.013 7.31994 15.981 7.18997 15.906 7.08997C15.313 6.29997 14.505 5.68998 13.577 5.34998C14.071 4.96998 14.435 4.43998 14.616 3.84998C14.797 3.24998 14.787 2.61002 14.587 2.02002C14.387 1.43002 14.007 0.920059 13.501 0.560059C12.995 0.200059 12.387 0 11.764 0C11.141 0 10.534 0.200059 10.028 0.560059C9.52102 0.920059 9.14202 1.43002 8.94202 2.02002C8.74202 2.61002 8.73103 3.24998 8.91303 3.84998C9.09403 4.43998 9.45703 4.96998 9.95203 5.34998C9.21003 5.61998 8.542 6.07001 8 6.64001C7.459 6.07001 6.79098 5.61998 6.04798 5.34998C6.54298 4.96998 6.90598 4.43998 7.08698 3.84998C7.26798 3.24998 7.25799 2.61002 7.05799 2.02002C6.85799 1.43002 6.47799 0.920059 5.97199 0.560059C5.46599 0.200059 4.85799 0 4.23499 0C3.61199 0 3.00503 0.200059 2.49903 0.560059C1.99303 0.920059 1.61303 1.43002 1.41303 2.02002C1.21303 2.61002 1.20298 3.24998 1.38398 3.84998C1.56498 4.43998 1.92798 4.96998 2.42298 5.34998C1.49498 5.68998 0.685997 6.29997 0.0939972 7.08997C0.0189972 7.18997 -0.012992 7.31994 0.00500795 7.43994C0.022008 7.55994 0.0879913 7.68 0.187991 7.75ZM11.765 0.939941C12.168 0.939941 12.563 1.06004 12.898 1.29004C13.233 1.51004 13.495 1.82995 13.649 2.19995C13.804 2.56995 13.844 2.98 13.765 3.38C13.687 3.78 13.492 4.14004 13.207 4.42004C12.922 4.71004 12.559 4.89998 12.163 4.97998C11.767 5.05998 11.357 5.02 10.985 4.87C10.612 4.71 10.294 4.45 10.07 4.12C9.84501 3.78 9.72602 3.38998 9.72602 2.97998C9.72602 2.43998 9.941 1.92004 10.323 1.54004C10.706 1.16004 11.224 0.939941 11.765 0.939941ZM4.23499 0.939941C4.63899 0.939941 5.03298 1.06004 5.36798 1.29004C5.70398 1.51004 5.96502 1.82995 6.11902 2.19995C6.27402 2.56995 6.31403 2.98 6.23603 3.38C6.15703 3.78 5.96301 4.14004 5.677 4.42004C5.392 4.71004 5.029 4.89998 4.633 4.97998C4.238 5.05998 3.82802 5.02 3.45502 4.87C3.08202 4.71 2.76398 4.45 2.53998 4.12C2.31598 3.78 2.19599 3.38998 2.19599 2.97998C2.19599 2.43998 2.41103 1.92004 2.79303 1.54004C3.17603 1.16004 3.69499 0.939941 4.23499 0.939941ZM13.578 13.5C14.072 13.12 14.436 12.6 14.617 12C14.798 11.41 14.788 10.7701 14.588 10.1801C14.388 9.59005 14.008 9.07996 13.502 8.70996C12.995 8.34996 12.388 8.16003 11.765 8.16003C11.142 8.16003 10.535 8.34996 10.029 8.70996C9.52199 9.07996 9.14202 9.59005 8.94202 10.1801C8.74202 10.7701 8.73203 11.41 8.91303 12C9.09503 12.6 9.45803 13.12 9.95203 13.5C9.21003 13.78 8.542 14.22 8 14.8C7.459 14.22 6.79098 13.78 6.04798 13.5C6.54298 13.12 6.90598 12.6 7.08698 12C7.26798 11.41 7.25799 10.7701 7.05799 10.1801C6.85799 9.59005 6.47799 9.07996 5.97199 8.70996C5.46599 8.34996 4.85799 8.16003 4.23499 8.16003C3.61199 8.16003 3.00503 8.34996 2.49903 8.70996C1.99303 9.07996 1.61303 9.59005 1.41303 10.1801C1.21303 10.7701 1.20298 11.41 1.38398 12C1.56498 12.6 1.92798 13.12 2.42298 13.5C1.49498 13.85 0.685997 14.45 0.0939972 15.25C0.0569972 15.3 0.0300177 15.35 0.0150177 15.41C-0.000982282 15.47 -0.00399205 15.53 0.00500795 15.6C0.013008 15.66 0.0339821 15.72 0.0659821 15.77C0.0969821 15.82 0.138991 15.87 0.187991 15.91C0.237991 15.94 0.294007 15.97 0.354007 15.99C0.414007 16 0.47599 16 0.53699 16C0.59799 15.99 0.657025 15.9701 0.710025 15.9301C0.764025 15.9001 0.809988 15.8601 0.846988 15.8101C1.24199 15.2901 1.75301 14.8599 2.34101 14.5699C2.92901 14.2699 3.57799 14.12 4.23499 14.12C4.89299 14.12 5.54101 14.2699 6.13001 14.5699C6.71801 14.8599 7.22903 15.2901 7.62403 15.8101C7.69903 15.9101 7.81002 15.98 7.93402 15.99C8.05702 16.01 8.18302 15.98 8.28302 15.91C8.31802 15.88 8.34998 15.8501 8.37598 15.8101C8.76998 15.2901 9.282 14.8599 9.87 14.5699C10.458 14.2699 11.107 14.12 11.764 14.12C12.422 14.12 13.07 14.2699 13.658 14.5699C14.247 14.8599 14.758 15.2901 15.153 15.8101C15.228 15.9101 15.339 15.98 15.463 16C15.587 16.01 15.712 15.98 15.812 15.91C15.912 15.83 15.978 15.72 15.995 15.6C16.013 15.47 15.981 15.35 15.906 15.25C15.313 14.45 14.505 13.85 13.578 13.5ZM4.23499 9.09998C4.63899 9.09998 5.03298 9.21994 5.36798 9.43994C5.70398 9.66994 5.96502 9.98999 6.11902 10.36C6.27402 10.73 6.31403 11.14 6.23603 11.54C6.15703 11.93 5.96301 12.29 5.677 12.58C5.392 12.86 5.029 13.06 4.633 13.14C4.238 13.22 3.82802 13.18 3.45502 13.02C3.08202 12.87 2.76398 12.61 2.53998 12.27C2.31598 11.94 2.19599 11.54 2.19599 11.14C2.19599 10.6 2.41103 10.08 2.79303 9.69995C3.17603 9.30995 3.69499 9.09998 4.23499 9.09998ZM11.765 9.09998C12.168 9.09998 12.563 9.21994 12.898 9.43994C13.233 9.66994 13.495 9.98999 13.649 10.36C13.804 10.73 13.844 11.14 13.765 11.54C13.687 11.93 13.492 12.29 13.207 12.58C12.922 12.86 12.559 13.06 12.163 13.14C11.767 13.22 11.357 13.18 10.985 13.02C10.612 12.87 10.294 12.61 10.07 12.27C9.84501 11.94 9.72602 11.54 9.72602 11.14C9.72602 10.6 9.941 10.08 10.323 9.69995C10.706 9.30995 11.224 9.09998 11.765 9.09998Z"
          fill="currentColor"/>
</svg>
