<svg xmlns="http://www.w3.org/2000/svg" width="16" height="17" viewBox="0 0 4.233 4.498"><path d="M4.102.076c.079.04.115.148.078.237-.012.03-.026.049-.133.172a55.434 58.924 0 0 0-.206.24 61.485 65.355 0 0 1-.207.242 49.05 52.139 0 0 0-.093.108 37.797 40.153 0 0 1-.2.232l-.121.142a14.467 15.377 0 0 0-.078.091l-.082.096a41.735 44.362 0 0 0-.088.102l-.083.096c-.088.102-.103.12-.1.125.002.001.202.003.444.003.495 0 .458-.003.505.045.037.037.048.068.048.131 0 .045-.001.058-.011.08a.182.193 0 0 1-.069.078l-.023.015-.651.002-.65.001-.03-.014c-.044-.023-.07-.058-.086-.116a33.388 33.388 0 0 1 0-1.522.182.182 0 0 1 .052-.089c.074-.071.181-.044.231.057l.012.025.002.52c.001.286.004.521.006.523.002.002.017-.012.033-.032l.07-.081.078-.09.088-.103a17.434 18.532 0 0 0 .087-.102 16.644 17.692 0 0 1 .085-.098 17.777 18.896 0 0 0 .08-.095 35.216 37.412 0 0 1 .286-.331 65.206 69.272 0 0 1 .29-.34A13.364 14.205 0 0 1 3.75.328l.126-.146a.457.457 0 0 1 .107-.106.14.149 0 0 1 .12 0zM.138 4.486a.152.162 0 0 1-.081-.22c.013-.028.027-.044.138-.158l.215-.223a64.215 68.219 0 0 1 .395-.408l.123-.128a28.495 30.289 0 0 1 .128-.13 14.09 14.976 0 0 0 .08-.085 20.92 22.223 0 0 1 .177-.182 20.32 21.6 0 0 1 .087-.09c.09-.093.107-.11.103-.114a16.644 17.682 0 0 0-.46-.003c-.517 0-.478.002-.527-.042-.038-.034-.05-.062-.05-.12 0-.042.003-.054.013-.074a.177.188 0 0 1 .07-.072l.025-.014.677-.002h.677l.028.011a.15.16 0 0 1 .091.108c.012.037.012 1.367 0 1.405a.15.16 0 0 1-.054.082c-.077.065-.189.04-.24-.054l-.012-.022-.003-.48a17.44 17.44 0 0 0-.006-.482c-.002-.002-.017.011-.035.03l-.071.073a189.196 201.108 0 0 0-.081.085l-.092.094a16.99 18.06 0 0 0-.09.094 16.193 17.211 0 0 1-.09.092 17.323 18.414 0 0 0-.083.086 33.319 35.417 0 0 1-.17.175 45.413 48.272 0 0 0-.126.131 64.456 68.474 0 0 1-.39.403 53.347 56.706 0 0 0-.131.135.485.485 0 0 1-.111.098.163.173 0 0 1-.124 0z" fill="currentColor"/></svg>
