<svg xmlns="http://www.w3.org/2000/svg" width="28" height="28" viewBox="0 0 7.408 7.408"><path d="M7.163.157c.136.064.198.24.135.385-.021.05-.045.08-.23.28a95.821 95.876 0 0 0-.357.392 106.28 106.34 0 0 1-.358.393 84.787 84.836 0 0 0-.16.175 65.334 65.334 0 0 1-.345.378l-.21.231a25.007 25.021 0 0 0-.135.148l-.142.156a72.142 72.183 0 0 0-.152.166l-.143.157c-.152.165-.178.196-.173.202.004.003.349.006.767.006.857 0 .793-.005.874.073.064.06.083.11.083.213 0 .074-.003.094-.02.13a.314.314 0 0 1-.118.127l-.04.025-1.126.002-1.125.003-.049-.023c-.077-.037-.123-.094-.15-.189-.02-.065-.02-2.412 0-2.477.018-.061.043-.1.09-.144.128-.116.313-.072.4.093l.02.04.004.846c.002.465.007.848.01.851.003.003.029-.02.057-.052l.12-.132.135-.147.152-.167a30.135 30.153 0 0 0 .151-.166 28.77 28.787 0 0 1 .147-.16 30.728 30.746 0 0 0 .139-.153 60.873 60.873 0 0 1 .493-.54A112.713 112.713 0 0 1 6.41.725a23.1 23.113 0 0 1 .143-.157l.218-.237c.108-.118.147-.154.185-.173a.242.242 0 0 1 .206 0zM.31 7.331a.263.263 0 0 1-.14-.355c.023-.047.047-.073.239-.259l.372-.362a111 111 0 0 1 .683-.664l.213-.208a49.255 49.283 0 0 1 .22-.213 24.354 24.368 0 0 0 .14-.137 36.16 36.16 0 0 1 .305-.297 35.125 35.146 0 0 1 .15-.145c.157-.152.185-.18.179-.186a28.77 28.77 0 0 0-.797-.006c-.892 0-.825.004-.91-.067-.066-.056-.086-.101-.086-.197 0-.068.004-.087.022-.12a.306.306 0 0 1 .122-.117l.042-.023 1.17-.002 1.17-.002.05.02a.26.26 0 0 1 .157.175c.02.06.02 2.225 0 2.286a.26.26 0 0 1-.094.133c-.133.106-.326.066-.415-.087l-.021-.036-.005-.78c-.002-.43-.007-.784-.01-.786-.003-.003-.03.019-.06.048l-.124.121a327.038 327.227 0 0 0-.14.137l-.158.153a29.369 29.386 0 0 0-.157.153 27.99 28.005 0 0 1-.153.15 29.944 29.962 0 0 0-.145.14 57.594 57.627 0 0 1-.293.285 78.499 78.544 0 0 0-.219.213 111.416 111.416 0 0 1-.673.655 92.214 92.267 0 0 0-.227.22c-.112.108-.153.142-.192.16a.281.281 0 0 1-.214 0z" fill="currentColor"/></svg>
