<svg
        width="10" height="9" viewBox="0 0 10 9" fill="none"
        xmlns="http://www.w3.org/2000/svg">
    <path id="path2" fill="currentColor"
          d="m 4.4682099,4.8636301 c 0,-0.09 -0.03362,-0.17632 -0.09348,-0.23996 C 4.3148799,4.5600301 4.2337,4.5242801 4.14905,4.5242801 H 0.31915785 c -0.084646,0 -0.165825,0.03575 -0.2256789,0.09939 -0.059854,0.06364 -0.093479,0.14996 -0.093479,0.23996 0,0.09 0.033625,0.17631 0.093479,0.23995 0.059854,0.06364 0.1410329,0.09939 0.2256789,0.09939 H 4.1490499 c 0.08465,0 0.16583,-0.03575 0.2256799,-0.09939 0.05986,-0.06364 0.09348,-0.14995 0.09348,-0.23995 z M 0.31915775,8.1439441 H 7.5533998 c 0.08465,0 0.1658299,0.035752 0.22568,0.099391 0.05986,0.063639 0.09348,0.1499519 0.09348,0.2399519 0,0.089999 -0.03362,0.176313 -0.09348,0.2399518 -0.05985,0.063639 -0.14103,0.099391 -0.22568,0.099391 H 0.31915775 c -0.084646,0 -0.165825,-0.035752 -0.2256789,-0.099391 C 0.03362485,8.6595998 -1.5e-7,8.573286 -1.5e-7,8.483287 c 0,-0.09 0.033625,-0.176313 0.093479,-0.2399519 0.059854,-0.063639 0.1410329,-0.099391 0.2256789,-0.099391 z M 3.2979698,1.5833101 H 0.31915775 c -0.084646,0 -0.165825,-0.03575 -0.2256789,-0.09939 -0.059854,-0.06364 -0.093479,-0.14996 -0.093479,-0.23996 0,-0.08999 0.033625,-0.17631 0.093479,-0.23995 0.059854,-0.0636399 0.1410329,-0.0993899 0.2256789,-0.0993899 H 3.2979698 c 0.08464,0 0.16582,0.03575 0.2256701,0.0993899 0.05986,0.06364 0.09348,0.14996 0.09348,0.23995 0,0.09 -0.03362,0.17632 -0.09348,0.23996 -0.05985,0.06364 -0.1410301,0.09939 -0.2256701,0.09939 z m 6.60869,1.25783 c -0.05984,0.06355 -0.14096,0.09924 -0.22554,0.09924 -0.08457,0 -0.16569,-0.03569 -0.22554,-0.09924 l -1.5830201,-1.68258 v 4.60998 c 0,0.09 -0.03362,0.17631 -0.09348,0.23995 -0.05985,0.06364 -0.14103,0.09939 -0.22568,0.09939 -0.08464,0 -0.16582,-0.03575 -0.2256799,-0.09939 -0.05985,-0.06364 -0.09347,-0.1499499 -0.09347,-0.23995 v -4.60998 l -1.5830299,1.68258 c -0.0605,0.05994 -0.1405201,0.09257 -0.2232001,0.09102 -0.08269,-0.00155 -0.16158,-0.03716 -0.2200499,-0.09934 -0.05848,-0.06217 -0.09197,-0.14605 -0.09343,-0.23396 -0.00146,-0.08791 0.02923,-0.173 0.08561,-0.23733 l 2.12772,-2.26227995 c 0.05984,-0.06355 0.14096,-0.09925 0.22553,-0.09925 0.08458,0 0.1657,0.0357 0.22554,0.09925 L 9.9066598,2.3615301 c 0.05977,0.06363 0.09334,0.14988 0.09334,0.23981 0,0.08992 -0.03357,0.17617 -0.09334,0.2398 z"/>
</svg>