<svg
        width="10" height="9" viewBox="0 0 10 9" fill="none"
        xmlns="http://www.w3.org/2000/svg">
    <path
            d="M4.46821 3.959C4.46821 4.049 4.43459 4.13532 4.37473 4.19896C4.31488 4.2626 4.2337 4.29835 4.14905 4.29835H0.319158C0.234512 4.29835 0.153333 4.2626 0.0934791 4.19896C0.0336254 4.13532 0 4.049 0 3.959C0 3.869 0.0336254 3.78269 0.0934791 3.71905C0.153333 3.65541 0.234512 3.61966 0.319158 3.61966H4.14905C4.2337 3.61966 4.31488 3.65541 4.37473 3.71905C4.43459 3.78269 4.46821 3.869 4.46821 3.959ZM0.319158 0.678686H7.5534C7.63805 0.678686 7.71923 0.642934 7.77908 0.579295C7.83894 0.515656 7.87256 0.429343 7.87256 0.339343C7.87256 0.249344 7.83894 0.16303 7.77908 0.0993913C7.71923 0.0357521 7.63805 0 7.5534 0H0.319158C0.234512 0 0.153333 0.0357521 0.0934791 0.0993913C0.0336254 0.16303 0 0.249344 0 0.339343C0 0.429343 0.0336254 0.515656 0.0934791 0.579295C0.153333 0.642934 0.234512 0.678686 0.319158 0.678686ZM3.29797 7.23932H0.319158C0.234512 7.23932 0.153333 7.27507 0.0934791 7.33871C0.0336254 7.40235 0 7.48867 0 7.57867C0 7.66866 0.0336254 7.75498 0.0934791 7.81862C0.153333 7.88226 0.234512 7.91801 0.319158 7.91801H3.29797C3.38261 7.91801 3.46379 7.88226 3.52364 7.81862C3.5835 7.75498 3.61712 7.66866 3.61712 7.57867C3.61712 7.48867 3.5835 7.40235 3.52364 7.33871C3.46379 7.27507 3.38261 7.23932 3.29797 7.23932ZM9.90666 5.98149C9.84682 5.91794 9.7657 5.88225 9.68112 5.88225C9.59655 5.88225 9.51543 5.91794 9.45558 5.98149L7.87256 7.66407V3.05409C7.87256 2.96409 7.83894 2.87778 7.77908 2.81414C7.71923 2.7505 7.63805 2.71475 7.5534 2.71475C7.46876 2.71475 7.38758 2.7505 7.32772 2.81414C7.26787 2.87778 7.23425 2.96409 7.23425 3.05409V7.66407L5.65122 5.98149C5.59072 5.92155 5.5107 5.88892 5.42802 5.89047C5.34533 5.89202 5.26644 5.92763 5.20797 5.98981C5.14949 6.05198 5.116 6.13586 5.11454 6.22377C5.11308 6.31168 5.14377 6.39677 5.20015 6.4611L7.32787 8.72338C7.38771 8.78693 7.46883 8.82263 7.5534 8.82263C7.63798 8.82263 7.7191 8.78693 7.77894 8.72338L9.90666 6.4611C9.96643 6.39747 10 6.31122 10 6.22129C10 6.13137 9.96643 6.04512 9.90666 5.98149Z"
            fill="currentColor"/>
</svg>