<svg width="15" height="15" viewBox="0 0 15 15" fill="none" xmlns="http://www.w3.org/2000/svg">
<path d="M14.9508 5.65025C14.8945 5.46462 14.786 5.30073 14.6393 5.17964C14.4925 5.05856 14.3142 4.98583 14.1274 4.97081L10.074 4.60702C10.0495 4.60452 10.0261 4.59517 10.0062 4.57996C9.98644 4.56476 9.97097 4.54427 9.96149 4.52067L8.3779 0.602524C8.30456 0.423784 8.18223 0.271371 8.02611 0.164244C7.87 0.0571158 7.687 0 7.49987 0C7.31274 0 7.12974 0.0571158 6.97363 0.164244C6.81751 0.271371 6.69518 0.423784 6.62184 0.602524L5.03825 4.52067C5.02876 4.54427 5.0133 4.56476 4.99349 4.57996C4.97369 4.59517 4.95028 4.60452 4.92577 4.60702L0.872387 4.97081C0.685496 4.98583 0.507207 5.05856 0.360454 5.17964C0.213701 5.30073 0.105196 5.46462 0.048894 5.65025C-0.0107345 5.83615 -0.0159431 6.03622 0.0339267 6.22518C0.0837966 6.41415 0.186506 6.58352 0.329072 6.71189L3.40422 9.49692C3.42305 9.51428 3.43703 9.53658 3.44471 9.56149C3.45239 9.58639 3.45347 9.61298 3.44785 9.63847L2.52346 13.7796C2.48037 13.9702 2.49267 14.1699 2.55879 14.3533C2.62492 14.5367 2.74191 14.6956 2.89499 14.8101C3.0457 14.9255 3.22628 14.9914 3.41341 14.9992C3.60055 15.007 3.78565 14.9564 3.94481 14.8539L7.42897 12.6599C7.44945 12.6467 7.47306 12.6398 7.49714 12.6398C7.52123 12.6398 7.54483 12.6467 7.56531 12.6599L11.0495 14.8539C11.2103 14.9562 11.3967 15.0066 11.5851 14.999C11.7735 14.9913 11.9555 14.9259 12.1081 14.811C12.2608 14.696 12.3772 14.5367 12.4427 14.3532C12.5082 14.1696 12.5199 13.97 12.4763 13.7796L11.5546 9.63705C11.549 9.61157 11.5501 9.58498 11.5578 9.56007C11.5654 9.53517 11.5794 9.51287 11.5982 9.4955L14.6734 6.71048C14.8152 6.58188 14.9172 6.4126 14.9666 6.22394C15.016 6.03529 15.0105 5.83568 14.9508 5.65025Z" fill="currentColor"/>
</svg>
