<svg width="15" height="15" viewBox="0 0 15 15" fill="none" xmlns="http://www.w3.org/2000/svg">
<path d="M14.9508 5.65025C14.8945 5.46462 14.786 5.30073 14.6393 5.17964C14.4925 5.05856 14.3142 4.98583 14.1274 4.97081L10.074 4.60702C10.0495 4.60452 10.0261 4.59517 10.0062 4.57996C9.98644 4.56476 9.97097 4.54427 9.96149 4.52067L8.3779 0.602524C8.30456 0.423784 8.18223 0.271371 8.02611 0.164244C7.87 0.0571158 7.687 0 7.49987 0C7.31274 0 7.12974 0.0571158 6.97363 0.164244C6.81751 0.271371 6.69518 0.423784 6.62184 0.602524L5.03825 4.52067C5.02876 4.54427 5.0133 4.56476 4.99349 4.57996C4.97369 4.59517 4.95028 4.60452 4.92577 4.60702L0.872387 4.97081C0.685496 4.98583 0.507207 5.05856 0.360454 5.17964C0.213701 5.30073 0.105196 5.46462 0.048894 5.65025C-0.0107345 5.83615 -0.0159431 6.03622 0.0339267 6.22518C0.0837966 6.41415 0.186506 6.58352 0.329072 6.71189L3.40422 9.49692C3.42305 9.51428 3.43703 9.53658 3.44471 9.56149C3.45239 9.58639 3.45347 9.61298 3.44785 9.63847L2.52346 13.7796C2.48037 13.9702 2.49267 14.1699 2.55879 14.3533C2.62492 14.5367 2.74191 14.6956 2.89499 14.8101C3.0457 14.9255 3.22628 14.9914 3.41341 14.9992C3.60055 15.007 3.78565 14.9564 3.94481 14.8539L7.42897 12.6599C7.44945 12.6467 7.47306 12.6398 7.49714 12.6398C7.52123 12.6398 7.54483 12.6467 7.56531 12.6599L11.0495 14.8539C11.2103 14.9562 11.3967 15.0066 11.5851 14.999C11.7735 14.9913 11.9555 14.9259 12.1081 14.811C12.2608 14.696 12.3772 14.5367 12.4427 14.3532C12.5082 14.1696 12.5199 13.97 12.4763 13.7796L11.5546 9.63705C11.549 9.61157 11.5501 9.58498 11.5578 9.56007C11.5654 9.53517 11.5794 9.51287 11.5982 9.4955L14.6734 6.71048C14.8152 6.58188 14.9172 6.4126 14.9666 6.22394C15.016 6.03529 15.0105 5.83568 14.9508 5.65025ZM14.1328 6.06925L11.0577 8.85427C10.9266 8.97264 10.8292 9.12589 10.7759 9.2975C10.7225 9.46912 10.7153 9.65259 10.755 9.82815L11.6766 13.9707C11.6835 13.9985 11.682 14.0278 11.6723 14.0547C11.6627 14.0817 11.6454 14.1049 11.6228 14.1214C11.6023 14.1384 11.5771 14.1483 11.5509 14.1494C11.5246 14.1505 11.4987 14.143 11.4769 14.1278L7.99274 11.9337C7.84419 11.84 7.6737 11.7904 7.49987 11.7904C7.32604 11.7904 7.15555 11.84 7.007 11.9337L3.52283 14.1278C3.50103 14.143 3.47512 14.1505 3.44889 14.1494C3.42265 14.1483 3.39745 14.1384 3.37695 14.1214C3.3543 14.1049 3.33703 14.0817 3.32741 14.0547C3.31779 14.0278 3.31628 13.9985 3.3231 13.9707L4.24475 9.82815C4.28443 9.65259 4.27722 9.46912 4.22388 9.2975C4.17054 9.12589 4.07311 8.97264 3.94208 8.85427L0.866933 6.06925C0.845902 6.05068 0.830796 6.02592 0.823615 5.99824C0.816433 5.97056 0.817513 5.94127 0.826713 5.91425C0.833598 5.88733 0.848524 5.86338 0.869348 5.84583C0.890171 5.82828 0.915818 5.81804 0.942602 5.81658L4.99667 5.45279C5.17023 5.43744 5.33643 5.37306 5.47726 5.26664C5.6181 5.16022 5.72819 5.01582 5.79562 4.84907L7.37921 0.930924C7.39022 0.906606 7.40767 0.886044 7.42952 0.871641C7.45137 0.857239 7.47671 0.84959 7.5026 0.84959C7.52848 0.84959 7.55382 0.857239 7.57567 0.871641C7.59752 0.886044 7.61497 0.906606 7.62598 0.930924L9.20412 4.84907C9.27133 5.01542 9.38101 5.15956 9.52133 5.26595C9.66164 5.37234 9.82727 5.43694 10.0003 5.45279L14.0544 5.81658C14.0812 5.81804 14.1068 5.82828 14.1277 5.84583C14.1485 5.86338 14.1634 5.88733 14.1703 5.91425C14.1798 5.941 14.1813 5.97011 14.1746 5.99777C14.1679 6.02542 14.1534 6.05034 14.1328 6.06925Z" fill="currentColor"/>
</svg>
