<svg width="12" height="12" viewBox="0 0 12 12" fill="none"
     xmlns="http://www.w3.org/2000/svg">
    <path opacity="0.5"
          d="M9.71277 2H2.81915C2.33668 2 1.87397 2.18885 1.53282 2.525C1.19166 2.86115 1 3.31706 1 3.79245V7.18868C1 7.4639 1.11096 7.72786 1.30847 7.92247C1.50598 8.11708 1.77387 8.22642 2.05319 8.22642H4.35106C4.36462 8.22633 4.37804 8.22908 4.39044 8.23448C4.40283 8.23988 4.41393 8.24782 4.42298 8.25776C4.43203 8.26771 4.43883 8.27943 4.44294 8.29216C4.44705 8.30489 4.44837 8.31834 4.44681 8.3316L4.06766 10.5377C4.0652 10.5533 4.06392 10.5691 4.06383 10.5849C4.06383 10.9602 4.21514 11.3201 4.48447 11.5855C4.75381 11.8509 5.1191 12 5.5 12C5.8809 12 6.24619 11.8509 6.51553 11.5855C6.78486 11.3201 6.93617 10.9602 6.93617 10.5849C6.93608 10.5691 6.9348 10.5533 6.93234 10.5377L6.55319 8.3316C6.55163 8.31834 6.55295 8.30489 6.55706 8.29216C6.56117 8.27943 6.56797 8.26771 6.57702 8.25776C6.58607 8.24782 6.59717 8.23988 6.60956 8.23448C6.62196 8.22908 6.63538 8.22633 6.64894 8.22642H8.94681C9.22613 8.22642 9.49402 8.11708 9.69153 7.92247C9.88904 7.72786 10 7.4639 10 7.18868V2.28302C10 2.20796 9.96974 2.13597 9.91587 2.08289C9.86201 2.02982 9.78895 2 9.71277 2ZM2.81915 2.56604H7.89362V4.54717C7.89362 4.62223 7.92388 4.69422 7.97775 4.74729C8.03161 4.80037 8.10467 4.83019 8.18085 4.83019C8.25703 4.83019 8.33009 4.80037 8.38396 4.74729C8.43782 4.69422 8.46809 4.62223 8.46809 4.54717V2.56604H9.42553V5.77358H1.57447V3.79245C1.57447 3.46719 1.7056 3.15524 1.93903 2.92525C2.17245 2.69525 2.48904 2.56604 2.81915 2.56604ZM8.94681 7.66038H6.64894C6.55282 7.66035 6.45782 7.6807 6.37038 7.72004C6.28295 7.75938 6.20512 7.81679 6.14219 7.88837C6.07925 7.95996 6.03268 8.04404 6.00563 8.13492C5.97859 8.22581 5.97169 8.32136 5.98543 8.41509V8.42217L6.3617 10.6071C6.3617 10.8323 6.27092 11.0482 6.10932 11.2074C5.94771 11.3667 5.72854 11.4561 5.5 11.4561C5.27146 11.4561 5.05229 11.3667 4.89068 11.2074C4.72908 11.0482 4.6383 10.8323 4.6383 10.6071L5.01266 8.42123V8.41415C5.02622 8.32064 5.01926 8.22536 4.99225 8.13472C4.96525 8.04409 4.91883 7.96022 4.85612 7.88877C4.79341 7.81733 4.71587 7.75997 4.62875 7.72057C4.54162 7.68117 4.44693 7.66064 4.35106 7.66038H2.05319C1.92623 7.66038 1.80446 7.61068 1.71468 7.52222C1.6249 7.43376 1.57447 7.31378 1.57447 7.18868V6.33962H9.42553V7.18868C9.42553 7.31378 9.3751 7.43376 9.28532 7.52222C9.19554 7.61068 9.07377 7.66038 8.94681 7.66038Z"
          fill="currentColor"/>
</svg>