<svg width="12" height="12" viewBox="0 0 12 12" fill="none"
     xmlns="http://www.w3.org/2000/svg">
    <path
            d="M9.625 2H2.875C2.37772 2 1.90081 2.19511 1.54917 2.54239C1.19754 2.88968 1 3.36071 1 3.85185V7.18518C1 7.47987 1.11853 7.76249 1.3295 7.97086C1.54048 8.17923 1.82663 8.2963 2.125 8.2963H4.375L4.00516 10.4569C4.00179 10.4773 4.00007 10.4979 4 10.5185C4 10.9114 4.15804 11.2883 4.43934 11.5661C4.72064 11.8439 5.10218 12 5.5 12C5.89782 12 6.27936 11.8439 6.56066 11.5661C6.84196 11.2883 7 10.9114 7 10.5185C6.99993 10.4979 6.99821 10.4773 6.99484 10.4569L6.625 8.2963H8.875C9.17337 8.2963 9.45952 8.17923 9.6705 7.97086C9.88147 7.76249 10 7.47987 10 7.18518V2.37037C10 2.27214 9.96049 2.17794 9.89017 2.10848C9.81984 2.03902 9.72446 2 9.625 2ZM2.875 2.74074H7.75V4.59259C7.75 4.69082 7.78951 4.78503 7.85983 4.85448C7.93016 4.92394 8.02554 4.96296 8.125 4.96296C8.22446 4.96296 8.31984 4.92394 8.39017 4.85448C8.46049 4.78503 8.5 4.69082 8.5 4.59259V2.74074H9.25V6.07407H1.75V3.85185C1.75 3.55717 1.86853 3.27455 2.0795 3.06618C2.29048 2.8578 2.57663 2.74074 2.875 2.74074Z"
            fill="currentColor"/>
</svg>