<svg width="19" height="18" viewBox="0 0 19 18" fill="none" xmlns="http://www.w3.org/2000/svg">
<path d="M9.5 2L3 5.5H2.5V12.5L9.5 16.5L16.5 13V5.5L9.5 2Z" fill="currentColor" fill-opacity="0.2"/>
<path d="M16.53 4.77426L9.99875 1.38731C9.84604 1.30741 9.67445 1.2655 9.5 1.2655C9.32555 1.2655 9.15396 1.30741 9.00125 1.38731L2.47 4.77497C2.30657 4.85968 2.17019 4.98446 2.07514 5.13624C1.98008 5.28802 1.92984 5.46122 1.92969 5.6377V12.3624C1.92984 12.5389 1.98008 12.7121 2.07514 12.8638C2.17019 13.0156 2.30657 13.1404 2.47 13.2251L9.00125 16.6128C9.154 16.6925 9.32558 16.7344 9.5 16.7344C9.67442 16.7344 9.846 16.6925 9.99875 16.6128L16.53 13.2251C16.6934 13.1404 16.8298 13.0156 16.9249 12.8638C17.0199 12.7121 17.0702 12.5389 17.0703 12.3624V5.6377C17.0703 5.4611 17.0201 5.28775 16.9251 5.13584C16.83 4.98392 16.6935 4.85903 16.53 4.77426ZM9.42578 2.127C9.44763 2.11567 9.47213 2.10974 9.49703 2.10974C9.52193 2.10974 9.54644 2.11567 9.56828 2.127L15.7722 5.34379L9.5 8.59504L3.22777 5.34379L9.42578 2.127ZM2.89453 12.4854C2.87177 12.473 2.8529 12.455 2.83986 12.4334C2.82682 12.4118 2.82008 12.3873 2.82031 12.3624V6.09332L9.05469 9.3277V15.6797L2.89453 12.4854ZM16.0995 12.4854L9.94531 15.6797V9.32629L16.1797 6.09192V12.361C16.1802 12.3861 16.1736 12.4109 16.1605 12.4328C16.1475 12.4547 16.1285 12.4729 16.1055 12.4854H16.0995Z" fill="currentColor"/>
</svg>
