<?xml version="1.0" encoding="UTF-8" standalone="no"?>
<svg
        id="svg369"
        version="1.1"
        fill="none"
        viewBox="0 0 28 28"
        height="28"
        width="28"
        xmlns="http://www.w3.org/2000/svg">
    <ellipse
            fill="currentColor"
            style="fill-opacity:0;stroke-width:0.976568"
            cx="14.078125"
            cy="13.875"
            rx="6.453125"
            ry="6.59375"/>
    <rect
            stroke="currentColor"
            height="27"
            width="27"
            y="0.5"
            x="0.5"/>
    <path
            stroke-width="0.125"
            fill="currentColor"
            d="m 14,20.239 v 0 c 1.654,-0.002 3.24,-0.66 4.41,-1.829 1.169,-1.17 1.827,-2.756 1.829,-4.41 v 0 c 0,-1.234 -0.366,-2.44 -1.051,-3.466 -0.686,-1.026 -1.66,-1.826 -2.8,-2.298 -1.14,-0.472 -2.395,-0.596 -3.605,-0.355 -1.21,0.241 -2.322,0.835 -3.195,1.707 -0.872,0.873 -1.466,1.985 -1.707,3.195 -0.241,1.21 -0.117,2.465 0.355,3.605 0.472,1.14 1.272,2.114 2.298,2.8 1.026,0.685 2.232,1.051 3.466,1.051 z m 0.349,-6.651 v 0.063 h 0.063 3.431 c 0.093,0 0.182,0.037 0.247,0.102 0.066,0.066 0.102,0.154 0.102,0.247 0,0.093 -0.036,0.181 -0.102,0.247 -0.065,0.065 -0.154,0.102 -0.247,0.102 H 14 c -0.093,0 -0.181,-0.037 -0.247,-0.102 C 13.688,14.181 13.651,14.093 13.651,14 v -3.843 c 0,-0.093 0.037,-0.182 0.102,-0.247 0.066,-0.066 0.154,-0.102 0.247,-0.102 0.093,0 0.181,0.036 0.247,0.102 0.065,0.065 0.102,0.154 0.102,0.247 z M 10.146,8.232 C 11.287,7.469 12.628,7.063 14,7.062 c 1.839,0.003 3.603,0.734 4.903,2.035 1.301,1.3 2.032,3.064 2.034,4.903 0,1.372 -0.406,2.713 -1.169,3.854 -0.762,1.141 -1.845,2.03 -3.113,2.555 -1.268,0.525 -2.663,0.663 -4.008,0.395 C 11.301,20.537 10.065,19.876 9.094,18.906 8.124,17.935 7.463,16.699 7.196,15.353 6.928,14.008 7.066,12.613 7.591,11.345 8.116,10.077 9.005,8.994 10.146,8.232 Z"/>
    <path
            stroke-width="0.125"
            fill="currentColor"
            d="m 14,20.239 v 0 c 1.654,-0.002 3.24,-0.66 4.41,-1.829 1.169,-1.17 1.827,-2.756 1.829,-4.41 v 0 c 0,-1.234 -0.366,-2.44 -1.051,-3.466 -0.686,-1.026 -1.66,-1.826 -2.8,-2.298 -1.14,-0.472 -2.395,-0.596 -3.605,-0.355 -1.21,0.241 -2.322,0.835 -3.195,1.707 -0.872,0.873 -1.466,1.985 -1.707,3.195 -0.241,1.21 -0.117,2.465 0.355,3.605 0.472,1.14 1.272,2.114 2.298,2.8 1.026,0.685 2.232,1.051 3.466,1.051 z m 0.349,-6.651 v 0.063 h 0.063 3.431 c 0.093,0 0.182,0.037 0.247,0.102 0.066,0.066 0.102,0.154 0.102,0.247 0,0.093 -0.036,0.181 -0.102,0.247 -0.065,0.065 -0.154,0.102 -0.247,0.102 H 14 c -0.093,0 -0.181,-0.037 -0.247,-0.102 C 13.688,14.181 13.651,14.093 13.651,14 v -3.843 c 0,-0.093 0.037,-0.182 0.102,-0.247 0.066,-0.066 0.154,-0.102 0.247,-0.102 0.093,0 0.181,0.036 0.247,0.102 0.065,0.065 0.102,0.154 0.102,0.247 z M 10.146,8.232 C 11.287,7.469 12.628,7.063 14,7.062 c 1.839,0.003 3.603,0.734 4.903,2.035 1.301,1.3 2.032,3.064 2.034,4.903 0,1.372 -0.406,2.713 -1.169,3.854 -0.762,1.141 -1.845,2.03 -3.113,2.555 -1.268,0.525 -2.663,0.663 -4.008,0.395 C 11.301,20.537 10.065,19.876 9.094,18.906 8.124,17.935 7.463,16.699 7.196,15.353 6.928,14.008 7.066,12.613 7.591,11.345 8.116,10.077 9.005,8.994 10.146,8.232 Z"/>
</svg>
