<svg width="28" height="28" viewBox="0 0 28 28" fill="none" xmlns="http://www.w3.org/2000/svg">
<rect x="0.5" y="0.5" width="27" height="27" stroke="currentColor"/>
<path d="M14 20.239H14.0001C15.6542 20.2371 17.24 19.5792 18.4096 18.4096C19.5792 17.24 20.2371 15.6542 20.239 14.0001V14C20.239 12.766 19.8731 11.5598 19.1875 10.5338C18.502 9.50782 17.5276 8.70816 16.3876 8.23594C15.2475 7.76373 13.9931 7.64018 12.7828 7.88091C11.5726 8.12164 10.4609 8.71585 9.58838 9.58838C8.71585 10.4609 8.12164 11.5726 7.88091 12.7828C7.64018 13.9931 7.76373 15.2475 8.23595 16.3875C8.70816 17.5276 9.50782 18.502 10.5338 19.1875C11.5598 19.8731 12.766 20.239 14 20.239ZM14.3493 13.5882V13.6507H14.4118H17.8431C17.9358 13.6507 18.0246 13.6875 18.0901 13.753C18.1556 13.8185 18.1924 13.9074 18.1924 14C18.1924 14.0926 18.1556 14.1815 18.0901 14.247C18.0246 14.3125 17.9358 14.3493 17.8431 14.3493H14C13.9074 14.3493 13.8185 14.3125 13.753 14.247C13.6875 14.1815 13.6507 14.0926 13.6507 14V10.1569C13.6507 10.0642 13.6875 9.97539 13.753 9.90989C13.8185 9.84439 13.9074 9.8076 14 9.8076C14.0926 9.8076 14.1815 9.84439 14.247 9.90989C14.3125 9.97539 14.3493 10.0642 14.3493 10.1569V13.5882ZM10.1457 8.23168C11.2866 7.46938 12.6279 7.06251 14 7.0625C15.8392 7.06467 17.6026 7.79628 18.9031 9.09685C20.2037 10.3974 20.9353 12.1608 20.9375 14.0001C20.9375 15.3722 20.5306 16.7134 19.7683 17.8543C19.006 18.9951 17.9225 19.8843 16.6549 20.4094C15.3872 20.9345 13.9923 21.0719 12.6466 20.8042C11.3008 20.5365 10.0647 19.8758 9.09445 18.9056C8.12422 17.9353 7.46349 16.6992 7.19581 15.3534C6.92812 14.0077 7.06551 12.6128 7.59059 11.3451C8.11567 10.0775 9.00487 8.99398 10.1457 8.23168Z" fill="currentColor" stroke="currentColor" stroke-width="0.125"/>
</svg>
