<svg width="11" height="11" viewBox="0 0 11 11" fill="none"
     xmlns="http://www.w3.org/2000/svg">
    <path d="M1.375 3.4375C1.375 3.34633 1.41122 3.2589 1.47568 3.19443C1.54015 3.12997 1.62758 3.09375 1.71875 3.09375H3.09375C3.18492 3.09375 3.27235 3.12997 3.33682 3.19443C3.40128 3.2589 3.4375 3.34633 3.4375 3.4375C3.4375 3.52867 3.40128 3.6161 3.33682 3.68057C3.27235 3.74503 3.18492 3.78125 3.09375 3.78125H1.71875C1.62758 3.78125 1.54015 3.74503 1.47568 3.68057C1.41122 3.6161 1.375 3.52867 1.375 3.4375ZM9.28125 7.21875H7.5625V6.53125C7.5625 6.44008 7.52628 6.35265 7.46182 6.28818C7.39735 6.22372 7.30992 6.1875 7.21875 6.1875C7.12758 6.1875 7.04015 6.22372 6.97568 6.28818C6.91122 6.35265 6.875 6.44008 6.875 6.53125V8.59375C6.875 8.68492 6.91122 8.77235 6.97568 8.83682C7.04015 8.90128 7.12758 8.9375 7.21875 8.9375C7.30992 8.9375 7.39735 8.90128 7.46182 8.83682C7.52628 8.77235 7.5625 8.68492 7.5625 8.59375V7.90625H9.28125C9.37242 7.90625 9.45985 7.87003 9.52432 7.80557C9.58878 7.7411 9.625 7.65367 9.625 7.5625C9.625 7.47133 9.58878 7.3839 9.52432 7.31943C9.45985 7.25497 9.37242 7.21875 9.28125 7.21875ZM5.84375 7.21875H1.71875C1.62758 7.21875 1.54015 7.25497 1.47568 7.31943C1.41122 7.3839 1.375 7.47133 1.375 7.5625C1.375 7.65367 1.41122 7.7411 1.47568 7.80557C1.54015 7.87003 1.62758 7.90625 1.71875 7.90625H5.84375C5.93492 7.90625 6.02235 7.87003 6.08682 7.80557C6.15128 7.7411 6.1875 7.65367 6.1875 7.5625C6.1875 7.47133 6.15128 7.3839 6.08682 7.31943C6.02235 7.25497 5.93492 7.21875 5.84375 7.21875ZM4.46875 4.8125C4.55992 4.8125 4.64735 4.77628 4.71182 4.71182C4.77628 4.64735 4.8125 4.55992 4.8125 4.46875V3.78125H9.28125C9.37242 3.78125 9.45985 3.74503 9.52432 3.68057C9.58878 3.6161 9.625 3.52867 9.625 3.4375C9.625 3.34633 9.58878 3.2589 9.52432 3.19443C9.45985 3.12997 9.37242 3.09375 9.28125 3.09375H4.8125V2.40625C4.8125 2.31508 4.77628 2.22765 4.71182 2.16318C4.64735 2.09872 4.55992 2.0625 4.46875 2.0625C4.37758 2.0625 4.29015 2.09872 4.22568 2.16318C4.16122 2.22765 4.125 2.31508 4.125 2.40625V4.46875C4.125 4.55992 4.16122 4.64735 4.22568 4.71182C4.29015 4.77628 4.37758 4.8125 4.46875 4.8125Z"
          fill="currentColor"/>
</svg>
