<svg width="16" height="12" viewBox="0 0 16 12" fill="none"
     xmlns="http://www.w3.org/2000/svg">
    <path d="M2.87722 0.102496C2.80275 0.0372822 2.70511 0.000722764 2.60351 1.06026e-05C2.50191 -0.000701558 2.4037 0.0344851 2.32821 0.0986476C2.25273 0.16281 2.20542 0.251302 2.19561 0.346714C2.18579 0.442126 2.21418 0.537549 2.27518 0.614208L3.69079 2.08538C1.16331 3.48619 0.081936 5.73133 0.0351557 5.83176C0.0119774 5.88088 0 5.93406 0 5.98783C0 6.0416 0.0119774 6.09478 0.0351557 6.1439C0.0582069 6.19315 0.622281 7.37329 1.88196 8.56174C3.05079 9.66321 5.05895 10.9764 8 10.9764C9.22932 10.9834 10.4455 10.7379 11.5641 10.2568L13.1235 11.8744C13.1961 11.9498 13.2975 11.9948 13.4053 11.9996C13.5131 12.0044 13.6185 11.9686 13.6984 11.9C13.7782 11.8315 13.8259 11.7358 13.831 11.6341C13.8361 11.5324 13.7981 11.4329 13.7255 11.3576L2.87722 0.102496ZM6.17354 4.66441L9.22442 7.83191C8.76637 8.10195 8.22235 8.21166 7.68732 8.14189C7.15228 8.07212 6.6602 7.82731 6.29696 7.45018C5.93371 7.07305 5.72237 6.58755 5.69981 6.07841C5.67725 5.56927 5.84492 5.06883 6.17354 4.66441ZM8 10.2088C5.87252 10.2088 4.01487 9.47835 2.4779 8.03852C1.83345 7.43453 1.28822 6.74313 0.860251 5.98719C1.1511 5.46268 2.22298 3.73693 4.25012 2.66682L5.61963 4.08746C5.13204 4.63257 4.87093 5.32623 4.88489 6.03939C4.89884 6.75254 5.1869 7.43664 5.69548 7.96441C6.20406 8.49217 6.89852 8.82767 7.64968 8.90849C8.40084 8.98931 9.15754 8.80994 9.77901 8.40375L10.9865 9.65745C10.0398 10.027 9.02448 10.2145 8 10.2088ZM8.4339 3.85079C8.32791 3.83171 8.23429 3.77368 8.17364 3.68947C8.11299 3.60526 8.09028 3.50177 8.11051 3.40176C8.13074 3.30176 8.19225 3.21343 8.2815 3.15621C8.37076 3.09899 8.48045 3.07757 8.58645 3.09665C9.24885 3.21806 9.85192 3.53817 10.3058 4.00926C10.7597 4.48035 11.04 5.07721 11.1051 5.71087C11.1101 5.76106 11.1045 5.81167 11.0887 5.85983C11.0729 5.90798 11.0472 5.95273 11.0131 5.99152C10.979 6.03031 10.9371 6.06237 10.8898 6.08588C10.8426 6.1094 10.7909 6.1239 10.7377 6.12855H10.6997C10.598 6.12895 10.4998 6.09338 10.4245 6.02885C10.3492 5.96432 10.3022 5.87552 10.2929 5.77995C10.2446 5.31239 10.0375 4.87206 9.70255 4.52447C9.3676 4.17687 8.92265 3.9406 8.4339 3.85079ZM15.9648 6.1439C15.937 6.20275 15.2618 7.61508 13.737 8.90203C13.6975 8.93701 13.6509 8.96417 13.6001 8.98192C13.5492 8.99968 13.4951 9.00767 13.441 9.00542C13.3868 9.00318 13.3337 8.99074 13.2847 8.96885C13.2357 8.94696 13.1919 8.91604 13.1557 8.87793C13.1196 8.83982 13.0919 8.79528 13.0742 8.74692C13.0566 8.69856 13.0493 8.64736 13.053 8.59633C13.0566 8.5453 13.071 8.49547 13.0953 8.44977C13.1197 8.40407 13.1534 8.36341 13.1946 8.33019C13.9828 7.66212 14.6411 6.86918 15.1397 5.98719C14.7117 5.2313 14.1665 4.53991 13.5221 3.93586C11.9851 2.49603 10.1275 1.76556 8 1.76556C7.5528 1.76506 7.10632 1.79929 6.66507 1.8679C6.61194 1.87735 6.55735 1.87671 6.50448 1.86603C6.45162 1.85534 6.40154 1.83482 6.35718 1.80566C6.31282 1.7765 6.27507 1.73929 6.24613 1.69621C6.21718 1.65313 6.19764 1.60503 6.18862 1.55474C6.17961 1.50444 6.18131 1.45296 6.19364 1.40329C6.20596 1.35363 6.22865 1.30678 6.26039 1.26548C6.29212 1.22419 6.33226 1.18927 6.37847 1.16279C6.42467 1.1363 6.47601 1.11876 6.52947 1.11121C7.01548 1.03509 7.50735 0.997223 8 0.997993C10.9411 0.997993 12.9492 2.31181 14.118 3.41328C15.3777 4.60173 15.9418 5.77995 15.9648 5.83176C15.988 5.88088 16 5.93406 16 5.98783C16 6.0416 15.988 6.09478 15.9648 6.1439Z"
          fill="currentColor"/>
</svg>
