<?xml version="1.0" encoding="UTF-8" standalone="no"?>
<svg
   inkscape:version="1.3.2 (091e20e, 2023-11-25, custom)"
   sodipodi:docname="UI Kit - Icons - 20240122.svg"
   id="svg369"
   version="1.1"
   fill="none"
   viewBox="0 0 13 12.5"
   height="12.5"
   width="13"
   xmlns:inkscape="http://www.inkscape.org/namespaces/inkscape"
   xmlns:sodipodi="http://sodipodi.sourceforge.net/DTD/sodipodi-0.dtd"
   xmlns="http://www.w3.org/2000/svg"
   xmlns:svg="http://www.w3.org/2000/svg"
   xmlns:rdf="http://www.w3.org/1999/02/22-rdf-syntax-ns#"
   xmlns:cc="http://creativecommons.org/ns#"
   xmlns:dc="http://purl.org/dc/elements/1.1/">
  <metadata
     id="metadata375">
    <rdf:RDF>
      <cc:Work
         rdf:about="">
        <dc:format>image/svg+xml</dc:format>
        <dc:type
           rdf:resource="http://purl.org/dc/dcmitype/StillImage" />
      </cc:Work>
    </rdf:RDF>
  </metadata>
  <defs
     id="defs373">
    <clipPath
       clipPathUnits="userSpaceOnUse"
       id="clipPath105">
      <g
         id="g107"
         style="fill:#f9f9f9">
        <path
           style="color:#000000;fill:#f9f9f9;-inkscape-stroke:none"
           d="m 255.95228,806.98836 7.50797,-4.69325"
           id="path106" />
        <path
           style="color:#000000;fill:#f9f9f9;-inkscape-stroke:none"
           d="m 263.3418,802.10352 -7.50782,4.69335 0.23829,0.38282 7.50781,-4.69336 z"
           id="path107" />
      </g>
    </clipPath>
    <clipPath
       clipPathUnits="userSpaceOnUse"
       id="clipPath115">
      <g
         id="g118">
        <path
           style="color:#000000;fill:#ffffff;-inkscape-stroke:none"
           d="m 255.78125,790.3125 8.3763,5.04327"
           id="path116" />
        <path
           style="color:#000000;fill:#ffffff;-inkscape-stroke:none"
           d="m 255.89648,790.11914 -0.23046,0.38672 8.375,5.04297 0.23242,-0.38672 z"
           id="path118" />
      </g>
    </clipPath>
  </defs>
  <sodipodi:namedview
     inkscape:current-layer="svg369"
     inkscape:window-maximized="1"
     inkscape:window-y="-9"
     inkscape:window-x="-9"
     inkscape:cy="789.3125"
     inkscape:cx="246.6875"
     inkscape:zoom="8"
     showgrid="false"
     id="namedview371"
     inkscape:window-height="991"
     inkscape:window-width="1920"
     inkscape:pageshadow="2"
     inkscape:pageopacity="0"
     guidetolerance="10"
     gridtolerance="10"
     objecttolerance="10"
     borderopacity="1"
     bordercolor="#666666"
     pagecolor="#ffffff"
     inkscape:showpageshadow="2"
     inkscape:pagecheckerboard="0"
     inkscape:deskcolor="#d1d1d1" />
  <mask
     fill="#ffffff"
     id="path-52-inside-1_217_509">
    <path
       id="path108"
       d="m 323.976,304.2 h -0.705 v -10.8 c 0,-0.106 -0.045,-0.208 -0.124,-0.283 -0.08,-0.075 -0.188,-0.117 -0.3,-0.117 h -3.953 c -0.112,0 -0.22,0.042 -0.299,0.117 -0.08,0.075 -0.124,0.177 -0.124,0.283 v 2.8 h -3.53 c -0.112,0 -0.22,0.042 -0.299,0.117 -0.08,0.075 -0.124,0.177 -0.124,0.283 v 2.8 h -2.965 c -0.112,0 -0.22,0.042 -0.3,0.117 -0.079,0.075 -0.124,0.177 -0.124,0.283 v 4.4 h -0.705 c -0.113,0 -0.221,0.042 -0.3,0.117 -0.079,0.075 -0.124,0.177 -0.124,0.283 0,0.106 0.045,0.208 0.124,0.283 0.079,0.075 0.187,0.117 0.3,0.117 h 13.552 c 0.113,0 0.221,-0.042 0.3,-0.117 0.079,-0.075 0.124,-0.177 0.124,-0.283 0,-0.106 -0.045,-0.208 -0.124,-0.283 -0.079,-0.075 -0.187,-0.117 -0.3,-0.117 z m -4.658,-10.4 h 3.106 v 10.4 h -3.106 z m -3.953,3.2 h 3.106 v 7.2 h -3.106 z m -3.389,3.2 h 2.542 v 4 h -2.542 z" />
  </mask>
  <path
     id="path45"
     fill="#1cabe2"
     d="m 0.167,6.679 6.168,3.555 c 0.05,0.03 0.107,0.045 0.165,0.045 0.058,0 0.115,-0.015 0.165,-0.045 L 12.833,6.679 C 12.884,6.65 12.926,6.608 12.955,6.557 12.985,6.506 13,6.448 13,6.389 13,6.331 12.985,6.273 12.955,6.222 12.926,6.171 12.884,6.129 12.833,6.1 L 6.665,2.545 C 6.615,2.515 6.558,2.5 6.5,2.5 6.442,2.5 6.385,2.515 6.335,2.545 L 0.167,6.1 C 0.116,6.129 0.074,6.171 0.045,6.222 0.016,6.273 0,6.331 0,6.389 0,6.448 0.016,6.506 0.045,6.557 0.074,6.608 0.116,6.65 0.167,6.679 Z"
     sodipodi:nodetypes="ccscccscccsccsssc"
     style="fill:#19aae1;fill-opacity:0.2"
     inkscape:export-filename="zonal_not-active.png"
     inkscape:export-xdpi="300"
     inkscape:export-ydpi="300" />
  <path
     id="path47"
     fill="#1cabe2"
     d="m 0.167,6.679 6.168,3.555 c 0.05,0.03 0.107,0.045 0.165,0.045 0.058,0 0.115,-0.015 0.165,-0.045 L 12.833,6.679 C 12.884,6.65 12.926,6.608 12.955,6.557 12.985,6.506 13,6.448 13,6.389 13,6.331 12.985,6.273 12.955,6.222 12.926,6.171 12.884,6.129 12.833,6.1 L 6.665,2.545 C 6.615,2.515 6.558,2.5 6.5,2.5 6.442,2.5 6.385,2.515 6.335,2.545 L 0.167,6.1 C 0.116,6.129 0.074,6.171 0.045,6.222 0.016,6.273 0,6.331 0,6.389 0,6.448 0.016,6.506 0.045,6.557 0.074,6.608 0.116,6.65 0.167,6.679 Z M 6.5,3.218 12.002,6.389 6.5,9.561 0.998,6.389 Z m 6.455,5.227 c 0.022,0.038 0.036,0.08 0.041,0.123 0.006,0.044 0.003,0.088 -0.009,0.13 C 12.976,8.74 12.956,8.78 12.93,8.815 12.903,8.849 12.87,8.878 12.832,8.9 L 6.664,12.455 C 6.614,12.485 6.557,12.5 6.499,12.5 6.441,12.5 6.384,12.485 6.334,12.455 L 0.166,8.9 C 0.09,8.856 0.034,8.783 0.011,8.697 -0.011,8.612 0,8.521 0.044,8.444 0.088,8.367 0.16,8.311 0.245,8.288 0.33,8.265 0.42,8.277 0.496,8.321 l 6.003,3.461 6.003,-3.461 c 0.038,-0.022 0.079,-0.036 0.123,-0.042 0.043,-0.01 0.087,0 0.129,0.01 0.042,0.011 0.082,0.031 0.116,0.058 0.035,0.027 0.064,0.061 0.085,0.099 z" />
  <path
     d="m 12.955,8.445 c 0.022,0.038 0.036,0.08 0.041,0.123 0.006,0.044 0.003,0.088 -0.009,0.13 C 12.976,8.74 12.956,8.78 12.93,8.815 12.903,8.849 12.87,8.878 12.832,8.9 L 6.664,12.455 C 6.614,12.485 6.557,12.5 6.499,12.5 6.441,12.5 6.384,12.485 6.334,12.455 L 0.166,8.9 C 0.09,8.856 0.034,8.783 0.011,8.697 -0.011,8.612 0,8.521 0.044,8.444 0.088,8.367 0.16,8.311 0.245,8.288 0.33,8.265 0.42,8.277 0.496,8.321 l 6.003,3.461 6.003,-3.461 c 0.038,-0.022 0.079,-0.036 0.123,-0.042 0.043,-0.01 0.087,0 0.129,0.01 0.042,0.011 0.082,0.031 0.116,0.058 0.035,0.027 0.064,0.061 0.085,0.099 z"
     id="path48" />
  <path
     d="M 6.5,3.218 12.002,6.389 6.5,9.561 0.998,6.389 Z"
     id="path49" />
  <path
     d="m 0.167,6.679 6.168,3.555 c 0.05,0.03 0.107,0.045 0.165,0.045 0.058,0 0.115,-0.015 0.165,-0.045 L 12.833,6.679 C 12.884,6.65 12.926,6.608 12.955,6.557 12.985,6.506 13,6.448 13,6.389 13,6.331 12.985,6.273 12.955,6.222 12.926,6.171 12.884,6.129 12.833,6.1 L 6.665,2.545 C 6.615,2.515 6.558,2.5 6.5,2.5 6.442,2.5 6.385,2.515 6.335,2.545 L 0.167,6.1 C 0.116,6.129 0.074,6.171 0.045,6.222 0.016,6.273 0,6.331 0,6.389 0,6.448 0.016,6.506 0.045,6.557 0.074,6.608 0.116,6.65 0.167,6.679 Z"
     id="path50" />
  <path
     id="path63"
     fill="#1cabe2"
     d="M 12.46856,3.9273 11.46178,2.92053 C 11.74879,2.59052 11.89654,2.16177 11.87379,1.72476 11.85079,1.288 11.65929,0.877 11.33928,0.57849 11.01928,0.28024 10.59602,0.11773 10.15851,0.12523 9.72126,0.13223 9.30375,0.30999 8.99449,0.61949 8.68499,0.92874 8.50773,1.34626 8.50023,1.78351 c -0.007,0.43751 0.15501,0.86076 0.45326,1.18078 0.2985,0.32 0.70952,0.5115 1.14627,0.5345 0.43701,0.0227 0.86576,-0.125 1.19576,-0.412 l 1.00678,1.00676 c 0.0222,0.0207 0.0517,0.032 0.0822,0.0315 0.0305,-5e-4 0.0595,-0.013 0.081,-0.0345 0.0215,-0.0215 0.034,-0.0505 0.0345,-0.081 5e-4,-0.0305 -0.0107,-0.06 -0.0315,-0.0823 z M 8.74099,1.81601 c 0,-0.28675 0.085,-0.56725 0.24425,-0.80551 0.15951,-0.2385 0.38575,-0.42451 0.65077,-0.53426 0.265,-0.10975 0.5565,-0.13825 0.83776,-0.0825 0.28125,0.056 0.53975,0.19425 0.74251,0.397 0.20276,0.20276 0.34076,0.46102 0.39676,0.74227 0.056,0.28125 0.0272,0.57276 -0.0825,0.83776 -0.10976,0.265 -0.29576,0.4915 -0.53402,0.65076 -0.2385,0.15926 -0.51875,0.24426 -0.80551,0.24426 C 9.80651,3.26529 9.43799,3.11254 9.16625,2.84077 8.89424,2.56877 8.74149,2.20027 8.74099,1.81601 Z"
     style="stroke:#1cabe2;stroke-width:0.25;stroke-dasharray:none;stroke-opacity:1" />
  <circle
     style="fill:#ffffff;fill-opacity:1;stroke:#ffffff;stroke-width:0.156003;stroke-dasharray:none;stroke-opacity:1"
     id="circle98"
     cx="8.9023743"
     cy="6.0884399"
     r="0.472103" />
  <circle
     style="fill:#ffffff;fill-opacity:1;stroke:#ffffff;stroke-width:0.156003;stroke-dasharray:none;stroke-opacity:1"
     id="circle99"
     cx="6.1558228"
     cy="7.8545532"
     r="0.472103" />
  <path
     id="path119"
     clip-path="url(#clipPath105)"
     style="fill:#1cabe2;fill-opacity:1"
     d="m 260.5,801.71875 -5.50195,3.16992 5.50195,3.17188 5.50195,-3.17188 z"
     transform="translate(-254,-798.5)" />
  <circle
     style="fill:#1cabe2;fill-opacity:1;stroke:#1cabe2;stroke-width:0.156003;stroke-dasharray:none;stroke-opacity:1"
     id="circle119"
     cx="6.1375275"
     cy="4.4194946"
     r="0.472103" />
  <circle
     style="fill:#1cabe2;fill-opacity:1;stroke:#1cabe2;stroke-width:0.156003;stroke-dasharray:none;stroke-opacity:1"
     id="circle120"
     cx="8.9023743"
     cy="6.0884399"
     r="0.472103" />
  <circle
     style="fill:#1cabe2;fill-opacity:1;stroke:#1cabe2;stroke-width:0.156003;stroke-dasharray:none;stroke-opacity:1"
     id="circle121"
     cx="6.1558228"
     cy="7.8545532"
     r="0.472103" />
  <circle
     style="fill:#1cabe2;fill-opacity:1;stroke:#1cabe2;stroke-width:0.156003;stroke-dasharray:none;stroke-opacity:1"
     id="circle122"
     cx="3.5948944"
     cy="5.9987183"
     r="0.472103" />
  <path
     id="path122"
     fill="#1cabe2"
     d="m 260.75,791.5305 5.252,1.3585 -5.502,3.172 -2.8145,-1.70325 z"
     sodipodi:nodetypes="ccccc"
     clip-path="url(#clipPath115)"
     transform="translate(-254,-786.5)"
     style="fill:#1cabe2;fill-opacity:1" />
</svg>
