<svg width="494" height="586" viewBox="0 0 494 586" fill="none" xmlns="http://www.w3.org/2000/svg">
<path d="M481.906 177.351L248.918 10.9313C247.174 9.68528 244.829 9.68998 243.09 10.943L12.0776 177.35C10.7731 178.29 10 179.799 10 181.407V405.273C10 406.888 10.7802 408.404 12.0946 409.342L243.107 574.281C244.839 575.518 247.164 575.522 248.901 574.293L481.889 409.341C483.213 408.404 484 406.883 484 405.26V181.42C484 179.805 483.22 178.29 481.906 177.351Z" stroke="white" stroke-width="20" stroke-linecap="round"/>
<path d="M59 332.347C71.8333 281.18 126.4 178.847 242 178.847C386.5 178.847 428.667 306.847 435.5 332.347" stroke="white" stroke-width="20" stroke-linecap="round"/>
<circle cx="247" cy="318.847" r="88" fill="white"/>
</svg>
